<svg width="50" height="51" viewBox="0 0 50 51" fill="none" xmlns="http://www.w3.org/2000/svg">
<circle cx="25" cy="25.8799" r="25" fill="#272B2E"/>
<path fill-rule="evenodd" clip-rule="evenodd" d="M20.7092 13.3799C20.4818 13.4083 20.2828 13.5789 20.1975 13.8062C19.7143 15.6822 19.8849 17.274 20.7376 18.4963C20.8797 18.7236 21.0503 18.9226 21.2492 19.1216C20.8513 19.0647 20.4534 19.0647 20.0838 19.0363C18.2078 19.0363 16.7014 19.6048 15.6212 20.6281C13.6884 22.4188 13.0915 25.3749 13.4326 28.3026C13.7736 31.2303 15.0527 34.2149 17.0993 36.2046C19.089 38.1374 21.903 39.047 25.0012 37.8248C28.0995 39.047 30.9135 38.1374 32.9032 36.2046C34.9497 34.2433 36.2288 31.2588 36.5699 28.3026C36.911 25.3749 36.3141 22.4188 34.3813 20.6281C33.3011 19.6332 31.7946 19.0363 29.9186 19.0363C28.6395 19.0363 27.2183 19.2921 25.5982 19.889C25.5982 19.7469 25.5982 19.6048 25.5982 19.4342C25.7118 18.0415 26.1666 17.3308 26.9057 16.7624C27.6447 16.1939 28.7817 15.7959 30.146 15.3127C30.4019 15.2275 30.5724 14.9432 30.544 14.6874C30.5155 14.4316 30.2597 14.2042 30.0039 14.2042C29.9471 14.2042 29.8618 14.2042 29.8049 14.2326C28.4406 14.6874 27.1899 15.0853 26.2235 15.8528C25.854 16.137 25.5413 16.4781 25.2855 16.9045C25.1434 16.4497 24.9444 16.0233 24.6886 15.6254C23.978 14.5453 22.7557 13.7778 20.965 13.4083C20.9366 13.4083 20.8797 13.4083 20.8513 13.4083C20.7376 13.3799 20.7092 13.3799 20.7092 13.3799ZM21.1924 14.6305C22.4431 14.9716 23.1821 15.5117 23.6653 16.2223C24.1769 17.0182 24.4043 18.0699 24.4328 19.4058C24.4328 19.4342 24.4328 19.4342 24.4328 19.4627C24.4328 19.4911 24.4328 19.4911 24.4328 19.5195C24.4328 19.6332 24.4328 19.7469 24.4328 19.8606C23.1537 19.2921 22.2157 18.6384 21.704 17.8425C21.1071 17.0182 20.9081 16.0233 21.1924 14.6305ZM20.1123 20.1449C21.3629 20.1449 22.8978 20.486 24.717 21.1966C24.916 21.2818 25.0865 21.2534 25.2855 21.1966C29.4639 19.5195 32.0505 20.0027 33.6138 21.4524C35.1771 22.902 35.7456 25.4602 35.433 28.1605C35.1203 30.8608 33.898 33.6464 32.1073 35.3803C30.3166 37.1142 28.0426 37.8532 25.2571 36.6878C25.0865 36.6025 24.9444 36.6309 24.717 36.6878C21.9314 37.8532 19.6575 37.0857 17.8952 35.3518C16.1044 33.6179 14.8822 30.8324 14.5695 28.1321C14.2569 25.4318 14.8538 22.8452 16.3887 21.4239C17.2414 20.6565 18.4637 20.1449 20.1123 20.1449Z" fill="white"/>
<path fill-rule="evenodd" clip-rule="evenodd" d="M18.0941 23.2147C17.8952 23.2147 17.7246 23.2999 17.6109 23.4421C16.1897 25.3181 16.3318 27.5352 17.0424 29.4396C17.7815 31.344 19.089 32.9926 20.1691 33.9875C20.3965 34.2149 20.766 34.1865 20.965 33.9591C21.1924 33.7317 21.164 33.3621 20.9366 33.1632C20.9366 33.1632 20.9366 33.1632 20.9081 33.1632C19.9701 32.282 18.7195 30.7187 18.0657 29.0417C17.412 27.3646 17.3267 25.6307 18.4637 24.1243C18.6626 23.8684 18.6058 23.5273 18.3784 23.3284C18.3215 23.2431 18.2078 23.2147 18.0941 23.2147Z" fill="white"/>
<path fill-rule="evenodd" clip-rule="evenodd" d="M20.7092 13.3799C20.4818 13.4083 20.2828 13.5789 20.1975 13.8062C19.7143 15.6822 19.8849 17.274 20.7376 18.4963C20.8797 18.7236 21.0503 18.9226 21.2492 19.1216C20.8513 19.0647 20.4534 19.0647 20.0838 19.0363C18.2078 19.0363 16.7014 19.6048 15.6212 20.6281C13.6884 22.4188 13.0915 25.3749 13.4326 28.3026C13.7736 31.2303 15.0527 34.2149 17.0993 36.2046C19.089 38.1374 21.903 39.047 25.0012 37.8248C28.0995 39.047 30.9135 38.1374 32.9032 36.2046C34.9497 34.2433 36.2288 31.2588 36.5699 28.3026C36.911 25.3749 36.3141 22.4188 34.3813 20.6281C33.3011 19.6332 31.7946 19.0363 29.9186 19.0363C28.6395 19.0363 27.2183 19.2921 25.5982 19.889C25.5982 19.7469 25.5982 19.6048 25.5982 19.4342C25.7118 18.0415 26.1666 17.3308 26.9057 16.7624C27.6447 16.1939 28.7817 15.7959 30.146 15.3127C30.4019 15.2275 30.5724 14.9432 30.544 14.6874C30.5155 14.4316 30.2597 14.2042 30.0039 14.2042C29.9471 14.2042 29.8618 14.2042 29.8049 14.2326C28.4406 14.6874 27.1899 15.0853 26.2235 15.8528C25.854 16.137 25.5413 16.4781 25.2855 16.9045C25.1434 16.4497 24.9444 16.0233 24.6886 15.6254C23.978 14.5453 22.7557 13.7778 20.965 13.4083C20.9366 13.4083 20.8797 13.4083 20.8513 13.4083C20.7376 13.3799 20.7092 13.3799 20.7092 13.3799ZM21.1924 14.6305C22.4431 14.9716 23.1821 15.5117 23.6653 16.2223C24.1769 17.0182 24.4043 18.0699 24.4328 19.4058C24.4328 19.4342 24.4328 19.4342 24.4328 19.4627C24.4328 19.4911 24.4328 19.4911 24.4328 19.5195C24.4328 19.6332 24.4328 19.7469 24.4328 19.8606C23.1537 19.2921 22.2157 18.6384 21.704 17.8425C21.1071 17.0182 20.9081 16.0233 21.1924 14.6305ZM20.1123 20.1449C21.3629 20.1449 22.8978 20.486 24.717 21.1966C24.916 21.2818 25.0865 21.2534 25.2855 21.1966C29.4639 19.5195 32.0505 20.0027 33.6138 21.4524C35.1771 22.902 35.7456 25.4602 35.433 28.1605C35.1203 30.8608 33.898 33.6464 32.1073 35.3803C30.3166 37.1142 28.0426 37.8532 25.2571 36.6878C25.0865 36.6025 24.9444 36.6309 24.717 36.6878C21.9314 37.8532 19.6575 37.0857 17.8952 35.3518C16.1044 33.6179 14.8822 30.8324 14.5695 28.1321C14.2569 25.4318 14.8538 22.8452 16.3887 21.4239C17.2414 20.6565 18.4637 20.1449 20.1123 20.1449Z" stroke="white"/>
<path fill-rule="evenodd" clip-rule="evenodd" d="M18.0941 23.2147C17.8952 23.2147 17.7246 23.2999 17.6109 23.4421C16.1897 25.3181 16.3318 27.5352 17.0424 29.4396C17.7815 31.344 19.089 32.9926 20.1691 33.9875C20.3965 34.2149 20.766 34.1865 20.965 33.9591C21.1924 33.7317 21.164 33.3621 20.9366 33.1632C20.9366 33.1632 20.9366 33.1632 20.9081 33.1632C19.9701 32.282 18.7195 30.7187 18.0657 29.0417C17.412 27.3646 17.3267 25.6307 18.4637 24.1243C18.6626 23.8684 18.6058 23.5273 18.3784 23.3284C18.3215 23.2431 18.2078 23.2147 18.0941 23.2147Z" stroke="white"/>
</svg>
