<svg width="25" height="22" viewBox="0 0 25 22" fill="none" xmlns="http://www.w3.org/2000/svg">
<path d="M7.70372 14.2927C8.23528 14.2927 8.66697 13.8655 8.66697 13.3376C8.66697 12.8098 8.23528 12.3826 7.70372 12.3826C7.17216 12.3826 6.74047 12.8098 6.74047 13.3376C6.74047 13.8655 7.17216 14.2927 7.70372 14.2927Z" fill="#7D8082" stroke="#7D8082" stroke-width="0.1"/>
<path d="M17.2962 14.2927C17.8278 14.2927 18.2595 13.8655 18.2595 13.3376C18.2595 12.8098 17.8278 12.3826 17.2962 12.3826C16.7647 12.3826 16.333 12.8098 16.333 13.3376C16.333 13.8655 16.7647 14.2927 17.2962 14.2927Z" fill="#7D8082" stroke="#7D8082" stroke-width="0.1"/>
<path d="M24.05 12.9533C24.05 11.6315 23.0938 10.5285 21.832 10.2848V9.93081C21.832 4.83022 17.6453 0.681445 12.5 0.681445C7.3547 0.681445 3.168 4.83022 3.168 9.93081V10.2848C1.90618 10.5286 0.95 11.6316 0.95 12.9533C0.95 14.2877 1.92447 15.3994 3.20419 15.6287C3.39339 17.6514 4.33636 19.1509 6.01575 20.0854C7.51571 20.92 9.63871 21.3229 12.5 21.3229C15.3613 21.3229 17.4843 20.9199 18.9843 20.0854C20.6636 19.1509 21.6066 17.6515 21.7958 15.6287C23.0755 15.3995 24.05 14.2877 24.05 12.9533ZM2.00081 12.9533C2.00081 12.2108 2.49087 11.5792 3.16794 11.3595V14.5471C2.49087 14.3275 2.00081 13.6959 2.00081 12.9533ZM20.7812 14.8445C20.7812 15.8731 20.5912 16.7396 20.2084 17.4566C19.8257 18.1731 19.2489 18.743 18.4702 19.1763C17.1381 19.9175 15.1875 20.2806 12.5 20.2806C9.81252 20.2806 7.86188 19.9175 6.52985 19.1763C5.75116 18.743 5.17428 18.1731 4.79163 17.4566C4.40876 16.7396 4.21881 15.8731 4.21881 14.8445V9.93081C4.21881 6.22782 6.7067 3.08977 10.1135 2.07172C12.6979 2.10769 14.0622 3.95595 14.0622 5.27836C14.0622 6.28737 13.2337 7.10915 12.2145 7.10915C11.457 7.10915 10.8414 6.49839 10.8414 5.74876C10.8414 5.20662 11.2867 4.76466 11.8348 4.76466C12.1246 4.76466 12.3602 4.53173 12.3602 4.24349C12.3602 3.95525 12.1246 3.72232 11.8348 3.72232C10.708 3.72232 9.79062 4.63091 9.79062 5.74876C9.79062 7.07411 10.8783 8.15149 12.2145 8.15149C13.8124 8.15149 15.113 6.86308 15.113 5.27836C15.113 4.2843 14.6097 3.21957 13.7711 2.42736C13.4859 2.15796 13.1675 1.92514 12.8229 1.73065C17.2404 1.89941 20.7812 5.51314 20.7812 9.93081V14.8445ZM22.9992 12.9534C22.9992 13.6959 22.5091 14.3275 21.832 14.5472V11.3596C22.5091 11.5793 22.9992 12.2108 22.9992 12.9534Z" fill="#7D8082" stroke="#7D8082" stroke-width="0.1"/>
<path d="M14.3034 14.6002L14.3034 14.6002C13.3091 15.5865 11.6909 15.5865 10.6966 14.6002L10.6966 14.6002C10.4914 14.3967 10.1591 14.3967 9.95388 14.6002L9.95388 14.6002C9.74851 14.8039 9.74851 15.1343 9.95388 15.338C10.6559 16.0344 11.5782 16.3825 12.5 16.3825C13.4219 16.3825 14.3441 16.0344 15.0462 15.338C15.2516 15.1343 15.2516 14.8039 15.0462 14.6002L15.0462 14.6002C14.841 14.3967 14.5086 14.3967 14.3034 14.6002Z" fill="#7D8082" stroke="#7D8082" stroke-width="0.1"/>
</svg>
