<svg width="50" height="51" viewBox="0 0 50 51" fill="none" xmlns="http://www.w3.org/2000/svg">
<circle cx="25" cy="25.2227" r="25" fill="#272B2E"/>
<path d="M34.0631 28.7643H33.4798C33.3965 28.5143 33.3131 28.306 33.1881 28.056V12.7227H28.2715V15.806C27.9798 15.681 27.6882 15.556 27.3965 15.4727V14.7643C27.3965 13.6393 26.4798 12.7227 25.3548 12.7227H24.6465C23.5215 12.7227 22.6048 13.6393 22.6048 14.7643V15.4727C22.3132 15.556 22.0215 15.681 21.7298 15.806V12.7227H16.8965V28.056C16.7715 28.2643 16.6465 28.5143 16.6048 28.7227H15.9382C14.7298 28.7227 13.7715 29.681 13.7715 30.8893V33.5143C13.7715 34.7227 14.7298 35.681 15.9382 35.681H16.6048C17.0215 36.8893 18.1048 37.7227 19.4382 37.7227H30.6465C31.9381 37.7227 33.0632 36.8893 33.4382 35.681H34.0631C35.2715 35.681 36.2298 34.7227 36.2298 33.5143V30.8893C36.2298 29.7227 35.2298 28.7643 34.0631 28.7643ZM29.9381 14.3893H31.4382V18.306C31.2298 18.0143 30.9798 17.7227 30.7298 17.4727C30.4798 17.2227 30.1881 16.9727 29.9381 16.7643V14.3893ZM24.3131 14.7643C24.3131 14.556 24.4798 14.3893 24.6882 14.3893H25.3965C25.6048 14.3893 25.7715 14.556 25.7715 14.7643V15.181C25.5215 15.1393 25.2715 15.1393 25.0632 15.1393C24.8132 15.1393 24.5631 15.1393 24.3548 15.181C24.3131 15.1393 24.3131 14.7643 24.3131 14.7643ZM18.5632 14.3893H20.0632V16.806C19.7715 17.0143 19.5215 17.2643 19.2715 17.5143C19.0215 17.7643 18.7715 18.056 18.5632 18.3477C18.5632 18.306 18.5632 14.3893 18.5632 14.3893ZM20.4798 18.681C21.6882 17.4727 23.3132 16.806 25.0215 16.806C25.4798 16.806 25.9381 16.8477 26.3965 16.9727C27.6048 17.2227 28.6882 17.806 29.5632 18.7227C30.7715 19.931 31.4382 21.556 31.4382 23.2643V26.806C31.1465 26.7227 30.8965 26.681 30.5631 26.681H19.4382C19.1465 26.681 18.8548 26.7227 18.5632 26.806V23.306C18.5632 21.5143 19.2298 19.8893 20.4798 18.681ZM15.4382 33.5143V30.8893C15.4382 30.5977 15.6465 30.3893 15.9382 30.3893H16.4798V34.0143H15.9382C15.6465 34.0143 15.4382 33.806 15.4382 33.5143ZM30.6048 36.056H19.4382C18.7298 36.056 18.1465 35.4727 18.1465 34.7643V29.5977C18.1465 28.8893 18.7298 28.306 19.4382 28.306H30.6465C31.3548 28.306 31.9381 28.8893 31.9381 29.5977V34.806C31.8965 35.4727 31.3132 36.056 30.6048 36.056ZM34.5632 33.5143C34.5632 33.806 34.3548 34.0143 34.0631 34.0143H33.6048V30.3893H34.0631C34.3548 30.3893 34.5632 30.5977 34.5632 30.8893C34.5632 30.931 34.5632 33.5143 34.5632 33.5143Z" fill="white"/>
<path d="M30.3132 30.556H19.7715V32.2227H30.3132V30.556Z" fill="white"/>
</svg>
