<svg width="50" height="51" viewBox="0 0 50 51" fill="none" xmlns="http://www.w3.org/2000/svg">
<circle cx="25" cy="25.543" r="25" fill="#272B2E"/>
<path d="M34.0631 29.0846H33.4798C33.3965 28.8346 33.3131 28.6263 33.1881 28.3763V13.043H28.2715V16.1263C27.9798 16.0013 27.6882 15.8763 27.3965 15.793V15.0846C27.3965 13.9596 26.4798 13.043 25.3548 13.043H24.6465C23.5215 13.043 22.6048 13.9596 22.6048 15.0846V15.793C22.3132 15.8763 22.0215 16.0013 21.7298 16.1263V13.043H16.8965V28.3763C16.7715 28.5846 16.6465 28.8346 16.6048 29.043H15.9382C14.7298 29.043 13.7715 30.0013 13.7715 31.2096V33.8346C13.7715 35.043 14.7298 36.0013 15.9382 36.0013H16.6048C17.0215 37.2096 18.1048 38.043 19.4382 38.043H30.6465C31.9381 38.043 33.0632 37.2096 33.4382 36.0013H34.0631C35.2715 36.0013 36.2298 35.043 36.2298 33.8346V31.2096C36.2298 30.043 35.2298 29.0846 34.0631 29.0846ZM29.9381 14.7096H31.4382V18.6263C31.2298 18.3346 30.9798 18.043 30.7298 17.793C30.4798 17.543 30.1881 17.293 29.9381 17.0846V14.7096ZM24.3131 15.0846C24.3131 14.8763 24.4798 14.7096 24.6882 14.7096H25.3965C25.6048 14.7096 25.7715 14.8763 25.7715 15.0846V15.5013C25.5215 15.4596 25.2715 15.4596 25.0632 15.4596C24.8132 15.4596 24.5631 15.4596 24.3548 15.5013C24.3131 15.4596 24.3131 15.0846 24.3131 15.0846ZM18.5632 14.7096H20.0632V17.1263C19.7715 17.3346 19.5215 17.5846 19.2715 17.8346C19.0215 18.0846 18.7715 18.3763 18.5632 18.668C18.5632 18.6263 18.5632 14.7096 18.5632 14.7096ZM20.4798 19.0013C21.6882 17.793 23.3132 17.1263 25.0215 17.1263C25.4798 17.1263 25.9381 17.168 26.3965 17.293C27.6048 17.543 28.6882 18.1263 29.5632 19.043C30.7715 20.2513 31.4382 21.8763 31.4382 23.5846V27.1263C31.1465 27.043 30.8965 27.0013 30.5631 27.0013H19.4382C19.1465 27.0013 18.8548 27.043 18.5632 27.1263V23.6263C18.5632 21.8346 19.2298 20.2096 20.4798 19.0013ZM15.4382 33.8346V31.2096C15.4382 30.918 15.6465 30.7096 15.9382 30.7096H16.4798V34.3346H15.9382C15.6465 34.3346 15.4382 34.1263 15.4382 33.8346ZM30.6048 36.3763H19.4382C18.7298 36.3763 18.1465 35.793 18.1465 35.0846V29.918C18.1465 29.2096 18.7298 28.6263 19.4382 28.6263H30.6465C31.3548 28.6263 31.9381 29.2096 31.9381 29.918V35.1263C31.8965 35.793 31.3132 36.3763 30.6048 36.3763ZM34.5632 33.8346C34.5632 34.1263 34.3548 34.3346 34.0631 34.3346H33.6048V30.7096H34.0631C34.3548 30.7096 34.5632 30.918 34.5632 31.2096C34.5632 31.2513 34.5632 33.8346 34.5632 33.8346Z" fill="white"/>
<path d="M30.3132 30.8763H19.7715V32.543H30.3132V30.8763Z" fill="white"/>
</svg>
