<svg width="50" height="51" viewBox="0 0 50 51" fill="none" xmlns="http://www.w3.org/2000/svg">
<circle cx="25" cy="25.8945" r="25" fill="#272B2E"/>
<path d="M13.0449 34.0467C13.0449 36.438 15.0014 38.3945 17.3927 38.3945H32.6101C35.0014 38.3945 36.958 36.438 36.958 34.0467V23.1771C36.958 20.7858 35.0014 18.8293 32.6101 18.8293H30.4362V16.6554C30.4362 14.8619 28.9688 13.3945 27.1754 13.3945H22.8275C21.0341 13.3945 19.5667 14.8619 19.5667 16.6554V18.8293H17.3927C15.0014 18.8293 13.0449 20.7858 13.0449 23.1771V34.0467ZM21.7406 16.6554C21.7406 16.0576 22.2297 15.5684 22.8275 15.5684H27.1754C27.7732 15.5684 28.2623 16.0576 28.2623 16.6554V18.8293H21.7406V16.6554ZM15.2188 23.1771C15.2188 21.9815 16.1971 21.0032 17.3927 21.0032H32.6101C33.8058 21.0032 34.7841 21.9815 34.7841 23.1771V34.0467C34.7841 35.2424 33.8058 36.2206 32.6101 36.2206H17.3927C16.1971 36.2206 15.2188 35.2424 15.2188 34.0467V23.1771Z" fill="white"/>
<path d="M21.7406 29.6989H23.9145V31.8728C23.9145 32.4706 24.4036 32.9597 25.0014 32.9597C25.5993 32.9597 26.0884 32.4706 26.0884 31.8728V29.6989H28.2623C28.8601 29.6989 29.3493 29.2097 29.3493 28.6119C29.3493 28.0141 28.8601 27.525 28.2623 27.525H26.0884V25.3511C26.0884 24.7532 25.5993 24.2641 25.0014 24.2641C24.4036 24.2641 23.9145 24.7532 23.9145 25.3511V27.525H21.7406C21.1427 27.525 20.6536 28.0141 20.6536 28.6119C20.6536 29.2097 21.1427 29.6989 21.7406 29.6989Z" fill="white"/>
</svg>
