<svg width="160" height="29" viewBox="0 0 160 29" fill="none" xmlns="http://www.w3.org/2000/svg">
<path d="M143.589 0C138.51 0 133.296 1.94087 130.587 5.37122C129.074 2.57277 126.298 1.15098 123.454 1.15098H103.251V20.3113L94.2212 1.15098H87.3589L79.3228 18.4156H75.9368C74.8081 21.9813 72.0993 23.6514 67.8104 23.5611C63.0023 23.4934 59.3228 19.7245 59.1648 14.8047C58.9616 9.65915 62.9571 5.59689 67.9007 5.61946C71.2867 5.64203 73.8826 6.97354 75.6659 9.92996L82.8217 9.02724C82.8217 9.02724 80.1354 0 67.8104 0C53.3634 0 51.7607 11.9611 51.7607 11.9611H35.8239V6.25136H53.6343V1.15098H29.0745V27.172L21.6479 16.9712C21.6479 16.9712 28.623 15.9105 28.623 9.09495C28.623 3.63347 24.1535 1.15098 20.2257 1.15098H0V28.1424H6.77201V17.6031H14.5598L21.6479 28.1424H54.4921L54.447 23.0646H35.8691V16.9712H51.9639C51.9639 16.9712 53.4537 29 67.991 29C71.7382 29 74.3115 28.1424 74.3115 28.1424H82.1896L84.1986 23.4934H97.6524L99.7968 28.1424H110.023V17.6031H117.359L124.221 28.1424H132.235L124.379 16.7907C124.379 16.7907 126.05 16.6553 127.336 15.8654C128.104 23.4934 135.508 29 143.612 29C152.641 29 160 22.523 160 14.5113C159.977 6.61246 153.363 0 143.589 0ZM17.991 12.4802H6.77201V6.2288H17.991C23.0023 6.2288 22.2799 12.4802 17.991 12.4802ZM86.5011 18.393L90.8352 8.53075L95.237 18.393H86.5011ZM120.677 12.4802H110.045V6.2288H120.677C125.666 6.2288 125.237 12.4802 120.677 12.4802ZM143.657 23.5385C138.623 23.6062 134.515 19.7245 134.515 14.6693C134.515 9.61401 138.194 5.52919 143.657 5.48406C148.713 5.46149 152.799 9.59144 152.799 14.6693C152.799 19.7471 148.826 23.4708 143.657 23.5385Z" fill="black"/>
</svg>
