<svg width="102" height="30" viewBox="0 0 102 30" fill="none" xmlns="http://www.w3.org/2000/svg">
<path d="M74.0267 0.803615L73.9627 0.750544C73.9627 0.750544 71.5431 1.93932 68.2921 1.97117C64.9665 2.01362 63.325 0.633789 63.325 0.633789L60.7242 4.15767C60.7242 4.15767 62.8027 5.41014 66.0964 5.36768C71.9268 5.31461 74.0267 0.803615 74.0267 0.803615ZM31.881 27.8484C28.9711 27.1478 28.5874 26.4367 26.1465 22.7324L14.3363 4.96434C12.6415 2.41696 15.0931 1.71643 15.7006 1.71643V0.92037H1.08716V1.6209C2.74996 1.6209 5.42537 2.76722 8.21803 6.97041L20.0495 24.7809C21.8189 27.2752 19.4419 28.1349 17.8751 28.1349V28.7718H32.4566V27.9227C32.1155 27.912 31.913 27.859 31.881 27.8484Z" fill="#000F27"/>
<path d="M18.4507 10.4522L18.8984 11.1846L21.0622 8.30819C21.1688 8.14897 22.6504 6.40826 23.4924 5.38931C23.5564 5.30439 23.6417 5.24071 23.7163 5.16641C26.9566 1.89727 29.6533 1.73806 31.007 1.56823V0.910156H19.3674V1.50455C21.2114 1.41963 23.8548 2.36429 21.2967 6.38703L18.4507 10.4522ZM51.1419 25.0148V15.271C51.1419 11.0891 47.9228 8.5417 42.668 8.5417C38.7028 8.5417 35.4945 10.1975 35.3772 10.2506L35.8036 15.1224H35.8888C35.8888 15.1224 40.4083 7.94731 43.2649 9.15731L43.137 9.09363C43.2222 9.12547 43.3075 9.16793 43.3928 9.221C43.3501 9.19977 43.3075 9.17854 43.2542 9.15731L43.3928 9.221C44.4907 9.81539 45.3647 11.2695 45.3647 13.8381V15.6319C44.1922 15.8973 42.0071 16.4492 38.8307 17.4363C34.3326 18.8374 32.9363 20.939 32.9363 23.6774C32.9363 27.5197 35.7822 29.3666 38.7774 29.3666C42.4868 29.3666 44.5226 26.6918 45.3647 25.2271V28.7722H53.263V28.6554C53.2843 28.6766 51.1419 27.5091 51.1419 25.0148ZM45.386 24.3567C45.0556 24.8768 43.947 26.3415 42.0711 26.3415C40.2164 26.3415 38.7668 25.3438 38.7668 22.807C38.7668 19.2301 43.3075 17.0117 45.386 16.1838V24.3567ZM71.8097 9.17854H69.6352L69.6139 9.28468L62.9733 24.293H62.7175V12.9465C62.7282 10.4628 64.86 9.2953 64.86 9.2953V9.17854H54.8192V9.2953C54.8192 9.2953 56.951 10.4628 56.9617 12.9465V25.0042C56.951 27.4879 54.8192 28.6554 54.8192 28.6554V28.7722H61.8435L61.9181 28.5493L68.6546 13.4985H68.9424V24.9936C68.9424 27.4879 66.7999 28.6554 66.7999 28.6554V28.7722H76.8407V28.6554C76.8407 28.6554 74.7089 27.4879 74.6982 25.0042V12.9572C74.6982 10.4628 76.8407 9.2953 76.8407 9.2953V9.17854H71.8097ZM101.186 9.2953V9.17854H79.1537V9.2953C79.1537 9.2953 81.2855 10.4628 81.2962 12.9465V24.9936C81.2962 27.4879 79.1537 28.6448 79.1537 28.6448V28.7616H89.1945V28.6554C89.1945 28.6554 87.0627 27.4879 87.052 25.0042V9.95337H93.2875V24.9936C93.2769 27.4879 91.1344 28.6554 91.1344 28.6554V28.7722H101.175V28.6554C101.175 28.6554 99.0434 27.4879 99.0327 24.9936V12.9572C99.0434 10.4628 101.186 9.2953 101.186 9.2953ZM10.8189 22.2657L13.7501 17.0117L13.377 16.4917L9.28399 22.202C6.19288 26.8616 2.33432 28.1035 0.660858 28.2096C0.554268 28.2202 0.458337 28.2202 0.373065 28.2202H0V28.7722H13.6648L13.6542 28.1247C13.4197 28.0929 9.97682 28.613 10.1367 24.7813C10.1793 23.9321 10.4671 23.0512 10.8189 22.2657Z" fill="#000F27"/>
</svg>
