<svg width="25" height="33" viewBox="0 0 25 33" fill="none" xmlns="http://www.w3.org/2000/svg">
<path d="M16.5899 24.0606L16.5899 24.0606L16.5859 24.0661C14.7151 26.6645 13.1845 28.3306 12.4754 29.0649C11.7427 28.3079 10.1408 26.5728 8.36744 24.0692L8.36753 24.0691L8.3612 24.0606C7.08744 22.341 5.84904 20.3392 4.93098 18.3132C4.01016 16.281 3.42717 14.2584 3.42717 12.4873C3.42717 7.47309 7.46137 3.43889 12.4756 3.43889C17.4897 3.43889 21.5239 7.47309 21.5239 12.4873C21.5239 14.324 20.9402 16.3468 20.0207 18.3602C19.1033 20.369 17.8653 22.3388 16.5899 24.0606ZM13.2162 31.6795L12.8626 31.326C13.2162 31.6795 13.2162 31.6795 13.2163 31.6794L13.2165 31.6793L13.217 31.6788L13.2186 31.6771L13.2248 31.6709L13.2481 31.6474C13.2684 31.6268 13.2981 31.5965 13.3368 31.5569C13.414 31.4776 13.5265 31.361 13.6694 31.2099C13.9552 30.9078 14.3623 30.4681 14.8505 29.9148C15.8262 28.809 17.128 27.247 18.4308 25.423C21.0124 21.8088 23.8143 17.0481 23.8143 12.4873C23.8143 6.15047 18.691 1.01953 12.4756 1.01953C6.13489 1.01953 1.00781 6.14661 1.00781 12.4873C1.00781 17.0481 3.8097 21.8088 6.39127 25.423C7.69409 27.247 8.99585 28.809 9.9716 29.9148C10.4597 30.4681 10.8669 30.9078 11.1526 31.2099C11.2955 31.361 11.4081 31.4776 11.4853 31.5569C11.5239 31.5965 11.5537 31.6268 11.574 31.6474L11.5973 31.6709L11.6034 31.6771L11.6051 31.6788L11.6056 31.6793L11.6058 31.6794C11.6058 31.6795 11.6059 31.6795 11.9594 31.326L11.6059 31.6795C12.0592 32.1329 12.7629 32.1329 13.2162 31.6795ZM9.62071 12.3582V12.3404L9.61944 12.3226C9.51353 10.8398 10.7948 9.50339 12.4756 9.50339C14.1224 9.50339 15.3304 10.8153 15.3304 12.3582C15.3304 13.8885 14.0059 15.2131 12.4756 15.2131C10.9452 15.2131 9.62071 13.8885 9.62071 12.3582ZM12.4756 7.21306C9.61876 7.21306 7.20136 9.63049 7.20136 12.4873C7.20136 15.3441 9.61877 17.7614 12.4756 17.7614C15.3323 17.7614 17.7497 15.3441 17.7497 12.4873C17.7497 9.63049 15.3323 7.21306 12.4756 7.21306Z" fill="white" stroke="white"/>
</svg>
