<svg width="878" height="1302" viewBox="0 0 878 1302" fill="none" xmlns="http://www.w3.org/2000/svg">
<g opacity="0.1">
<path d="M785.914 1610.87C771.711 1596.67 758.742 1581.23 747.009 1563.94C679.698 1465.75 664.568 1339.47 653.761 1207.62C640.176 1042.74 466.648 968.02 327.394 908.428C257.921 878.478 198.02 853.159 164.674 821.047C164.365 820.738 163.747 820.121 163.438 819.812C139.046 795.419 130.709 761.146 140.59 722.859C149.853 687.042 173.937 649.99 208.827 618.187C245.879 584.222 292.503 559.212 343.141 545.009C419.716 524.013 572.247 512.897 733.732 674.382C733.732 674.382 733.732 674.382 734.041 674.691L753.802 694.452C1025.83 967.094 1307.11 1249 1737.23 1219.67C1828.62 1213.49 1918.78 1223.37 1998.14 1248.38C2080.89 1274.32 2150.05 1317.55 2197.29 1372.2C2230.64 1411.1 2253.8 1455.87 2265.22 1504.97C2277.88 1557.77 2276.95 1616.12 2263.68 1678.19C2245.46 1761.24 2196.06 1834.73 2123.8 1884.75C2045.38 1939.09 1944.1 1964.41 1831.4 1957.93C1687.52 1949.28 1598.28 1891.54 1512.75 1835.66C1416.73 1772.98 1325.33 1713.69 1163.54 1721.1C991.862 1728.51 867.429 1692.39 785.914 1610.87ZM582.436 1051.7C628.134 1097.39 652.835 1148.65 657.467 1207.01C668.273 1338.23 683.094 1464.21 749.788 1561.78C827.598 1675.41 962.838 1726.04 1163.23 1717.09C1326.26 1709.68 1417.96 1769.27 1514.61 1832.57C1599.83 1888.15 1688.44 1945.89 1831.4 1954.22C2082.43 1969.35 2227.55 1826.09 2259.97 1677.57C2285.91 1559 2263.06 1454.02 2194.51 1374.36C2102.19 1267.83 1927.12 1209.48 1736.92 1222.44C1634.72 1229.55 1534.37 1218.74 1438.03 1190.33C1351.58 1165.01 1267.9 1125.8 1181.75 1070.53C1022.43 968.638 884.102 830.31 750.714 696.305L730.953 676.544C730.953 676.544 730.953 676.544 730.645 676.235C570.703 516.293 419.407 527.409 343.759 548.096C245.571 575.268 163.438 646.902 143.986 723.168C134.414 761.146 142.442 793.875 167.144 817.959C199.873 849.454 259.774 875.39 328.629 904.723C398.719 934.673 478.381 968.638 541.061 1015.88C556.191 1027.3 570.085 1039.35 582.436 1051.7Z" fill="white"/>
<path d="M804.44 1613.34C789.31 1598.21 775.725 1581.54 763.374 1563.02C697.298 1462.36 684.947 1324.65 675.375 1213.8C661.789 1054.48 493.511 982.532 358.271 924.484C291.577 896.078 234.146 871.376 201.108 840.808C174.245 816.415 164.674 781.525 173.628 742.929C190.301 669.442 266.876 599.043 359.506 571.254C432.993 549.64 580.275 535.746 741.143 690.438C761.83 710.508 783.444 730.887 803.822 750.648C1060.41 999.206 1325.95 1256.1 1721.79 1235.1C1814.11 1231.09 1904.27 1242.21 1982.39 1267.22C2066.06 1294.08 2134.61 1336.69 2181.23 1390.72C2213.04 1427.47 2234.65 1469.46 2246.08 1516.08C2258.12 1565.79 2258.74 1620.76 2247 1679.42C2232.49 1760.63 2184.94 1832.26 2112.69 1881.05C2034.88 1933.54 1934.84 1956.39 1823.37 1947.43C1683.5 1936.62 1595.19 1881.66 1509.97 1828.56C1413.33 1768.35 1322.24 1711.84 1163.54 1718.02C1000.82 1725.74 882.249 1691.15 804.44 1613.34ZM606.829 1063.74C650.674 1107.58 674.758 1156.99 679.389 1213.49C699.768 1445.07 725.395 1733.15 1163.54 1714.93C1323.48 1708.75 1415.18 1765.88 1512.44 1826.09C1597.36 1878.88 1685.35 1933.54 1823.99 1944.34C2040.13 1962.25 2212.73 1853.26 2243.91 1679.42C2266.45 1566.1 2244.53 1470.08 2178.76 1393.81C2087.99 1288.21 1917.24 1230.47 1722.1 1239.12C1627 1244.06 1536.53 1233.25 1446.06 1206.39C1366.09 1182.61 1287.66 1146.18 1207.38 1095.54C1058.56 1002.29 927.638 875.699 801.661 753.427C780.974 733.357 759.977 712.978 738.981 693.217C579.657 539.451 433.919 553.037 361.05 574.65C269.655 601.822 194.624 671.295 177.951 743.546C169.305 781.216 178.877 814.872 204.505 838.029C236.616 868.288 294.047 892.99 360.432 921.088C428.361 950.112 505.553 982.841 566.38 1028.23C581.201 1039.96 594.787 1051.7 606.829 1063.74Z" fill="white"/>
<path d="M823.584 1615.81C808.763 1600.99 795.177 1584.32 783.444 1565.79C721.999 1471 709.957 1342.86 699.15 1229.55L698.224 1219.97C684.329 1065.9 521.609 996.427 390.691 940.849C326.468 913.677 271.507 890.211 239.395 861.187C211.297 836.794 200.182 802.212 207.901 762.999C214.694 730.269 234.146 695.996 263.17 666.972C294.356 635.786 333.569 612.011 377.414 597.808C447.505 575.268 589.538 559.212 749.479 707.42C783.135 737.988 817.408 770.409 850.446 801.595C1092.21 1029.16 1342.31 1265.05 1706.97 1251.78C1800.22 1249.93 1890.07 1261.97 1967.88 1287.29C2052.79 1314.77 2119.48 1356.14 2165.8 1410.48C2227.86 1483.04 2249.78 1574.13 2230.64 1681.58C2219.52 1761.24 2173.82 1831.03 2101.88 1878.27C2024.69 1928.91 1925.88 1949.28 1815.65 1937.86C1680.41 1924.89 1592.72 1873.02 1508.12 1823C1411.17 1765.57 1319.77 1711.22 1163.54 1716.78C1009.15 1722.96 897.379 1689.61 823.584 1615.81ZM631.53 1076.09C673.831 1118.39 696.68 1165.94 701.62 1220.28L702.547 1229.86C713.971 1348.11 725.704 1470.39 786.532 1564.56C856.313 1672.01 979.202 1720.8 1163.85 1714C1320.7 1708.44 1413.02 1763.1 1510.28 1820.84C1594.58 1870.55 1681.65 1922.42 1816.27 1935.39C2059.58 1960.71 2207.48 1827.01 2227.55 1682.2C2246.38 1575.67 2224.77 1485.51 2163.33 1414.19C2075.33 1311.37 1904.89 1252.7 1707.28 1257.03C1543.32 1262.89 1387.08 1218.43 1229.92 1120.55C1090.98 1034.1 967.469 918 848.285 805.609C815.247 774.423 780.974 742.002 747.318 711.434C588.611 564.461 448.431 580.517 378.649 602.748C294.047 629.92 225.192 696.922 211.297 765.16C203.578 803.138 214.385 836.794 241.248 859.952C272.742 888.976 327.703 911.825 391.309 938.996C457.076 967.094 531.798 998.588 590.773 1042.12C606.211 1052.62 619.488 1064.05 631.53 1076.09Z" fill="white"/>
<path d="M842.11 1618.28C827.906 1604.08 815.556 1588.64 804.44 1571.35C746.083 1481.5 734.35 1364.79 722.617 1251.78C721.69 1243.44 720.764 1235.1 720.146 1226.46C706.252 1077.94 548.78 1011.25 421.877 957.831C360.741 931.895 307.633 909.663 276.756 881.874C247.115 857.79 234.764 822.591 241.865 783.377C253.599 716.683 315.661 652.769 396.249 624.671C448.122 606.762 505.862 603.983 562.675 616.952C629.369 632.39 695.136 668.516 758.125 724.094C803.514 763.307 849.211 805.917 893.674 846.675C1121.24 1056.95 1356.21 1274.63 1692.76 1268.45C1786.94 1268.76 1877.41 1282.04 1953.67 1307.05C2038.89 1334.84 2105.28 1375.9 2150.67 1429.32C2208.72 1497.25 2230.64 1582.78 2214.89 1683.13C2208.1 1749.82 2173.82 1811.26 2117.63 1856.34C2039.82 1918.1 1929.9 1944.03 1807.93 1928.29C1677.02 1913.47 1590.25 1864.37 1506.58 1817.13C1409.01 1762.17 1316.99 1710.3 1163.85 1714.62C1017.8 1719.87 912.2 1688.38 842.11 1618.28ZM655.923 1088.13C696.371 1128.58 718.603 1174.28 723.852 1226.46C724.778 1234.8 725.704 1243.13 726.322 1251.78C748.862 1473.16 774.181 1724.5 1163.85 1711.53C1317.92 1706.9 1410.55 1759.39 1508.74 1814.35C1592.11 1861.28 1678.56 1910.07 1808.86 1924.89C1929.9 1940.33 2038.89 1915.32 2115.78 1853.87C2171.05 1809.72 2205.01 1749.2 2211.49 1683.43C2226.31 1584.01 2205.01 1499.72 2147.58 1432.41C2061.74 1331.75 1895.62 1273.7 1692.15 1272.77C1541.16 1275.55 1396.04 1232.94 1248.76 1141.86C1118.77 1061.27 1002.67 953.817 890.277 850.071C845.815 808.696 799.809 766.395 754.728 727.49C596.948 587.619 462.326 605.527 396.558 628.685C316.896 656.474 256.069 719.154 244.336 784.612C237.851 822.591 249.585 856.555 278.3 879.713C309.177 906.884 361.667 929.116 422.803 955.052C486.718 981.915 558.661 1012.48 615.783 1054.78C631.221 1065.28 644.19 1076.4 655.923 1088.13Z" fill="white"/>
<path d="M861.253 1621.37C774.181 1534.3 759.977 1399.06 746.7 1273.39C745.465 1260.42 743.922 1246.53 742.686 1233.56C728.483 1090.29 576.261 1026.38 453.989 975.122C395.632 950.729 345.303 929.424 314.735 903.179C283.549 879.404 269.655 843.896 275.521 804.065C284.784 741.076 340.98 679.94 415.084 652.151C464.487 633.625 519.448 629.92 575.026 641.653C639.867 655.239 704.091 689.203 766.77 742.002C822.349 787.7 876.383 836.794 933.196 888.667C1146.86 1083.81 1367.94 1285.74 1678.56 1285.74C1774.59 1288.52 1864.44 1303.03 1939.47 1327.43C2025 1355.52 2091.38 1396.59 2135.85 1448.46C2190.19 1512.07 2211.19 1591.73 2199.14 1685.29C2195.75 1748.58 2164.56 1807.56 2111.14 1850.48C2035.19 1912.23 1922.18 1936.93 1800.52 1918.41C1674.55 1901.73 1589.02 1855.73 1505.96 1811.57C1407.77 1759.08 1314.83 1709.37 1164.15 1713.08C1013.78 1717.71 920.537 1680.66 861.253 1621.37ZM680.315 1100.79C715.515 1135.99 740.216 1179.22 745.465 1233.25C747.009 1246.53 748.244 1260.11 749.479 1273.08C760.904 1380.23 772.637 1490.76 827.289 1575.06C889.351 1670.47 999.581 1714.62 1162.92 1709.99C1314.52 1706.59 1407.77 1756.61 1506.58 1809.1C1589.02 1853.26 1674.55 1898.65 1799.6 1915.63C1920.33 1933.85 2032.41 1909.45 2107.44 1848.63C2159.93 1806.02 2190.5 1748.28 2193.89 1685.6C2205.94 1593.27 2184.94 1514.23 2131.52 1451.55C2018.51 1318.78 1798.36 1293.15 1677.02 1289.76C1537.45 1289.76 1402.83 1248.38 1265.74 1163.16C1144.39 1088.13 1035.09 988.09 929.182 891.446C872.369 839.573 818.643 790.17 762.756 744.781C605.902 612.011 477.455 631.772 414.775 655.548C341.597 683.028 286.637 742.929 277.374 804.682C271.507 843.278 285.093 877.243 315.043 900.4C345.303 926.337 397.793 948.568 453.68 971.726C532.107 1003.84 621.032 1041.51 680.315 1100.79Z" fill="white"/>
<path d="M878.853 1623.53C866.194 1610.87 854.769 1596.98 844.889 1581.54C792.707 1501.57 781.282 1395.66 770.476 1293.46C768.314 1275.86 766.77 1257.64 764.609 1240.04C750.406 1102.33 603.432 1040.58 485.174 991.487C432.066 969.255 381.428 948.259 351.787 923.558C318.749 899.783 303.619 864.274 308.25 823.826C311.647 795.111 324.924 766.395 346.846 740.767C369.386 713.905 399.646 692.291 433.919 678.396C480.543 659.562 533.033 655.239 586.759 665.119C649.439 677.161 712.736 708.347 774.49 758.367C839.948 809.005 902.319 865.818 968.396 925.719C1169.09 1107.89 1376.28 1296.55 1663.43 1302.11C1762.24 1307.66 1850.24 1322.79 1924.65 1347.19C2011.1 1375.59 2076.87 1416.04 2120.1 1467.3C2170.43 1526.27 2191.42 1600.38 2182.16 1686.83C2181.23 1747.04 2153.45 1803.24 2103.12 1844.92C2028.09 1906.98 1914.46 1930.45 1791.88 1908.53C1671.15 1889.69 1586.55 1847.08 1505.34 1806.02C1405.92 1756 1312.05 1708.45 1163.85 1710.92C1034.78 1714.62 940.915 1685.6 878.853 1623.53ZM705.017 1113.14C738.672 1146.8 762.448 1187.86 768.005 1239.74C770.167 1257.34 772.328 1275.55 773.872 1293.15C784.988 1395.05 796.103 1500.03 847.976 1579.69C906.642 1669.85 1009.77 1711.84 1163.85 1707.83C1313.29 1705.36 1407.46 1753.22 1507.2 1803.55C1588.4 1844.61 1672.39 1887.22 1792.81 1905.75C1914.46 1927.36 2026.85 1904.51 2100.96 1842.76C2150.36 1802 2177.84 1746.73 2178.46 1687.45C2187.41 1601.92 2166.72 1528.74 2117.01 1470.39C2014.81 1350.27 1813.8 1314.77 1662.81 1306.43C1374.12 1300.56 1166.62 1111.6 965.308 928.807C899.232 868.906 836.861 812.093 771.711 761.764C616.092 636.404 493.82 658.018 434.536 682.102C367.843 709.273 318.131 766.395 311.029 824.752C306.089 863.657 321.219 897.93 353.022 921.088C382.355 945.48 432.375 966.477 485.483 988.708C561.131 1019.28 647.586 1055.71 705.017 1113.14Z" fill="white"/>
<path d="M897.07 1626.31C885.028 1614.27 873.913 1600.69 864.65 1585.86C815.556 1510.22 804.749 1409.87 794.251 1312.3C792.089 1290.37 789.31 1267.83 786.531 1246.53C772.019 1114.07 630.604 1055.4 516.669 1008.16C466.031 987.164 418.172 967.094 389.148 944.245C354.257 920.47 336.966 884.653 340.98 843.587C346.229 787.083 390.383 732.431 453.68 704.95C497.216 686.116 547.854 680.558 599.418 689.512C659.937 700.01 721.69 729.034 783.135 775.658C856.931 829.692 927.329 893.299 1001.43 960.61C1189.47 1131.36 1384 1308.59 1649.23 1319.4C2008.32 1349.35 2182.47 1474.09 2166.11 1689.3C2167.96 1746.73 2143.26 1800.46 2096.01 1840.29C2023.15 1902.04 1906.43 1924.27 1784.47 1899.26C1669.3 1878.58 1586.86 1839.36 1506.89 1801.38C1406.23 1753.22 1310.82 1707.83 1164.15 1709.37C1043.12 1711.84 955.119 1684.36 897.07 1626.31ZM729.41 1125.18C761.83 1157.6 784.37 1196.82 789.928 1246.22C792.707 1267.52 795.177 1290.37 797.647 1311.99C807.836 1408.63 818.952 1508.67 867.429 1583.7C922.08 1668.61 1019.34 1708.45 1163.54 1705.67C1311.13 1704.43 1406.54 1749.82 1507.81 1797.99C1587.78 1835.97 1669.92 1875.49 1784.78 1895.87C1905.81 1920.57 2020.98 1898.65 2093.24 1837.51C2139.86 1798.3 2164.25 1745.5 2162.4 1689.3C2178.76 1475.94 2005.85 1353.05 1648.3 1322.79C1381.53 1311.68 1186.39 1134.45 998.346 963.08C924.242 895.769 854.46 832.163 780.665 778.128C668.274 692.291 549.398 666.663 454.915 708.038C393.162 735.21 349.934 788.318 344.685 843.587C340.98 883.109 357.653 917.691 391.309 940.849C420.024 964.006 467.575 983.768 517.904 1004.45C590.464 1035.02 673.831 1069.6 729.41 1125.18Z" fill="white"/>
<path d="M914.979 1629.4C903.246 1617.67 892.439 1604.39 883.176 1589.57C837.478 1517.94 827.289 1422.53 817.408 1330.51C814.629 1304.89 811.85 1278.02 808.454 1253.01C793.633 1125.8 657.467 1069.91 547.854 1024.52C499.686 1004.76 454.606 986.238 426.509 964.315C389.456 940.231 370.622 904.105 373.4 862.422C377.106 809.314 416.01 757.441 473.132 730.578C513.89 711.434 561.44 705.259 611.769 712.978C669.817 721.624 730.336 748.178 790.854 792.023C872.986 848.219 949.561 918 1030.46 992.104C1206.46 1153.28 1388.63 1320.02 1634.1 1335.76C1796.82 1353.98 1911.37 1383.93 1994.12 1429.01C2045.69 1457.11 2084.9 1492 2110.84 1532.14C2139.55 1576.91 2152.52 1630.02 2149.43 1690.54C2153.75 1745.5 2131.83 1796.44 2087.37 1834.73C2053.4 1864.37 2007.71 1884.75 1955.22 1894.63C1899.95 1904.82 1837.89 1903.28 1775.82 1888.77C1666.83 1866.84 1586.86 1830.72 1508.74 1795.83C1405.92 1749.82 1308.97 1705.97 1163.23 1706.59C1090.05 1707.52 1031.08 1697.33 983.216 1675.41C957.28 1664.29 934.431 1648.85 914.979 1629.4ZM754.111 1137.53C784.988 1168.41 806.91 1205.77 812.159 1253.01C815.864 1278.33 818.335 1304.89 821.113 1330.51C830.685 1422.22 840.875 1517.01 886.263 1588.33C937.21 1668.31 1028.3 1706.28 1163.54 1704.43C1309.89 1703.81 1407.46 1747.66 1510.59 1793.97C1588.09 1828.86 1668.68 1864.99 1776.75 1886.6C1898.71 1914.7 2013.88 1894.63 2085.21 1833.19C2128.74 1795.83 2150.36 1745.19 2146.04 1691.46C2151.28 1576.91 2101.26 1492.31 1992.58 1433.02C1909.83 1387.94 1795.89 1358.61 1633.79 1340.39C1387.08 1324.65 1204.6 1157.6 1027.99 995.809C947.091 921.705 870.825 852.232 788.693 796.037C677.537 715.757 562.984 693.835 474.676 735.21C418.789 761.455 380.502 812.093 376.797 863.966C374.018 904.414 392.235 939.305 428.361 962.463C456.15 984.076 501.23 1002.6 549.089 1022.05C619.488 1050.46 700.385 1083.81 754.111 1137.53Z" fill="white"/>
<path d="M932.579 1632.18C921.154 1620.76 910.965 1608.1 902.011 1593.58C859.401 1525.65 850.138 1435.49 841.183 1348.11C838.404 1318.78 835.008 1288.21 830.685 1259.81C815.864 1138.15 684.638 1084.73 579.04 1041.51C533.96 1022.98 491.041 1005.38 463.561 985.311C424.038 961.227 403.042 924.793 404.895 882.183C406.747 831.545 440.403 783.686 492.893 757.132C530.563 737.988 576.261 731.196 624.12 737.68C680.007 744.781 738.672 768.865 798.573 809.623C888.116 866.436 970.248 942.393 1056.7 1022.67C1221.59 1175.2 1391.72 1332.98 1618.66 1353.05C1869.38 1388.87 2136.15 1447.54 2132.76 1693.01C2139.24 1745.19 2120.41 1794.28 2078.72 1831.03C2008.94 1892.78 1890.07 1911.61 1767.79 1880.12C1666.52 1857.27 1589.02 1824.85 1513.99 1793.05C1408.39 1748.58 1308.66 1706.28 1162.92 1705.67C1094.37 1706.28 1039.41 1696.4 994.641 1675.72C971.175 1663.98 950.178 1649.78 932.579 1632.18ZM778.812 1149.27C810.924 1181.38 829.45 1217.81 834.39 1259.19C838.713 1287.59 842.11 1318.16 844.889 1347.5C862.797 1522.88 881.323 1704.43 1163.85 1702.27C1310.2 1702.89 1410.24 1744.88 1516.15 1789.65C1590.87 1821.15 1668.06 1853.87 1769.34 1876.72C1890.07 1907.91 2008.02 1889.38 2076.87 1828.56C2117.63 1792.74 2136.46 1744.26 2129.67 1693.62C2133.38 1450.93 1867.84 1392.88 1618.97 1357.07C1390.79 1337 1220.04 1178.6 1054.85 1025.76C968.396 945.48 886.572 869.832 797.03 813.019C687.108 738.297 577.187 719.771 495.055 761.146C443.799 787.082 410.761 833.706 408.909 883.109C407.365 924.175 427.435 959.684 466.031 982.841C493.202 1003.22 535.503 1020.2 580.583 1038.73C633.692 1060.34 694.21 1085.04 742.069 1119.32C755.964 1128.27 768.005 1138.46 778.812 1149.27Z" fill="white"/>
<path d="M949.561 1634.34C883.793 1568.57 873.913 1465.44 864.341 1363.86C861.253 1331.13 857.857 1297.48 852.916 1265.98C837.787 1149.58 711.81 1098.94 610.843 1057.87C568.233 1040.58 528.093 1024.52 501.848 1005.69C460.164 981.915 437.007 943.936 437.315 901.018C437.624 853.776 467.575 808.388 514.198 782.76C549.089 763.925 592.008 756.206 638.323 761.146C691.74 767.013 748.553 788.626 807.528 825.987C903.863 882.801 990.318 964.315 1082.02 1050.46C1236.1 1195.27 1395.11 1345.03 1605.07 1369.11C1721.79 1389.49 1854.25 1412.65 1953.06 1460.81C2061.12 1513.3 2114.85 1589.88 2117.32 1694.24C2126.27 1743.95 2109.6 1790.89 2070.7 1826.09C2038.58 1855.11 1993.5 1874.87 1940.7 1883.21C1884.82 1892.16 1822.45 1887.22 1761 1869.62C1668.06 1847.08 1594.89 1818.37 1524.18 1790.27C1409.62 1744.88 1310.51 1705.67 1163.54 1703.81C1058.56 1703.81 992.479 1677.26 949.561 1634.34ZM803.205 1161.31C833.773 1191.88 851.373 1226.15 856.313 1265.67C861.562 1297.48 864.958 1331.13 868.046 1363.86C875.765 1446.3 884.411 1531.52 923.007 1594.82C966.852 1665.84 1045.28 1700.42 1163.54 1700.11C1311.13 1701.96 1410.55 1741.48 1525.41 1786.56C1596.12 1814.66 1669.3 1843.38 1761 1866.53C1880.5 1900.81 2001.22 1883.83 2067.61 1823.62C2105.9 1789.03 2121.95 1743.34 2113 1694.86C2113 1694.86 2113 1694.86 2112.69 1694.55C2107.75 1460.5 1839.74 1414.19 1603.22 1372.81C1392.02 1348.73 1232.7 1198.67 1078.63 1053.24C986.922 967.094 900.776 885.888 804.44 829.075C696.063 760.837 590.464 744.781 514.816 785.847C468.81 810.858 440.094 855.011 439.785 901.018C439.168 942.393 462.017 979.445 502.774 1002.29C528.711 1020.82 568.85 1036.88 611.151 1053.86C662.098 1074.55 720.146 1098.01 766.153 1130.43C780.665 1140.62 792.707 1150.81 803.205 1161.31Z" fill="white"/>
<path d="M966.543 1637.12C904.172 1574.75 895.526 1476.56 887.19 1379.92C884.102 1344.1 881.014 1307.05 874.839 1273.08C859.401 1161.93 738.981 1113.76 641.411 1074.85C601.58 1059.11 564.219 1043.98 538.9 1026.69C494.746 1002.91 468.81 964.006 467.883 920.47C466.957 875.699 491.967 834.015 534.886 809.005C605.285 767.63 707.796 779.981 815.556 843.278C918.375 899.165 1008.84 985.929 1104.25 1077.63C1247.83 1215.65 1396.04 1358.3 1590.25 1386.4C1605.07 1389.49 1619.9 1392.58 1634.41 1395.35C1752.05 1419.13 1863.2 1441.98 1949.04 1485.21C1995.36 1508.67 2030.25 1535.54 2054.95 1568.26C2082.74 1604.7 2097.56 1646.69 2100.96 1697.02C2112.07 1744.57 2098.18 1789.34 2061.43 1823.62C2030.25 1852.33 1985.78 1871.47 1932.37 1879.19C1876.17 1887.22 1814.11 1880.74 1752.36 1861.59C1671.77 1839.05 1605.69 1814.35 1541.47 1790.27C1419.81 1745.19 1314.83 1705.67 1163.54 1702.58C1067.2 1701.34 1006.07 1676.64 966.543 1637.12ZM827.906 1173.66C856.622 1202.37 873.295 1235.1 878.544 1271.85C884.411 1306.12 887.807 1343.48 890.895 1379.3C897.688 1457.11 904.789 1537.7 940.606 1597.6C980.746 1664.29 1053.92 1697.33 1163.54 1698.26C1315.45 1701.34 1420.74 1740.56 1542.7 1785.95C1606.62 1809.72 1673.31 1834.42 1753.28 1856.96C1873.39 1894.94 1993.5 1880.43 2058.35 1819.91C2093.85 1786.87 2107.75 1743.34 2096.63 1697.02C2096.63 1697.02 2096.63 1697.02 2096.32 1696.71C2090.77 1602.85 2043.22 1536.77 1946.57 1488.29C1861.04 1445.38 1750.2 1422.84 1632.86 1398.75C1618.04 1395.66 1603.53 1392.88 1588.71 1389.8C1393.57 1362.01 1244.74 1218.74 1100.86 1080.41C1005.45 988.708 915.596 901.944 813.085 846.366C706.561 783.686 605.285 771.335 536.121 812.093C494.437 836.485 470.353 876.625 471.28 920.161C472.206 962.463 497.525 1000.13 540.444 1023.29C565.763 1040.58 603.124 1055.09 642.646 1071.15C691.74 1090.6 747.318 1112.83 791.472 1144.02C805.366 1153.59 817.408 1163.16 827.906 1173.66Z" fill="white"/>
<path d="M982.908 1639.28C972.101 1628.47 962.838 1616.12 954.501 1602.23C921.463 1545.11 915.288 1468.53 909.73 1394.43C906.951 1355.83 903.863 1315.69 896.762 1278.95C881.014 1173.04 765.535 1127.34 672.596 1090.6C635.853 1076.09 600.962 1062.19 575.952 1046.45C528.402 1022.36 499.995 982.841 497.834 938.07C495.672 896.386 517.286 857.482 554.956 833.398C619.488 792.949 717.059 802.212 822.966 859.334C931.652 913.06 1024.9 1005.07 1123.71 1102.64C1257.4 1234.49 1395.42 1371.27 1574.82 1402.46C1605.07 1409.87 1635.33 1416.66 1665.28 1423.14C1770.27 1446.61 1869.07 1468.84 1945.65 1508.36C2031.48 1552.83 2075.64 1613.04 2084.28 1697.64C2097.56 1743.03 2085.83 1786.25 2051.55 1818.68C2022.22 1846.77 1976.52 1865.92 1924.03 1872.09C1867.84 1878.88 1805.46 1871.47 1744.64 1850.17C1681.96 1830.72 1627 1811.57 1574.2 1792.74C1434.63 1743.34 1324.71 1704.43 1163.85 1699.18C1108.58 1698.26 1064.42 1689.3 1028.61 1671.39C1011.31 1663.36 996.185 1652.56 982.908 1639.28ZM852.299 1185.7C879.471 1212.87 895.218 1243.44 900.467 1278.33C907.568 1315.08 910.656 1355.21 913.435 1393.81C919.302 1467.61 925.168 1543.87 957.898 1600.07C994.332 1663.06 1061.95 1694.24 1163.54 1695.79C1324.71 1700.73 1440.5 1741.79 1575.12 1789.34C1627.92 1808.18 1682.58 1827.63 1745.56 1846.77C1864.44 1887.84 1986.09 1875.49 2049.08 1816.21C2082.43 1784.71 2093.54 1742.72 2080.89 1698.56C2080.89 1698.56 2080.89 1698.56 2080.58 1698.26C2071.93 1614.89 2028.7 1555.61 1943.79 1511.45C1868.14 1472.24 1769.34 1450.01 1664.36 1426.54C1635.02 1420.06 1604.46 1412.95 1574.2 1405.54C1394.19 1374.36 1255.24 1237.27 1121.24 1105.11C1022.74 1007.85 929.491 915.839 821.731 862.422C717.059 805.917 620.723 796.654 557.426 836.485C520.683 859.643 499.995 897.621 501.848 937.761C504.009 981.297 531.798 1019.58 578.113 1043.05C602.506 1058.8 637.088 1072.38 673.831 1086.9C720.764 1105.42 773.872 1126.42 816.791 1155.75C830.377 1166.25 842.11 1175.51 852.299 1185.7Z" fill="white"/>
<path d="M998.964 1641.75C988.465 1631.25 979.202 1618.9 971.483 1605.01C941.533 1550.97 936.901 1478.41 932.579 1408.63C930.108 1367.26 927.329 1324.34 919.61 1285.74C903.863 1185.39 793.016 1142.47 704.399 1107.58C670.126 1094.31 638.014 1081.96 614.548 1067.75C563.601 1043.98 532.416 1003.53 528.711 957.831C525.932 919.235 543.84 882.801 577.496 859.643C635.853 819.812 728.792 826.296 832.229 877.243C946.473 927.881 1046.51 1029.77 1143.16 1128.27C1267.28 1254.87 1396.04 1386.09 1561.54 1420.06C1604.46 1432.1 1647.38 1442.29 1689.37 1452.17C1783.23 1474.4 1872.16 1495.4 1940.4 1531.52C2016.97 1571.66 2058.04 1625.7 2069.15 1701.03C2084.28 1744.57 2075.02 1785.95 2042.91 1816.82C1981.46 1876.41 1856.1 1886.91 1737.84 1842.14C1705.42 1831.33 1674.86 1820.53 1645.52 1810.34C1472.3 1750.13 1347.56 1706.28 1165.08 1699.18C1113.83 1697.95 1073.07 1689.3 1040.34 1672.01C1023.66 1662.75 1010.39 1653.18 998.964 1641.75ZM877 1198.05C902.319 1223.37 917.449 1252.09 922.698 1285.12C930.726 1324.03 933.505 1366.95 935.975 1408.32C940.298 1478.1 944.929 1550.05 974.571 1603.16C1008.23 1663.36 1068.13 1692.39 1163.85 1694.24C1346.94 1701.34 1472.3 1745.19 1645.52 1805.4C1674.86 1815.59 1705.42 1826.39 1738.15 1837.51C1855.48 1881.97 1979.3 1871.78 2039.51 1813.43C2070.39 1783.17 2079.34 1743.34 2064.83 1701.03C2064.83 1701.03 2064.83 1701.03 2064.52 1700.73C2040.13 1538.62 1876.79 1500.03 1687.52 1455.26C1645.52 1445.38 1602.6 1435.19 1559.69 1423.14C1393.26 1388.87 1264.5 1257.64 1139.76 1130.43C1039.1 1027.92 943.694 930.659 830.068 880.021C727.557 830.001 636.162 823.208 578.731 862.113C546.31 884.036 528.711 919.544 531.489 956.905C534.886 1001.68 565.763 1040.58 615.165 1064.05C638.632 1078.25 670.744 1090.6 704.399 1103.88C749.171 1121.48 800.426 1141.24 841.183 1169.03C855.078 1178.6 866.811 1187.86 877 1198.05Z" fill="white"/>
<path d="M1014.4 1644.22C1003.9 1633.72 994.641 1621.37 987.539 1607.48C960.676 1556.53 957.28 1488.29 954.192 1422.22C952.34 1378.37 949.87 1333.29 941.224 1292.54C924.859 1197.13 823.892 1158.53 734.35 1124.57C703.164 1112.52 673.523 1101.41 651.291 1088.44C612.387 1071.15 583.362 1045.21 567.924 1013.72C553.412 984.385 552.486 953.199 564.528 925.719C592.317 862.113 688.343 827.84 839.64 894.534C959.133 941.775 1060.72 1048.92 1158.6 1152.35C1273.77 1274.32 1393.26 1399.99 1545.79 1437.04C1599.21 1454.02 1652.93 1466.99 1704.81 1479.34C1874.94 1520.41 2021.91 1556.22 2051.55 1702.58C2068.53 1744.26 2061.12 1783.78 2031.17 1813.73C2003.69 1841.21 1959.54 1858.2 1906.74 1862.83C1849.62 1867.46 1788.17 1856.65 1728.58 1832.26C1504.11 1748.58 1362.07 1707.21 1163.54 1697.02C1116.3 1695.48 1078.63 1686.83 1048.98 1670.78C1035.71 1662.44 1024.28 1654.1 1014.4 1644.22ZM901.702 1210.4C925.477 1234.18 939.989 1261.04 944.929 1291.3C953.884 1332.37 956.045 1377.75 957.898 1421.6C960.985 1490.15 964.073 1554.99 990.936 1605.32C1020.89 1661.82 1075.85 1689.61 1163.85 1692.39C1363 1702.58 1505.34 1744.26 1730.13 1827.63C1861.04 1881.35 1979.3 1859.43 2029.32 1810.03C2058.04 1781.31 2065.14 1743.34 2048.46 1702.58C2048.46 1702.58 2048.46 1702.58 2048.16 1702.27C2018.82 1558.08 1873.08 1522.88 1704.19 1481.81C1652.32 1469.46 1598.9 1456.18 1545.17 1439.51C1391.72 1402.77 1271.91 1276.17 1156.44 1153.9C1058.56 1050.46 957.589 943.936 838.713 896.695C689.578 830.928 595.404 863.966 568.233 926.337C556.5 952.891 557.735 983.15 571.32 1011.56C586.45 1042.74 614.548 1067.75 653.144 1084.73C675.066 1097.39 704.708 1108.51 735.894 1120.55C778.812 1136.92 827.906 1155.75 867.12 1182C879.779 1190.95 891.512 1200.21 901.702 1210.4Z" fill="white"/>
<path d="M1029.53 1646.38C1019.03 1635.88 1010.39 1623.53 1002.98 1609.33C979.202 1561.47 977.35 1499.72 975.497 1434.88C973.953 1388.87 972.718 1341.32 963.147 1299.02C946.473 1208.86 849.829 1172.73 764.609 1140.62C736.202 1130.12 709.34 1119.93 688.343 1108.82C660.863 1097.39 638.941 1082.88 622.576 1066.52C584.906 1028.85 575.643 981.915 589.846 946.715C602.506 915.53 631.839 893.607 672.288 885.271C719.22 875.39 779.739 884.653 847.359 910.898C971.792 953.817 1073.99 1066.52 1172.8 1175.2C1279.63 1292.54 1390.17 1414.19 1530.66 1453.4C1593.34 1475.33 1655.71 1490.76 1715.92 1505.28C1868.45 1542.33 2000.3 1574.13 2034.57 1704.12C2053.1 1744.26 2048.46 1782.24 2020.06 1810.65C1993.81 1837.51 1950.28 1853.87 1897.17 1856.96C1840.05 1860.36 1778.6 1848.32 1719.63 1822.07C1523.87 1742.41 1372.57 1707.83 1162.3 1694.55C1119.07 1692.7 1084.8 1684.36 1057.32 1668.61C1047.75 1662.13 1037.87 1654.72 1029.53 1646.38ZM926.094 1222.44C948.326 1244.68 961.603 1269.69 966.852 1297.78C976.732 1340.39 977.967 1387.94 979.202 1434.26C982.908 1562.09 985.995 1682.51 1163.54 1690.23C1374.43 1703.5 1525.72 1738.09 1721.79 1818.06C1780.45 1843.99 1841.28 1856.04 1897.48 1852.95C1949.35 1849.86 1992.27 1833.5 2018.21 1807.56C2045.07 1780.08 2050.01 1743.64 2031.79 1705.05C2031.79 1705.05 2031.79 1705.05 2031.48 1704.74C2016.04 1646.07 1980.23 1604.08 1918.78 1572.9C1863.2 1544.49 1791.26 1526.89 1715.61 1508.67C1655.4 1494.16 1592.72 1479.03 1530.04 1456.49C1388.63 1416.97 1277.78 1295.01 1170.64 1177.36C1072.14 1068.99 969.939 956.905 846.741 913.986C779.739 887.741 719.838 879.095 673.831 888.667C634.309 896.695 605.902 917.691 594.169 947.95C574.717 997.045 601.58 1068.99 690.505 1105.42C711.501 1116.54 738.055 1126.42 766.153 1137.22C807.528 1152.66 853.843 1169.95 891.204 1194.96C904.789 1203.61 916.214 1212.56 926.094 1222.44Z" fill="white"/>
<path d="M1044.35 1648.85C1033.85 1638.35 1025.21 1626 1018.42 1611.18C997.42 1566.1 997.42 1508.05 997.111 1446.61C997.111 1398.44 996.802 1348.73 985.995 1305.19C969.013 1220.28 876.692 1186.63 795.486 1156.68C770.167 1147.41 746.083 1138.77 726.322 1128.89C684.021 1112.52 649.439 1086.59 629.678 1055.09C611.152 1026.07 606.211 993.957 615.783 967.094C633.692 917.074 707.487 876.625 856.004 926.954C985.069 965.241 1087.27 1082.88 1186.39 1196.82C1285.19 1310.44 1387.39 1427.47 1516.15 1469.15C1586.55 1496.94 1656.64 1513.3 1723.95 1529.36C1792.81 1545.72 1857.96 1560.85 1909.21 1586.17C1966.33 1614.27 2001.22 1652.25 2018.51 1704.74C2039.2 1743.34 2036.11 1779.77 2009.87 1807.25C1985.17 1833.19 1941.01 1848.93 1888.83 1851.1C1832.33 1853.26 1769.96 1839.05 1712.53 1811.26C1515.53 1723.57 1360.53 1706.28 1163.23 1691.77C1109.5 1689.3 1070.6 1675.1 1044.35 1648.85ZM950.796 1234.8C971.174 1255.17 983.834 1278.33 989.083 1304.58C1000.2 1348.42 1000.2 1398.44 1000.51 1446.92C1001.12 1566.72 1001.43 1680.04 1163.85 1688.68C1361.46 1703.5 1516.46 1720.8 1714.38 1808.79C1771.5 1836.27 1833.56 1850.17 1889.14 1848.32C1940.4 1846.46 1983.62 1831.03 2007.71 1805.71C2032.72 1779.46 2035.5 1744.57 2015.74 1707.52C2015.74 1707.52 2015.74 1707.52 2015.43 1707.21C1978.07 1593.89 1860.12 1566.1 1723.33 1533.68C1655.71 1517.94 1585.93 1501.26 1514.91 1473.47C1384.92 1431.79 1282.41 1313.84 1183.61 1200.21C1084.8 1086.59 982.599 969.564 854.769 931.277C708.413 881.874 636.162 920.779 619.179 969.255C609.916 995.192 614.857 1026.07 632.765 1053.86C652.218 1084.43 685.873 1110.05 727.866 1126.11C747.627 1135.99 771.402 1144.33 796.412 1153.9C835.626 1168.41 880.088 1184.47 916.214 1207.62C929.491 1215.96 940.915 1224.91 950.796 1234.8Z" fill="white"/>
<path d="M1058.25 1651.01C1047.75 1640.52 1039.41 1627.86 1033.24 1613.04C1015.33 1570.43 1016.56 1516.08 1017.8 1458.65C1019.03 1408.63 1019.96 1357.07 1007.92 1312.3C990.318 1232.33 902.319 1201.14 824.819 1173.66C802.587 1165.63 781.591 1158.22 763.683 1150.19C726.939 1136.92 698.224 1118.7 677.228 1097.7C642.337 1062.81 629.678 1021.75 640.176 989.634C648.821 962.462 672.905 942.701 707.796 933.747C747.627 923.558 801.97 927.263 864.341 945.172C997.42 978.21 1099.62 1101.41 1198.12 1220.28C1289.21 1329.9 1383.07 1443.52 1501.64 1487.37C1578.83 1521.33 1658.18 1538.93 1728.58 1554.37C1791.26 1568.26 1849.93 1581.23 1897.48 1603.46C1950.28 1627.86 1983.62 1661.2 2002.46 1707.83C2025 1745.19 2023.76 1779.77 1999.06 1806.32C1975.6 1831.64 1931.75 1846.46 1879.88 1847.08C1823.37 1848.01 1761.31 1832.26 1704.81 1802.93C1534.98 1720.8 1388.32 1709.37 1233.32 1697.02C1210.47 1695.17 1187 1693.32 1163.54 1691.46C1115.99 1687.14 1081.71 1674.48 1058.25 1651.01ZM975.189 1246.84C992.479 1264.13 1005.45 1285.12 1011.01 1311.06C1023.36 1356.14 1022.12 1408.01 1021.19 1458.34C1018.72 1570.73 1016.56 1676.64 1163.85 1686.83C1187.31 1688.68 1210.78 1690.54 1233.63 1692.39C1389.25 1704.74 1536.22 1716.47 1706.66 1798.61C1762.85 1827.63 1824.3 1843.38 1880.19 1842.45C1931.44 1841.83 1973.74 1827.32 1996.9 1802.93C2020.06 1777.92 2021.29 1744.57 1999.68 1708.75C1999.68 1708.75 1999.68 1708.75 1999.37 1708.45C1959.23 1608.4 1852.09 1584.63 1727.96 1556.84C1657.56 1541.4 1577.9 1523.49 1500.71 1489.53C1381.53 1445.68 1286.73 1331.75 1195.65 1221.52C1097.46 1102.95 995.567 980.062 863.723 947.642C801.97 930.351 748.553 926.337 709.031 936.217C675.066 944.863 652.218 964.006 643.881 989.634C627.825 1039.65 668.891 1111.6 764.918 1145.87C782.826 1153.9 803.822 1161.31 826.054 1169.34C879.471 1188.79 937.828 1209.48 975.189 1246.84Z" fill="white"/>
<path d="M1070.91 1652.56C1029.84 1611.49 1033.55 1541.71 1037.25 1468.84C1040.03 1417.28 1042.5 1363.55 1029.22 1318.16C1011.01 1243.13 927.33 1214.42 853.225 1189.1C834.391 1182.61 816.482 1176.44 800.735 1169.95C753.802 1154.52 713.971 1128.89 688.961 1097.7C665.495 1068.68 656.232 1036.57 663.642 1010.01C670.744 984.385 691.74 965.859 724.778 956.287C762.139 945.48 811.851 947.024 872.06 960.919C933.505 972.961 993.097 1006.62 1054.54 1063.74C1108.88 1114.38 1159.52 1178.6 1208.31 1240.97C1291.98 1347.5 1378.44 1457.42 1487.13 1503.11C1569.87 1543.25 1655.09 1560.55 1730.43 1575.98C1844.06 1599.45 1942.25 1619.21 1986.09 1708.75C2010.18 1744.57 2011.1 1778.23 1987.95 1803.24C1965.41 1827.63 1922.49 1841.52 1870.61 1840.91C1814.42 1840.29 1752.67 1823 1696.78 1791.81C1549.5 1714.31 1410.86 1705.36 1276.85 1696.71C1239.8 1694.24 1201.21 1692.08 1163.23 1688.07C1119.69 1684.67 1090.36 1672.01 1070.91 1652.56ZM999.89 1259.19C1015.64 1274.94 1027.37 1294.08 1033.24 1317.24C1046.51 1363.24 1044.04 1416.97 1041.26 1469.15C1038.49 1522.57 1035.71 1573.51 1050.53 1613.04C1067.2 1656.88 1103.02 1679.73 1163.85 1684.98C1201.82 1688.99 1240.11 1691.46 1277.47 1693.62C1412.09 1702.27 1550.73 1711.22 1698.94 1789.03C1753.9 1819.91 1815.04 1837.2 1870.92 1837.51C1921.87 1837.82 1963.86 1824.85 1985.48 1800.77C2007.4 1776.99 2006.78 1744.88 1983.31 1710.3C1983.31 1710.3 1983.31 1710.3 1983.01 1709.99C1940.09 1621.99 1842.52 1602.23 1729.82 1579.07C1654.48 1563.63 1568.95 1546.03 1485.58 1505.89C1376.28 1460.2 1289.21 1349.66 1205.22 1242.82C1107.96 1119.01 1006.99 990.869 871.134 964.315C738.364 934.056 678.463 968.638 667.038 1010.94C659.937 1036.57 668.891 1067.13 691.74 1095.54C716.75 1126.11 755.655 1151.43 801.97 1166.87C818.026 1173.66 835.626 1179.53 854.46 1186.01C906.951 1203.92 963.764 1223.06 999.89 1259.19Z" fill="white"/>
<path d="M1083.87 1654.41C1045.28 1615.81 1051.15 1548.81 1057.01 1479.34C1061.64 1425.92 1066.58 1370.96 1052.07 1324.96C1032.93 1254.56 952.957 1228.31 882.249 1205.77C866.811 1200.83 852.299 1196.2 839.022 1190.95C789.619 1176.13 747.009 1150.81 718.911 1119.63C692.357 1090.6 680.933 1058.8 687.417 1031.94C692.975 1007.85 712.119 989.943 742.687 980.371C777.269 969.255 823.584 968.638 881.323 978.21C944.621 987.164 1005.14 1020.51 1065.97 1078.87C1120.31 1130.74 1170.02 1197.74 1218.19 1262.58C1294.76 1365.71 1374.12 1472.86 1473.54 1519.79C1561.54 1566.41 1651.39 1582.78 1730.43 1596.98C1834.49 1615.81 1924.34 1632.18 1970.66 1710.61C1996.59 1745.19 1999.06 1777.3 1977.45 1801.38C1956.14 1825.16 1913.84 1837.82 1861.97 1835.97C1805.46 1833.8 1744.33 1814.66 1689.68 1782.24C1556.91 1706.28 1425.99 1700.73 1300.01 1695.17C1253.08 1693.32 1208.62 1691.46 1164.15 1685.9C1125.87 1682.82 1100.86 1671.39 1083.87 1654.41ZM1024.59 1271.54C1038.79 1285.74 1049.6 1302.72 1055.16 1323.72C1069.67 1370.34 1065.04 1425.61 1060.41 1479.65C1056.39 1529.98 1052.07 1577.53 1064.11 1614.27C1077.39 1655.34 1109.19 1677.26 1163.54 1682.82C1207.69 1688.07 1252.15 1689.92 1299.09 1691.77C1425.68 1697.33 1556.91 1702.58 1690.29 1779.15C1805.46 1848.01 1932.06 1844.92 1973.13 1798.91C1993.5 1776.07 1991.03 1745.81 1966.33 1712.46C1921.25 1635.27 1831.71 1619.21 1728.58 1600.69C1648.92 1586.48 1558.76 1569.81 1470.45 1522.88C1370.41 1475.33 1291.06 1368.18 1213.87 1264.44C1118.15 1135.37 1019.03 1001.68 879.471 981.297C822.349 971.726 776.342 972.034 742.378 983.15C713.045 992.722 694.828 1009.7 689.578 1032.24C678.154 1081.34 731.88 1154.21 839.022 1187.25C852.608 1192.19 867.12 1196.82 882.249 1202.07C933.814 1218.43 989.701 1236.65 1024.59 1271.54Z" fill="white"/>
<path d="M1095.92 1656.57C1085.42 1646.07 1078.63 1633.11 1073.99 1616.74C1064.42 1581.23 1069.98 1536.77 1076.16 1489.22C1082.95 1434.26 1090.05 1377.75 1074.3 1331.75C1054.54 1265.67 977.041 1242.51 908.804 1221.83C897.379 1218.43 886.572 1215.03 876.383 1211.64C819.261 1195.89 775.416 1169.34 746.7 1140.62C717.059 1110.98 703.782 1079.18 708.722 1053.24C713.045 1031.01 730.336 1013.72 758.742 1003.22C790.237 991.487 834.082 989.017 889.042 995.192C1033.55 1008.78 1131.42 1148.65 1225.29 1283.89C1295.38 1384.24 1367.63 1487.99 1457.79 1536.77C1549.5 1590.19 1643.36 1604.39 1726.42 1617.05C1822.45 1631.56 1904.89 1644.22 1953.06 1712.77C1980.84 1746.11 1984.86 1777.3 1964.48 1800.15C1944.41 1822.69 1901.8 1834.42 1850.85 1831.64C1794.35 1828.25 1733.83 1807.25 1680.41 1772.98C1557.83 1696.71 1432.47 1694.86 1310.82 1693.01C1259.25 1692.08 1210.16 1691.15 1162.92 1684.67C1133.28 1680.96 1111.05 1671.7 1095.92 1656.57ZM1049.29 1283.89C1061.95 1296.55 1071.83 1311.99 1077.39 1329.9C1093.45 1376.83 1086.34 1433.95 1079.24 1489.22C1073.38 1536.46 1067.82 1580.92 1077.08 1615.51C1087.27 1654.1 1114.75 1674.79 1163.54 1680.96C1210.78 1687.45 1259.56 1688.07 1311.13 1688.99C1433.09 1691.15 1559.07 1693.01 1682.58 1769.58C1793.73 1840.6 1921.56 1843.07 1961.7 1797.37C1980.84 1775.76 1976.52 1746.73 1949.97 1714.62C1902.73 1647.62 1820.59 1634.65 1725.49 1620.45C1642.44 1607.79 1547.64 1593.27 1455.32 1539.86C1364.24 1490.76 1291.68 1386.71 1221.28 1286.05C1127.41 1151.43 1030.46 1012.48 887.19 998.897C785.605 987.473 719.838 1008.16 710.884 1054.17C701.312 1103.26 761.521 1176.44 875.765 1207.93C886.572 1211.33 897.07 1214.42 908.186 1218.12C959.75 1233.25 1015.33 1249.93 1049.29 1283.89Z" fill="white"/>
<path d="M1107.03 1657.81C1104.56 1655.34 1102.4 1652.56 1100.24 1649.78C1074.61 1614.89 1084.18 1558.38 1094.06 1498.48C1103.64 1442.6 1112.9 1384.55 1096.23 1338.23C1074.92 1276.17 1002.67 1256.41 932.887 1237.27C926.403 1235.72 919.919 1233.56 913.435 1232.02C858.783 1218.12 809.38 1193.42 775.107 1162.85C742.378 1133.83 725.704 1101.72 729.718 1074.85C736.511 1029.77 797.647 1006.93 896.762 1012.17C1044.97 1018.35 1140.07 1164.09 1231.47 1304.89C1295.07 1402.46 1360.84 1503.42 1442.97 1553.44C1537.76 1613.65 1635.33 1625.39 1721.17 1635.27C1810.1 1645.77 1886.67 1655.03 1936.69 1714.31C1966.02 1746.73 1971.89 1776.68 1953.06 1798.61C1934.22 1820.53 1892.23 1831.03 1841.28 1826.39C1784.78 1821.15 1724.88 1798.91 1672.69 1763.41C1558.14 1686.52 1435.87 1687.76 1317.61 1689.3C1262.65 1689.92 1210.78 1690.54 1162.92 1682.82C1138.53 1678.8 1120 1670.78 1107.03 1657.81ZM1073.99 1296.24C1085.11 1307.36 1094.06 1320.63 1099.62 1336.69C1116.91 1384.24 1107.34 1442.6 1097.77 1499.1C1087.89 1558.38 1078.63 1613.96 1103.02 1647.62C1115.37 1664.29 1135.13 1674.79 1164.15 1679.11C1212.01 1686.83 1263.58 1685.91 1318.23 1685.6C1431.55 1684.05 1559.99 1682.82 1675.16 1760.32C1726.73 1795.83 1786.01 1818.06 1842.21 1823C1891.92 1827.63 1932.37 1817.44 1950.89 1796.44C1968.8 1776.07 1962.94 1747.97 1934.53 1717.09C1885.44 1658.73 1809.79 1649.78 1721.48 1639.28C1635.02 1628.78 1537.15 1617.36 1441.43 1556.84C1418.27 1542.95 1396.66 1525.04 1375.66 1504.04C1321.93 1450.32 1274.69 1377.75 1228.69 1307.05C1137.29 1166.87 1042.81 1022.36 896.762 1015.88C799.5 1010.63 739.908 1032.55 733.424 1075.47C729.41 1101.1 745.465 1131.98 777.577 1160.38C811.542 1190.64 860.327 1214.73 914.67 1228.93C920.845 1230.78 927.638 1232.63 934.122 1234.18C986.613 1248.38 1040.65 1262.89 1073.99 1296.24Z" fill="white"/>
<path d="M1117.22 1659.35C1114.44 1656.57 1111.97 1653.48 1109.81 1650.09C1087.89 1617.05 1099.31 1563.63 1111.66 1506.82C1124.01 1449.39 1136.67 1390.41 1118.46 1344.41C1095.3 1286.05 1025.83 1269.69 952.648 1252.7L951.105 1252.4C893.365 1239.12 840.875 1215.03 802.896 1184.47C766.462 1155.44 747.009 1123.02 750.097 1095.85C752.567 1071.15 776.342 1029.47 905.407 1028.23C1057.01 1026.69 1148.72 1178.29 1237.95 1324.96C1295.38 1420.06 1355.28 1518.24 1429.39 1569.5C1526.65 1636.5 1627 1644.84 1715.61 1651.94C1798.67 1658.42 1870.31 1664.6 1921.25 1715.55C1963.55 1757.85 1952.44 1784.4 1941.94 1796.75C1923.72 1818.06 1882.66 1827.01 1832.33 1821.15C1775.82 1814.66 1716.85 1790.27 1665.59 1753.22C1558.14 1674.79 1432.47 1680.04 1321.63 1684.67C1264.81 1687.14 1211.4 1689.3 1163.54 1680.96C1143.16 1677.26 1128.03 1670.16 1117.22 1659.35ZM1098.7 1308.59C1108.27 1318.16 1115.99 1329.59 1121.54 1343.17C1140.38 1390.41 1127.41 1450.32 1115.06 1507.75C1103.02 1563.63 1091.59 1616.43 1112.9 1648.24C1123.09 1663.36 1139.76 1672.63 1163.85 1676.95C1211.09 1685.29 1264.5 1683.13 1321.01 1680.96C1432.47 1676.33 1558.76 1671.08 1667.14 1750.44C1781.69 1834.11 1906.12 1832.57 1938.54 1794.59C1955.22 1775.45 1947.81 1748.28 1917.86 1718.33C1867.53 1668 1796.51 1662.44 1714.38 1655.65C1625.14 1648.54 1524.49 1640.52 1426.61 1572.9C1351.58 1521.33 1291.98 1422.84 1234.24 1327.43C1145.94 1181.69 1054.54 1031.01 905.098 1032.24C813.394 1033.17 757.816 1056.64 753.493 1096.78C750.714 1122.4 769.549 1153.59 805.058 1181.69C842.418 1211.64 894.909 1235.72 951.722 1248.69L953.266 1249C1010.7 1262.58 1065.66 1275.55 1098.7 1308.59Z" fill="white"/>
</g>
</svg>
