<svg width="710" height="1824" viewBox="0 0 710 1824" fill="none" xmlns="http://www.w3.org/2000/svg">
<g opacity="0.1">
<path d="M-521.716 1213.46C-532.412 1202.76 -542.178 1191.14 -551.014 1178.11C-601.705 1104.17 -613.099 1009.07 -621.237 909.778C-631.468 785.609 -762.148 729.337 -867.017 684.46C-919.336 661.905 -964.446 642.838 -989.559 618.655C-989.792 618.422 -990.257 617.957 -990.489 617.725C-1008.86 599.355 -1015.14 573.545 -1007.7 544.711C-1000.72 517.738 -982.583 489.835 -956.308 465.885C-928.404 440.307 -893.293 421.472 -855.159 410.776C-797.492 394.964 -682.624 386.593 -561.013 508.205C-561.013 508.205 -561.013 508.205 -560.78 508.437L-545.898 523.319C-341.043 728.64 -129.211 940.937 194.698 918.847C263.526 914.196 331.424 921.637 391.183 940.472C453.5 960.004 505.586 992.557 541.163 1033.71C566.276 1063.01 583.715 1096.73 592.319 1133.7C601.852 1173.46 601.155 1217.41 591.156 1264.15C577.437 1326.7 540.233 1382.04 485.822 1419.71C426.76 1460.63 350.491 1479.7 265.619 1474.82C157.262 1468.31 90.0614 1424.82 25.6516 1382.74C-46.6641 1335.53 -115.492 1290.89 -237.336 1296.47C-366.621 1302.05 -460.329 1274.84 -521.716 1213.46ZM-674.951 792.352C-640.537 826.766 -621.935 865.365 -618.447 909.313C-610.308 1008.14 -599.147 1103.01 -548.921 1176.49C-490.325 1262.06 -388.478 1300.19 -237.568 1293.45C-114.794 1287.87 -45.734 1332.74 27.0468 1380.41C91.2241 1422.27 157.959 1465.75 265.619 1472.03C454.663 1483.42 563.95 1375.53 588.366 1263.68C607.898 1174.39 590.691 1095.33 539.07 1035.34C469.545 955.121 337.702 911.173 194.466 920.939C117.5 926.287 41.9285 918.149 -30.6198 896.756C-95.7272 877.689 -158.742 848.159 -223.617 806.536C-343.6 729.803 -447.772 625.631 -548.224 524.714L-563.105 509.832C-563.105 509.832 -563.105 509.832 -563.338 509.6C-683.787 389.151 -797.725 397.522 -854.694 413.101C-928.637 433.564 -990.489 487.51 -1005.14 544.944C-1012.35 573.545 -1006.3 598.192 -987.699 616.33C-963.051 640.047 -917.941 659.58 -866.087 681.67C-813.304 704.225 -753.312 729.803 -706.109 765.379C-694.715 773.983 -684.252 783.051 -674.951 792.352Z" fill="white"/>
<path d="M-507.764 1215.32C-519.158 1203.92 -529.389 1191.37 -538.69 1177.42C-588.451 1101.61 -597.752 997.906 -604.96 914.429C-615.191 794.445 -741.918 740.266 -843.765 696.551C-893.991 675.159 -937.241 656.557 -962.121 633.537C-982.351 615.167 -989.559 588.891 -982.816 559.826C-970.259 504.484 -912.593 451.468 -842.835 430.541C-787.493 414.264 -676.578 403.8 -555.432 520.296C-539.853 535.41 -523.576 550.757 -508.229 565.639C-315 752.823 -115.027 946.285 183.072 930.473C252.598 927.45 320.495 935.821 379.324 954.656C442.339 974.885 493.96 1006.97 529.071 1047.67C553.022 1075.34 569.299 1106.96 577.902 1142.07C586.971 1179.51 587.436 1220.9 578.6 1265.08C567.671 1326.23 531.862 1380.18 477.45 1416.92C418.854 1456.45 343.515 1473.65 259.573 1466.91C154.239 1458.77 87.7362 1417.38 23.5589 1377.39C-49.2219 1332.05 -117.817 1289.49 -237.336 1294.14C-359.877 1299.96 -449.167 1273.91 -507.764 1215.32ZM-656.581 801.421C-623.562 834.44 -605.425 871.644 -601.937 914.196C-586.591 1088.59 -567.291 1305.54 -237.336 1291.82C-116.887 1287.17 -47.8268 1330.19 25.4191 1375.53C89.3638 1415.29 155.634 1456.45 260.038 1464.59C422.807 1478.07 552.789 1395.99 576.274 1265.08C593.249 1179.74 576.739 1107.43 527.211 1049.99C458.848 970.467 330.261 926.985 183.305 933.496C111.686 937.216 43.5561 929.078 -24.5741 908.848C-84.7984 890.943 -143.86 863.505 -204.317 825.371C-316.395 755.148 -414.986 659.812 -509.857 567.732C-525.436 552.617 -541.248 537.271 -557.06 522.389C-677.043 406.591 -786.796 416.822 -841.672 433.099C-910.5 453.561 -967.004 505.88 -979.56 560.291C-986.071 588.659 -978.863 614.004 -959.563 631.444C-935.38 654.231 -892.13 672.834 -842.137 693.993C-790.981 715.851 -732.85 740.499 -687.042 774.68C-675.881 783.516 -665.65 792.352 -656.581 801.421Z" fill="white"/>
<path d="M-493.348 1217.18C-504.509 1206.02 -514.74 1193.46 -523.576 1179.51C-569.849 1108.12 -578.917 1011.62 -587.056 926.287L-587.753 919.079C-598.217 803.048 -720.758 750.73 -819.35 708.875C-867.715 688.413 -909.105 670.741 -933.288 648.883C-954.447 630.514 -962.818 604.471 -957.005 574.94C-951.89 550.292 -937.24 524.482 -915.383 502.624C-891.898 479.139 -862.367 461.234 -829.348 450.538C-776.565 433.564 -669.603 421.472 -549.154 533.085C-523.808 556.105 -497.998 580.521 -473.118 604.006C-291.049 775.378 -102.703 953.028 171.911 943.029C242.134 941.634 309.799 950.703 368.396 969.77C432.34 990.465 482.566 1021.62 517.445 1062.55C564.183 1117.19 580.692 1185.79 566.276 1266.71C557.905 1326.7 523.491 1379.25 469.312 1414.83C411.181 1452.96 336.772 1468.31 253.76 1459.7C151.914 1449.94 85.876 1410.87 22.1638 1373.2C-50.8496 1329.95 -119.677 1289.03 -237.336 1293.21C-353.599 1297.86 -437.774 1272.75 -493.348 1217.18ZM-637.979 810.722C-606.123 842.578 -588.916 878.387 -585.195 919.312L-584.498 926.52C-575.894 1015.58 -567.058 1107.66 -521.251 1178.58C-468.7 1259.5 -376.154 1296.24 -237.103 1291.12C-118.98 1286.94 -49.4543 1328.09 23.7914 1371.58C87.2712 1409.01 152.844 1448.08 254.225 1457.84C437.456 1476.91 548.836 1376.23 563.95 1267.17C578.135 1186.95 561.858 1119.05 515.585 1065.34C449.315 987.907 320.96 943.727 172.143 946.982C48.6717 951.4 -68.9866 917.916 -187.343 844.206C-291.979 779.098 -384.99 691.668 -474.745 607.029C-499.626 583.543 -525.436 559.128 -550.781 536.108C-670.3 425.425 -775.867 437.517 -828.418 454.259C-892.13 474.721 -943.984 525.179 -954.447 576.568C-960.261 605.168 -952.122 630.514 -931.892 647.953C-908.175 669.811 -866.785 687.018 -818.885 707.48C-769.356 728.64 -713.085 752.358 -668.672 785.144C-657.046 793.05 -647.047 801.653 -637.979 810.722Z" fill="white"/>
<path d="M-479.396 1219.04C-490.092 1208.34 -499.393 1196.72 -507.764 1183.69C-551.712 1116.03 -560.548 1028.13 -569.384 943.029C-570.081 936.751 -570.779 930.473 -571.244 923.962C-581.708 812.117 -700.296 761.891 -795.864 721.664C-841.905 702.132 -881.899 685.39 -905.152 664.463C-927.474 646.325 -936.775 619.817 -931.427 590.287C-922.591 540.061 -875.854 491.928 -815.164 470.768C-776.1 457.281 -732.617 455.189 -689.832 464.955C-639.607 476.581 -590.078 503.787 -542.643 545.642C-508.462 575.172 -474.048 607.261 -440.564 637.955C-269.192 796.305 -92.2393 960.236 161.215 955.586C232.135 955.818 300.265 965.817 357.699 984.652C421.877 1005.58 471.87 1036.5 506.051 1076.73C549.766 1127.89 566.276 1192.3 554.417 1267.87C549.301 1318.09 523.491 1364.37 481.171 1398.32C422.574 1444.82 339.795 1464.35 247.947 1452.49C149.356 1441.33 84.0158 1404.36 21.0011 1368.79C-52.4773 1327.4 -121.77 1288.33 -237.103 1291.59C-347.088 1295.54 -426.612 1271.82 -479.396 1219.04ZM-619.609 819.79C-589.148 850.251 -572.406 884.665 -568.453 923.962C-567.756 930.24 -567.058 936.519 -566.593 943.029C-549.619 1109.75 -530.552 1299.03 -237.103 1289.26C-121.073 1285.77 -51.3147 1325.3 22.6288 1366.69C85.411 1402.04 150.518 1438.78 248.645 1449.94C339.795 1461.56 421.877 1442.73 479.776 1396.46C521.398 1363.2 546.976 1317.63 551.859 1268.1C563.02 1193.23 546.976 1129.75 503.726 1079.06C439.084 1003.25 313.984 959.539 160.75 958.841C47.0441 960.934 -62.2434 928.845 -173.159 860.25C-271.052 799.56 -358.482 718.641 -443.122 640.512C-476.606 609.354 -511.252 577.498 -545.201 548.199C-664.022 442.865 -765.403 456.351 -814.932 473.791C-874.923 494.718 -920.731 541.921 -929.567 591.217C-934.45 619.817 -925.614 645.395 -903.989 662.835C-880.737 683.297 -841.207 700.039 -795.167 719.571C-747.034 739.801 -692.855 762.821 -649.838 794.677C-638.211 802.583 -628.445 810.954 -619.609 819.79Z" fill="white"/>
<path d="M-464.979 1221.36C-530.552 1155.79 -541.248 1053.94 -551.247 959.306C-552.177 949.54 -553.339 939.076 -554.269 929.31C-564.966 821.418 -679.601 773.285 -771.682 734.686C-815.629 716.316 -853.531 700.272 -876.551 680.507C-900.036 662.602 -910.5 635.862 -906.082 605.866C-899.106 558.43 -856.786 512.39 -800.98 491.463C-763.776 477.511 -722.386 474.721 -680.531 483.557C-631.701 493.788 -583.335 519.366 -536.132 559.128C-494.278 593.542 -453.585 630.514 -410.801 669.578C-249.892 816.535 -83.4033 968.607 150.518 968.607C222.834 970.7 290.499 981.629 347.003 999.998C411.413 1021.16 461.406 1052.08 494.89 1091.15C535.815 1139.05 551.627 1199.04 542.558 1269.5C540 1317.16 516.515 1361.58 476.288 1393.9C419.086 1440.4 333.982 1459.01 242.366 1445.05C147.496 1432.5 83.0857 1397.85 20.536 1364.6C-53.4074 1325.07 -123.398 1287.63 -236.871 1290.42C-350.111 1293.91 -420.334 1266.01 -464.979 1221.36ZM-601.24 829.324C-574.732 855.832 -556.13 888.386 -552.177 929.078C-551.014 939.076 -550.084 949.308 -549.154 959.074C-540.55 1039.76 -531.714 1123 -490.557 1186.48C-443.819 1258.34 -360.807 1291.59 -237.801 1288.1C-123.63 1285.54 -53.4073 1323.21 21.0011 1362.74C83.0857 1395.99 147.495 1430.17 241.669 1442.96C332.587 1456.68 416.994 1438.31 473.498 1392.5C513.027 1360.41 536.047 1316.93 538.605 1269.73C547.674 1200.2 531.862 1140.68 491.635 1093.47C406.53 993.488 240.739 974.188 149.356 971.63C44.2538 971.63 -57.1278 940.472 -160.37 876.294C-251.752 819.79 -334.067 744.452 -413.823 671.671C-456.608 632.606 -497.068 595.402 -539.155 561.221C-657.279 461.234 -754.01 476.116 -801.213 494.021C-856.321 514.716 -897.711 559.826 -904.687 606.331C-909.105 635.397 -898.874 660.975 -876.319 678.414C-853.531 697.946 -814.001 714.688 -771.914 732.128C-712.852 756.311 -645.885 784.679 -601.24 829.324Z" fill="white"/>
<path d="M-451.725 1222.99C-461.259 1213.46 -469.862 1202.99 -477.303 1191.37C-516.6 1131.14 -525.204 1051.39 -533.342 974.42C-534.97 961.166 -536.132 947.447 -537.76 934.193C-548.456 830.487 -659.139 783.981 -748.197 747.01C-788.191 730.268 -826.325 714.456 -848.648 695.854C-873.528 677.949 -884.922 651.209 -881.434 620.748C-878.876 599.123 -868.878 577.498 -852.368 558.198C-835.394 537.968 -812.606 521.691 -786.796 511.228C-751.684 497.044 -712.155 493.788 -671.695 501.229C-624.492 510.298 -576.824 533.783 -530.319 571.452C-481.024 609.586 -434.053 652.371 -384.293 697.481C-233.15 834.672 -77.1251 976.746 139.125 980.931C213.533 985.117 279.803 996.51 335.842 1014.88C400.949 1036.27 450.478 1066.73 483.031 1105.33C520.933 1149.75 536.745 1205.55 529.769 1270.66C529.071 1316 508.144 1358.32 470.242 1389.71C413.738 1436.45 328.169 1454.12 235.856 1437.61C144.938 1423.43 81.2255 1391.34 20.071 1360.41C-54.8026 1322.75 -125.491 1286.94 -237.103 1288.8C-334.299 1291.59 -404.987 1269.73 -451.725 1222.99ZM-582.638 838.625C-557.292 863.97 -539.388 894.896 -535.202 933.961C-533.575 947.215 -531.947 960.934 -530.784 974.188C-522.413 1050.92 -514.042 1129.98 -474.978 1189.97C-430.798 1257.87 -353.134 1289.49 -237.103 1286.47C-124.561 1284.61 -53.6399 1320.65 21.4661 1358.55C82.6206 1389.48 145.868 1421.57 236.553 1435.52C328.169 1451.8 412.808 1434.59 468.615 1388.08C505.819 1357.39 526.514 1315.77 526.979 1271.12C533.722 1206.71 518.143 1151.61 480.706 1107.66C403.74 1017.21 252.365 990.465 138.66 984.186C-78.7527 979.768 -235.011 837.462 -386.618 699.807C-436.378 654.696 -483.349 611.912 -532.412 574.01C-649.605 479.604 -741.686 495.881 -786.331 514.018C-836.557 534.48 -873.993 577.498 -879.341 621.445C-883.062 650.744 -871.668 676.554 -847.718 693.993C-825.628 712.363 -787.959 728.175 -747.964 744.917C-690.995 767.937 -625.888 795.375 -582.638 838.625Z" fill="white"/>
<path d="M-438.006 1225.08C-447.075 1216.02 -455.446 1205.78 -462.421 1194.62C-499.393 1137.65 -507.532 1062.08 -515.438 988.604C-517.065 972.095 -519.158 955.121 -521.251 939.076C-532.179 839.322 -638.676 795.142 -724.479 759.566C-762.613 743.754 -798.655 728.64 -820.512 711.433C-846.788 693.528 -859.809 666.555 -856.786 635.629C-852.833 593.077 -819.582 551.92 -771.914 531.225C-739.128 517.041 -700.994 512.855 -662.162 519.599C-616.586 527.504 -570.081 549.362 -523.808 584.473C-468.235 625.166 -415.219 673.066 -359.412 723.757C-217.804 852.344 -71.3119 985.814 128.428 993.953C398.857 1016.51 530.002 1110.45 517.678 1272.52C519.073 1315.77 500.471 1356.23 464.894 1386.22C410.018 1432.73 322.123 1449.47 230.275 1430.64C143.543 1415.06 81.458 1385.53 21.2336 1356.93C-54.5699 1320.65 -126.421 1286.47 -236.871 1287.63C-328.021 1289.49 -394.291 1268.8 -438.006 1225.08ZM-564.268 847.693C-539.853 872.109 -522.878 901.64 -518.693 938.844C-516.6 954.888 -514.74 972.095 -512.88 988.372C-505.206 1061.15 -496.835 1136.49 -460.329 1193C-419.171 1256.94 -345.926 1286.94 -237.336 1284.84C-126.188 1283.91 -54.3375 1318.09 21.9312 1354.37C82.1556 1382.97 144.008 1412.73 230.507 1428.08C321.658 1446.68 408.39 1430.17 462.801 1384.13C497.913 1354.6 516.283 1314.84 514.887 1272.52C527.211 1111.84 396.996 1019.3 127.731 996.51C-73.1721 988.139 -220.129 854.669 -361.738 725.617C-417.544 674.926 -470.095 627.026 -525.669 586.334C-610.308 521.691 -699.831 502.392 -770.984 533.55C-817.489 554.013 -850.043 594.007 -853.996 635.629C-856.786 665.393 -844.23 691.436 -818.885 708.875C-797.26 726.315 -761.45 741.196 -723.549 756.776C-668.905 779.796 -606.123 805.839 -564.268 847.693Z" fill="white"/>
<path d="M-424.52 1227.41C-433.356 1218.57 -441.494 1208.57 -448.47 1197.41C-482.884 1143.47 -490.557 1071.62 -497.998 1002.32C-500.091 983.024 -502.183 962.794 -504.741 943.959C-515.903 848.159 -618.447 806.071 -700.994 771.89C-737.268 757.008 -771.217 743.057 -792.376 726.547C-820.28 708.41 -834.464 681.204 -832.371 649.813C-829.581 609.819 -800.282 570.754 -757.265 550.525C-726.572 536.108 -690.762 531.457 -652.861 537.271C-609.146 543.781 -563.57 563.779 -517.995 596.797C-456.143 639.117 -398.477 691.668 -337.555 747.475C-205.015 868.853 -67.824 994.418 117.035 1006.28C239.576 1020 325.843 1042.55 388.16 1076.5C426.992 1097.66 456.523 1123.93 476.055 1154.16C497.68 1187.88 507.447 1227.87 505.121 1273.45C508.377 1314.84 491.867 1353.21 458.383 1382.04C432.805 1404.36 398.392 1419.71 358.862 1427.15C317.24 1434.82 270.502 1433.66 223.764 1422.73C141.682 1406.22 81.458 1379.02 22.6288 1352.74C-54.8026 1318.09 -127.816 1285.08 -237.568 1285.54C-292.677 1286.24 -337.09 1278.56 -373.131 1262.06C-392.664 1253.68 -409.87 1242.06 -424.52 1227.41ZM-545.666 856.994C-522.413 880.247 -505.904 908.383 -501.951 943.959C-499.161 963.027 -497.3 983.024 -495.208 1002.32C-487.999 1071.38 -480.326 1142.77 -446.145 1196.48C-407.778 1256.71 -339.182 1285.31 -237.336 1283.91C-127.118 1283.45 -53.6399 1316.47 24.024 1351.35C82.3881 1377.62 143.078 1404.83 224.462 1421.1C316.31 1442.26 403.042 1427.15 456.756 1380.88C489.542 1352.74 505.819 1314.61 502.563 1274.15C506.516 1187.88 468.847 1124.17 386.998 1079.52C324.681 1045.57 238.878 1023.48 116.802 1009.76C-68.9866 997.906 -206.41 872.109 -339.415 750.265C-400.337 694.458 -457.771 642.14 -519.623 599.82C-603.332 539.363 -689.6 522.854 -756.102 554.013C-798.19 573.777 -827.023 611.912 -829.813 650.976C-831.906 681.437 -818.187 707.712 -790.981 725.152C-770.054 741.429 -736.105 755.38 -700.063 770.03C-647.047 791.422 -586.125 816.535 -545.666 856.994Z" fill="white"/>
<path d="M-411.266 1229.5C-419.869 1220.9 -427.542 1211.36 -434.286 1200.44C-466.374 1149.28 -473.35 1081.38 -480.093 1015.58C-482.186 993.488 -484.744 970.467 -487.999 949.075C-499.161 857.46 -597.984 817.232 -677.508 784.679C-711.457 770.727 -743.778 757.473 -764.473 742.359C-794.237 724.222 -810.049 696.784 -808.653 664.695C-807.258 626.561 -781.913 590.519 -742.383 570.522C-714.015 556.105 -679.601 550.99 -643.56 555.873C-601.472 561.221 -557.292 579.358 -512.182 610.051C-444.749 652.836 -382.897 710.038 -317.79 770.495C-193.621 885.363 -65.4987 1004.18 105.408 1019.3C294.22 1046.27 495.123 1090.45 492.565 1275.31C497.448 1314.61 483.264 1351.58 451.873 1379.25C399.322 1425.75 309.799 1439.94 217.718 1416.22C141.45 1399.01 83.0857 1374.6 26.5817 1350.65C-52.9423 1317.16 -128.048 1285.31 -237.801 1284.84C-289.422 1285.31 -330.811 1277.87 -364.528 1262.29C-382.2 1253.45 -398.012 1242.76 -411.266 1229.5ZM-527.064 865.83C-502.881 890.013 -488.929 917.451 -485.209 948.61C-481.954 970.002 -479.396 993.022 -477.303 1015.11C-463.817 1147.19 -449.865 1283.91 -237.103 1282.29C-126.886 1282.75 -51.5471 1314.37 28.2094 1348.09C84.4808 1371.81 142.612 1396.46 218.881 1413.66C309.799 1437.15 398.624 1423.2 450.478 1377.39C481.171 1350.42 495.355 1313.91 490.24 1275.77C493.03 1093.01 293.057 1049.29 105.641 1022.32C-66.1963 1007.21 -194.783 887.921 -319.185 772.82C-384.293 712.363 -445.912 655.394 -513.345 612.609C-596.124 556.338 -678.904 542.386 -740.756 573.545C-779.355 593.077 -804.235 628.188 -805.631 665.393C-806.793 696.319 -791.679 723.059 -762.613 740.499C-742.151 755.845 -710.295 768.634 -676.346 782.586C-636.351 798.863 -590.776 817.465 -554.734 843.275C-544.271 850.019 -535.202 857.692 -527.064 865.83Z" fill="white"/>
<path d="M-398.477 1231.13C-448.005 1181.6 -455.446 1103.94 -462.654 1027.44C-464.979 1002.79 -467.537 977.443 -471.257 953.725C-482.651 866.063 -577.522 827.929 -653.558 797.003C-685.647 783.981 -715.875 771.89 -735.64 757.706C-767.031 739.801 -784.471 711.2 -784.238 678.879C-784.006 643.303 -761.45 609.121 -726.339 589.822C-700.063 575.637 -667.742 569.824 -632.863 573.545C-592.636 577.963 -549.851 594.24 -505.439 622.375C-432.891 665.16 -367.783 726.547 -298.723 791.422C-182.692 900.477 -62.941 1013.25 95.177 1031.39C183.072 1046.74 282.826 1064.18 357.234 1100.45C438.619 1139.98 479.078 1197.65 480.938 1276.24C487.682 1313.68 475.125 1349.02 445.827 1375.53C421.644 1397.39 387.695 1412.27 347.933 1418.55C305.846 1425.29 258.876 1421.57 212.603 1408.31C142.613 1391.34 87.5037 1369.72 34.2551 1348.56C-52.0121 1314.37 -126.653 1284.84 -237.336 1283.45C-316.395 1283.45 -366.155 1263.45 -398.477 1231.13ZM-508.694 874.899C-485.674 897.919 -472.42 923.73 -468.7 953.493C-464.747 977.443 -462.189 1002.79 -459.864 1027.44C-454.051 1089.52 -447.54 1153.7 -418.474 1201.37C-385.455 1254.85 -326.393 1280.89 -237.336 1280.66C-126.188 1282.05 -51.3146 1311.82 35.1852 1345.77C88.4338 1366.93 143.543 1388.55 212.603 1405.99C302.591 1431.8 393.509 1419.01 443.502 1373.67C472.335 1347.63 484.426 1313.21 477.683 1276.7C477.683 1276.7 477.683 1276.7 477.451 1276.47C473.73 1100.22 271.897 1065.34 93.7819 1034.18C-65.2662 1016.04 -185.25 903.035 -301.281 793.515C-370.341 728.64 -435.216 667.485 -507.764 624.701C-589.381 573.312 -668.905 561.221 -725.874 592.147C-760.52 610.982 -782.145 644.233 -782.378 678.879C-782.843 710.038 -765.636 737.941 -734.942 755.148C-715.41 769.1 -685.182 781.191 -653.326 793.98C-614.959 809.559 -571.244 827.231 -536.597 851.646C-525.669 859.32 -516.6 866.993 -508.694 874.899Z" fill="white"/>
<path d="M-385.688 1233.22C-432.658 1186.25 -439.169 1112.31 -445.447 1039.53C-447.772 1012.55 -450.098 984.652 -454.748 959.074C-466.374 875.364 -557.06 839.09 -630.538 809.792C-660.534 797.933 -688.67 786.539 -707.737 773.518C-740.988 755.613 -760.52 726.315 -761.218 693.528C-761.916 659.812 -743.081 628.421 -710.76 609.586C-657.744 578.428 -580.545 587.729 -499.393 635.397C-421.962 677.484 -353.832 742.824 -281.981 811.884C-173.856 915.824 -62.2434 1023.25 84.0157 1044.41C95.177 1046.74 106.338 1049.06 117.267 1051.15C205.86 1069.06 289.569 1086.27 354.212 1118.82C389.09 1136.49 415.366 1156.72 433.968 1181.37C454.895 1208.81 466.057 1240.43 468.615 1278.33C476.986 1314.14 466.522 1347.86 438.851 1373.67C415.366 1395.29 381.882 1409.71 341.655 1415.52C299.335 1421.57 252.598 1416.69 206.092 1402.27C145.403 1385.29 95.6421 1366.69 47.2765 1348.56C-44.3388 1314.61 -123.398 1284.84 -237.336 1282.52C-309.884 1281.59 -355.924 1262.99 -385.688 1233.22ZM-490.092 884.2C-468.467 905.825 -455.911 930.473 -451.958 958.144C-447.54 983.954 -444.982 1012.09 -442.657 1039.06C-437.541 1097.66 -432.193 1158.35 -405.22 1203.46C-374.992 1253.68 -319.883 1278.57 -237.336 1279.26C-122.933 1281.59 -43.6412 1311.12 48.2067 1345.3C96.3397 1363.2 146.565 1381.81 206.79 1398.78C297.243 1427.38 387.695 1416.45 436.526 1370.88C463.266 1346 473.73 1313.21 465.359 1278.33C465.359 1278.33 465.359 1278.33 465.127 1278.1C460.941 1207.41 425.132 1157.65 352.351 1121.14C287.942 1088.82 204.465 1071.85 116.104 1053.71C104.943 1051.39 94.0145 1049.29 82.8531 1046.97C-64.1035 1026.04 -176.181 918.149 -284.539 813.977C-356.389 744.917 -424.055 679.577 -501.253 637.722C-581.475 590.519 -657.744 581.218 -709.83 611.912C-741.221 630.281 -759.358 660.51 -758.66 693.296C-757.963 725.152 -738.895 753.52 -706.574 770.96C-687.507 783.981 -659.371 794.91 -629.608 807.001C-592.636 821.65 -550.781 838.392 -517.53 861.878C-507.067 869.086 -497.998 876.294 -490.092 884.2Z" fill="white"/>
<path d="M-373.364 1234.85C-381.502 1226.71 -388.478 1217.41 -394.756 1206.95C-419.637 1163.93 -424.287 1106.26 -428.473 1050.46C-430.565 1021.39 -432.891 991.162 -438.239 963.492C-450.098 883.735 -537.062 849.321 -607.053 821.65C-634.723 810.722 -660.999 800.258 -679.834 788.399C-715.643 770.262 -737.035 740.499 -738.663 706.782C-740.291 675.391 -724.014 646.093 -695.645 627.956C-647.047 597.495 -573.569 604.471 -493.812 647.488C-411.963 687.948 -341.74 757.241 -267.332 830.719C-166.648 930.008 -62.7085 1033.02 72.3894 1056.5C95.1771 1062.08 117.965 1067.2 140.52 1072.08C219.579 1089.75 293.987 1106.5 351.654 1136.26C416.296 1169.74 449.547 1215.09 456.058 1278.8C466.057 1312.98 457.221 1345.53 431.41 1369.95C409.32 1391.11 374.906 1405.52 335.377 1410.17C293.057 1415.29 246.087 1409.71 200.279 1393.67C153.076 1379.02 111.686 1364.6 71.9244 1350.42C-33.1775 1313.21 -115.957 1283.91 -237.103 1279.96C-278.726 1279.26 -311.977 1272.52 -338.95 1259.03C-351.971 1252.99 -363.365 1244.85 -373.364 1234.85ZM-471.722 893.269C-451.26 913.731 -439.401 936.751 -435.448 963.027C-430.1 990.697 -427.775 1020.93 -425.682 1049.99C-421.264 1105.57 -416.846 1163 -392.198 1205.32C-364.76 1252.75 -313.837 1276.24 -237.336 1277.4C-115.957 1281.12 -28.7595 1312.05 72.622 1347.86C112.384 1362.04 153.541 1376.69 200.977 1391.11C290.499 1422.03 382.115 1412.73 429.55 1368.09C454.663 1344.37 463.034 1312.75 453.5 1279.5C453.5 1279.5 453.5 1279.5 453.268 1279.26C446.757 1216.48 414.203 1171.84 350.259 1138.58C293.29 1109.05 218.881 1092.31 139.822 1074.64C117.732 1069.76 94.712 1064.41 71.9244 1058.83C-63.6385 1035.34 -168.275 932.101 -269.192 832.579C-343.368 759.333 -413.591 690.041 -494.743 649.813C-573.569 607.261 -646.117 600.285 -693.785 630.281C-721.456 647.721 -737.035 676.321 -735.64 706.55C-734.012 739.336 -713.085 768.169 -678.206 785.841C-659.836 797.7 -633.793 807.931 -606.123 818.86C-570.779 832.812 -530.784 848.624 -498.463 870.714C-488.232 878.619 -479.396 885.595 -471.722 893.269Z" fill="white"/>
<path d="M-361.272 1236.71C-369.178 1228.8 -376.154 1219.5 -381.967 1209.04C-404.522 1168.35 -408.01 1113.7 -411.266 1061.15C-413.126 1029.99 -415.219 997.673 -421.032 968.607C-432.891 893.036 -516.368 860.715 -583.103 834.439C-608.913 824.441 -633.096 815.14 -650.768 804.443C-689.135 786.539 -712.62 756.078 -715.41 721.664C-717.503 692.598 -704.016 665.16 -678.671 647.721C-634.724 617.725 -564.733 622.608 -486.837 660.975C-400.802 699.109 -325.463 775.843 -252.682 850.019C-159.207 945.355 -62.2434 1044.18 62.3909 1069.76C94.7121 1078.82 127.033 1086.5 158.657 1093.94C229.345 1110.68 296.312 1126.49 347.701 1153.7C405.367 1183.93 436.293 1224.62 444.664 1281.36C456.058 1314.14 449.082 1345.3 424.9 1368.55C378.627 1413.43 284.221 1421.34 195.163 1387.62C170.748 1379.48 147.728 1371.34 125.638 1363.67C-4.80927 1318.33 -98.75 1285.31 -236.173 1279.96C-274.773 1279.03 -305.466 1272.52 -330.114 1259.5C-342.67 1252.52 -352.669 1245.31 -361.272 1236.71ZM-453.12 902.57C-434.053 921.637 -422.659 943.262 -418.706 968.142C-412.661 997.441 -410.568 1029.76 -408.708 1060.92C-405.452 1113.47 -401.965 1167.65 -379.642 1207.64C-354.297 1252.99 -309.186 1274.84 -237.103 1276.24C-99.2151 1281.59 -4.80927 1314.61 125.638 1359.95C147.728 1367.62 170.748 1375.76 195.396 1384.13C283.756 1417.62 376.999 1409.94 422.342 1366C445.595 1343.21 452.338 1313.21 441.409 1281.36C441.409 1281.36 441.409 1281.36 441.177 1281.12C422.807 1159.05 299.8 1129.98 157.262 1096.26C125.638 1088.82 93.3168 1081.15 60.9956 1072.08C-64.3361 1046.27 -161.3 947.447 -255.24 851.646C-331.044 774.448 -402.895 701.202 -488.464 663.067C-565.663 625.398 -634.491 620.283 -677.741 649.581C-702.156 666.09 -715.41 692.831 -713.317 720.967C-710.76 754.683 -687.507 783.981 -650.303 801.653C-632.631 812.349 -608.448 821.65 -583.103 831.649C-549.386 844.903 -510.787 859.785 -480.093 880.712C-469.63 887.92 -460.794 894.896 -453.12 902.57Z" fill="white"/>
<path d="M-349.646 1238.57C-357.552 1230.66 -364.528 1221.36 -369.876 1210.9C-390.106 1172.53 -392.664 1121.14 -394.989 1071.38C-396.384 1038.37 -398.244 1004.42 -404.755 973.723C-417.079 901.872 -493.115 872.806 -560.548 847.228C-584.033 838.16 -606.355 829.789 -623.097 820.023C-652.396 807.001 -674.253 787.469 -685.879 763.751C-696.808 741.661 -697.506 718.176 -688.437 697.481C-667.51 649.581 -595.194 623.77 -481.256 673.996C-391.268 709.573 -314.767 790.259 -241.056 868.156C-154.324 960.004 -64.3361 1054.64 50.532 1082.55C90.7591 1095.33 131.219 1105.1 170.283 1114.4C298.405 1145.33 409.088 1172.3 431.41 1282.52C444.199 1313.91 438.619 1343.67 416.064 1366.23C395.369 1386.92 362.117 1399.71 322.355 1403.2C279.338 1406.69 233.065 1398.55 188.188 1380.18C19.1409 1317.16 -87.8213 1286.01 -237.336 1278.33C-272.912 1277.17 -301.281 1270.66 -323.603 1258.57C-333.602 1252.29 -342.205 1246.01 -349.646 1238.57ZM-434.518 911.871C-416.614 929.775 -405.685 950.005 -401.965 972.793C-395.221 1003.72 -393.594 1037.9 -392.198 1070.92C-389.873 1122.54 -387.548 1171.37 -367.318 1209.27C-344.763 1251.82 -303.373 1272.75 -237.103 1274.84C-87.1237 1282.52 20.071 1313.91 189.35 1376.69C287.941 1417.15 376.999 1400.64 414.668 1363.44C436.293 1341.81 441.642 1313.21 429.085 1282.52C429.085 1282.52 429.085 1282.52 428.853 1282.29C406.763 1173.7 297.01 1147.19 169.818 1116.26C130.754 1106.96 90.5266 1096.96 50.0669 1084.41C-65.4987 1056.73 -155.719 961.399 -242.684 869.318C-316.395 791.422 -392.431 711.2 -481.954 675.624C-594.264 626.096 -665.185 650.976 -685.647 697.946C-694.483 717.944 -693.553 740.731 -683.322 762.124C-671.928 785.609 -650.768 804.443 -621.702 817.232C-605.193 826.766 -582.87 835.137 -559.385 844.206C-527.064 856.529 -490.092 870.714 -460.561 890.478C-451.028 897.222 -442.192 904.197 -434.518 911.871Z" fill="white"/>
<path d="M-338.252 1240.2C-346.158 1232.29 -352.669 1222.99 -358.25 1212.29C-376.154 1176.25 -377.549 1129.75 -378.944 1080.92C-380.107 1046.27 -381.037 1010.46 -388.245 978.606C-400.802 910.708 -473.583 883.503 -537.76 859.32C-559.152 851.414 -579.382 843.74 -595.194 835.37C-615.889 826.766 -632.398 815.837 -644.722 803.513C-673.09 775.145 -680.066 739.801 -669.37 713.293C-659.836 689.808 -637.746 673.299 -607.285 667.02C-571.941 659.58 -526.366 666.555 -475.443 686.32C-381.735 718.641 -304.768 803.513 -230.36 885.363C-149.906 973.723 -66.6613 1065.34 39.1382 1094.87C86.3411 1111.38 133.311 1123 178.654 1133.93C293.522 1161.84 392.811 1185.79 418.621 1283.68C432.573 1313.91 429.085 1342.51 407.693 1363.9C387.928 1384.13 355.142 1396.46 315.147 1398.78C272.13 1401.34 225.857 1392.27 181.444 1372.51C34.0226 1312.51 -79.9154 1286.47 -238.266 1276.47C-270.82 1275.08 -296.63 1268.8 -317.325 1256.94C-324.533 1252.06 -331.974 1246.48 -338.252 1240.2ZM-416.149 920.939C-399.407 937.681 -389.408 956.516 -385.455 977.676C-378.014 1009.76 -377.084 1045.57 -376.154 1080.45C-373.364 1176.72 -371.039 1267.4 -237.336 1273.22C-78.5202 1283.22 35.4178 1309.26 183.072 1369.48C227.252 1389.02 273.06 1398.08 315.38 1395.76C354.444 1393.43 386.765 1381.11 406.298 1361.58C426.527 1340.88 430.248 1313.44 416.529 1284.38C416.529 1284.38 416.529 1284.38 416.296 1284.15C404.67 1239.97 377.697 1208.34 331.424 1184.86C289.569 1163.46 235.391 1150.21 178.422 1136.49C133.079 1125.56 85.876 1114.17 38.6732 1097.19C-67.824 1067.43 -151.301 975.583 -231.988 886.99C-306.164 805.374 -383.13 720.966 -475.908 688.645C-526.366 668.881 -571.476 662.37 -606.123 669.578C-635.886 675.624 -657.279 691.436 -666.115 714.223C-680.764 751.195 -660.534 805.374 -593.566 832.812C-577.755 841.183 -557.757 848.624 -536.597 856.762C-505.439 868.388 -470.56 881.41 -442.424 900.244C-432.193 906.755 -423.59 913.498 -416.149 920.939Z" fill="white"/>
<path d="M-327.091 1242.06C-334.997 1234.15 -341.508 1224.85 -346.623 1213.69C-362.435 1179.74 -362.435 1136.03 -362.668 1089.75C-362.668 1053.48 -362.9 1016.04 -371.039 983.256C-383.827 919.312 -453.353 893.966 -514.507 871.411C-533.575 864.435 -551.712 857.925 -566.593 850.484C-598.449 838.16 -624.492 818.628 -639.374 794.91C-653.326 773.052 -657.046 748.87 -649.838 728.64C-636.351 690.971 -580.777 660.51 -468.932 698.411C-371.736 727.245 -294.77 815.837 -220.129 901.64C-145.72 987.209 -68.7541 1075.34 28.2094 1106.73C81.2255 1127.66 134.009 1139.98 184.7 1152.07C236.553 1164.39 285.616 1175.79 324.216 1194.86C367.233 1216.02 393.509 1244.62 406.53 1284.15C422.109 1313.21 419.784 1340.65 400.019 1361.34C381.417 1380.88 348.166 1392.74 308.869 1394.36C266.317 1395.99 219.346 1385.29 176.096 1364.37C27.7444 1298.33 -88.9839 1285.31 -237.568 1274.38C-278.028 1272.52 -307.326 1261.82 -327.091 1242.06ZM-397.547 930.24C-382.2 945.587 -372.666 963.027 -368.713 982.791C-360.342 1015.81 -360.342 1053.48 -360.11 1089.99C-359.645 1180.21 -359.412 1265.54 -237.103 1272.05C-88.2863 1283.22 28.4419 1296.24 177.491 1362.51C220.509 1383.2 267.247 1393.67 309.101 1392.27C347.701 1390.88 380.254 1379.25 398.392 1360.18C417.226 1340.42 419.319 1314.14 404.437 1286.24C404.437 1286.24 404.437 1286.24 404.205 1286.01C376.069 1200.67 287.244 1179.74 184.235 1155.33C133.311 1143.47 80.7605 1130.91 27.2794 1109.98C-70.6142 1078.59 -147.813 989.767 -222.222 904.197C-296.63 818.628 -373.596 730.5 -469.862 701.667C-580.08 664.463 -634.491 693.761 -647.28 730.268C-654.256 749.8 -650.535 773.052 -637.049 793.98C-622.4 817 -597.054 836.3 -565.431 848.391C-550.549 855.832 -532.644 862.11 -513.81 869.318C-484.279 880.247 -450.795 892.339 -423.59 909.778C-413.591 916.056 -404.987 922.799 -397.547 930.24Z" fill="white"/>
<path d="M-316.627 1243.69C-324.533 1235.78 -330.811 1226.25 -335.462 1215.09C-348.949 1183 -348.018 1142.07 -347.088 1098.82C-346.158 1061.15 -345.461 1022.32 -354.529 988.604C-367.783 928.38 -434.053 904.895 -492.417 884.2C-509.159 878.154 -524.971 872.574 -538.458 866.528C-566.128 856.529 -587.753 842.81 -603.565 826.999C-629.84 800.723 -639.374 769.797 -631.468 745.614C-624.957 725.152 -606.82 710.27 -580.545 703.527C-550.549 695.854 -509.624 698.644 -462.654 712.131C-362.435 737.011 -285.469 829.789 -211.293 919.312C-142.698 1001.86 -72.0095 1087.43 17.2807 1120.45C75.4123 1146.02 135.172 1159.28 188.188 1170.91C235.391 1181.37 279.571 1191.14 315.38 1207.88C355.142 1226.25 380.255 1251.36 394.439 1286.47C411.413 1314.61 410.483 1340.65 391.881 1360.65C374.209 1379.71 341.19 1390.88 302.126 1391.34C259.573 1392.04 212.835 1380.18 170.283 1358.09C42.3936 1296.24 -68.0565 1287.63 -184.785 1278.33C-201.992 1276.94 -219.664 1275.54 -237.336 1274.15C-273.145 1270.89 -298.955 1261.36 -316.627 1243.69ZM-379.177 939.309C-366.155 952.33 -356.389 968.142 -352.204 987.674C-342.903 1021.62 -343.833 1060.69 -344.531 1098.59C-346.391 1183.23 -348.018 1262.99 -237.103 1270.66C-219.431 1272.05 -201.759 1273.45 -184.552 1274.84C-67.3589 1284.15 43.3236 1292.98 171.678 1354.83C213.998 1376.69 260.271 1388.55 302.358 1387.85C340.958 1387.39 372.814 1376.46 390.253 1358.09C407.693 1339.25 408.623 1314.14 392.346 1287.17C392.346 1287.17 392.346 1287.17 392.113 1286.94C361.885 1211.6 281.198 1193.69 187.723 1172.77C134.707 1161.14 74.7147 1147.65 16.5831 1122.07C-73.1721 1089.06 -144.558 1003.25 -213.153 920.242C-287.096 830.952 -363.83 738.406 -463.119 713.991C-509.624 700.969 -549.851 697.946 -579.615 705.387C-605.193 711.898 -622.4 726.315 -628.678 745.614C-640.769 783.284 -609.843 837.462 -537.528 863.273C-524.041 869.318 -508.229 874.899 -491.487 880.945C-451.26 895.594 -407.313 911.173 -379.177 939.309Z" fill="white"/>
<path d="M-307.094 1244.85C-338.02 1213.92 -335.229 1161.37 -332.439 1106.5C-330.346 1067.66 -328.486 1027.2 -338.485 993.022C-352.204 936.519 -415.219 914.894 -471.025 895.826C-485.209 890.943 -498.696 886.293 -510.554 881.41C-545.898 869.783 -575.894 850.484 -594.729 826.999C-612.401 805.141 -619.377 780.958 -613.796 760.961C-608.448 741.661 -592.636 727.71 -567.756 720.502C-539.62 712.363 -502.183 713.526 -456.841 723.989C-410.568 733.058 -365.69 758.403 -319.418 801.421C-278.493 839.555 -240.359 887.92 -203.62 934.891C-140.605 1015.11 -75.4974 1097.89 6.35198 1132.31C68.6691 1162.53 132.846 1175.56 189.583 1187.18C275.153 1204.85 349.096 1219.74 382.115 1287.17C400.252 1314.14 400.949 1339.49 383.51 1358.32C366.536 1376.69 334.214 1387.15 295.15 1386.69C252.83 1386.22 206.325 1373.2 164.238 1349.72C53.3224 1291.35 -51.0821 1284.61 -151.999 1278.1C-179.902 1276.24 -208.968 1274.61 -237.568 1271.59C-270.355 1269.03 -292.445 1259.5 -307.094 1244.85ZM-360.575 948.61C-348.716 960.469 -339.88 974.885 -335.462 992.325C-325.463 1026.97 -327.324 1067.43 -329.416 1106.73C-331.509 1146.95 -333.602 1185.32 -322.44 1215.09C-309.884 1248.1 -282.911 1265.31 -237.103 1269.26C-208.503 1272.29 -179.669 1274.15 -151.533 1275.77C-50.1519 1282.29 54.2525 1289.03 165.865 1347.63C207.255 1370.88 253.295 1383.9 295.382 1384.13C333.749 1384.36 365.373 1374.6 381.65 1356.46C398.159 1338.56 397.694 1314.37 380.022 1288.33C380.022 1288.33 380.022 1288.33 379.79 1288.1C347.468 1221.83 273.99 1206.95 189.118 1189.51C132.381 1177.88 67.9715 1164.63 5.18933 1134.4C-77.1251 1099.98 -142.697 1016.74 -205.945 936.286C-279.191 843.043 -355.227 746.544 -457.538 726.547C-557.525 703.76 -602.635 729.803 -611.238 761.659C-616.586 780.958 -609.843 803.978 -592.636 825.371C-573.802 848.391 -544.503 867.458 -509.624 879.085C-497.533 884.2 -484.279 888.618 -470.095 893.501C-430.565 906.988 -387.78 921.404 -360.575 948.61Z" fill="white"/>
<path d="M-297.328 1246.24C-326.393 1217.18 -321.975 1166.72 -317.557 1114.4C-314.07 1074.17 -310.349 1032.78 -321.278 998.138C-335.694 945.122 -395.919 925.357 -449.167 908.383C-460.794 904.662 -471.722 901.175 -481.721 897.222C-518.925 886.06 -551.014 866.993 -572.174 843.508C-592.171 821.65 -600.775 797.7 -595.892 777.47C-591.706 759.333 -577.289 745.847 -554.269 738.639C-528.226 730.268 -493.347 729.803 -449.865 737.011C-402.197 743.754 -356.622 768.867 -310.814 812.814C-269.889 851.879 -232.453 902.337 -196.179 951.168C-138.512 1028.83 -78.7527 1109.52 -3.87925 1144.86C62.3908 1179.97 130.056 1192.3 189.583 1202.99C267.944 1217.18 335.609 1229.5 370.488 1288.56C390.021 1314.61 391.881 1338.79 375.604 1356.93C359.56 1374.83 327.704 1384.36 288.639 1382.97C246.087 1381.34 200.046 1366.93 158.889 1342.51C58.903 1285.31 -39.6883 1281.12 -134.559 1276.94C-169.903 1275.54 -203.387 1274.15 -236.871 1269.96C-265.704 1267.64 -284.539 1259.03 -297.328 1246.24ZM-341.973 957.911C-331.276 968.607 -323.138 981.396 -318.953 997.208C-308.024 1032.32 -311.512 1073.94 -315 1114.63C-318.022 1152.54 -321.278 1188.34 -312.209 1216.02C-302.211 1246.94 -278.26 1263.45 -237.336 1267.64C-204.085 1271.59 -170.601 1272.98 -135.257 1274.38C-39.9208 1278.57 58.9029 1282.52 159.354 1340.18C246.087 1392.04 341.423 1389.71 372.349 1355.07C387.695 1337.86 385.835 1315.07 367.233 1289.96C333.284 1231.83 265.851 1219.74 188.188 1205.78C128.196 1195.09 60.2981 1182.53 -6.20452 1147.19C-81.5431 1111.38 -141.302 1030.69 -199.434 952.563C-271.517 855.367 -346.158 754.683 -451.26 739.336C-494.278 732.128 -528.924 732.36 -554.502 740.731C-576.592 747.94 -590.311 760.729 -594.264 777.703C-602.867 814.675 -562.408 869.551 -481.721 894.431C-471.49 898.152 -460.561 901.64 -449.167 905.593C-410.335 917.916 -368.248 931.636 -341.973 957.911Z" fill="white"/>
<path d="M-288.259 1247.87C-296.165 1239.97 -301.281 1230.2 -304.769 1217.88C-311.977 1191.14 -307.791 1157.65 -303.141 1121.84C-298.025 1080.45 -292.677 1037.9 -304.536 1003.25C-319.418 953.493 -377.782 936.054 -429.17 920.474C-437.774 917.916 -445.912 915.359 -453.585 912.801C-496.603 900.942 -529.622 880.945 -551.247 859.32C-573.569 836.997 -583.568 813.047 -579.847 793.515C-576.592 776.773 -563.57 763.751 -542.178 755.846C-518.46 747.009 -485.442 745.149 -444.052 749.8C-335.229 760.031 -261.519 865.365 -190.83 967.212C-138.047 1042.78 -83.6358 1120.91 -15.7381 1157.65C53.3223 1197.88 124.01 1208.57 186.56 1218.11C258.876 1229.04 320.96 1238.57 357.234 1290.19C378.162 1315.3 381.185 1338.79 365.838 1356C350.724 1372.97 318.635 1381.81 280.268 1379.71C237.716 1377.16 192.141 1361.34 151.914 1335.53C59.6005 1278.1 -34.8052 1276.7 -126.421 1275.31C-165.253 1274.61 -202.224 1273.91 -237.801 1269.03C-260.123 1266.24 -276.865 1259.27 -288.259 1247.87ZM-323.371 967.212C-313.837 976.746 -306.396 988.372 -302.211 1001.86C-290.119 1037.2 -295.467 1080.22 -300.815 1121.84C-305.233 1157.42 -309.419 1190.9 -302.443 1216.95C-294.77 1246.01 -274.075 1261.59 -237.336 1266.24C-201.759 1271.12 -165.02 1271.59 -126.188 1272.29C-34.3402 1273.91 60.5306 1275.31 153.541 1332.98C237.251 1386.46 333.517 1388.32 363.745 1353.9C378.162 1337.63 374.906 1315.77 354.909 1291.59C319.333 1241.13 257.481 1231.36 185.862 1220.67C123.313 1211.13 51.9271 1200.2 -17.5983 1159.98C-86.1936 1123 -140.837 1044.64 -193.853 968.84C-264.541 867.458 -337.555 762.821 -445.447 752.59C-521.948 743.987 -571.476 759.566 -578.22 794.212C-585.428 831.184 -540.085 886.293 -454.05 910.011C-445.912 912.568 -438.006 914.894 -429.635 917.684C-390.803 929.078 -348.948 941.634 -323.371 967.212Z" fill="white"/>
<path d="M-279.888 1248.8C-281.748 1246.94 -283.376 1244.85 -285.004 1242.76C-304.303 1216.48 -297.095 1173.93 -289.654 1128.82C-282.446 1086.73 -275.47 1043.02 -288.027 1008.14C-304.071 961.399 -358.482 946.517 -411.033 932.101C-415.916 930.938 -420.799 929.31 -425.682 928.148C-466.839 917.684 -504.044 899.082 -529.854 876.062C-554.502 854.204 -567.058 830.021 -564.035 809.792C-558.92 775.843 -512.88 758.636 -438.239 762.589C-326.626 767.239 -255.008 876.992 -186.18 983.024C-138.279 1056.5 -88.7513 1132.54 -26.8993 1170.21C44.4863 1215.55 117.965 1224.39 182.607 1231.83C249.575 1239.73 307.241 1246.71 344.911 1291.35C367 1315.77 371.419 1338.32 357.234 1354.83C343.05 1371.34 311.427 1379.25 273.06 1375.76C230.507 1371.81 185.397 1355.07 146.1 1328.33C59.8331 1270.43 -32.2474 1271.36 -121.305 1272.52C-162.695 1272.98 -201.759 1273.45 -237.801 1267.64C-256.17 1264.61 -270.122 1258.57 -279.888 1248.8ZM-304.768 976.513C-296.397 984.884 -289.654 994.883 -285.469 1006.97C-272.447 1042.78 -279.656 1086.73 -286.864 1129.28C-294.305 1173.93 -301.281 1215.78 -282.911 1241.13C-273.61 1253.68 -258.728 1261.59 -236.871 1264.85C-200.829 1270.66 -161.997 1269.96 -120.84 1269.73C-35.5028 1268.57 61.2282 1267.64 147.961 1326C186.793 1352.74 231.438 1369.48 273.757 1373.2C311.194 1376.69 341.655 1369.02 355.607 1353.21C369.093 1337.86 364.675 1316.7 343.283 1293.45C306.311 1249.5 249.342 1242.76 182.84 1234.85C117.732 1226.94 44.0212 1218.34 -28.062 1172.77C-45.5015 1162.3 -61.7783 1148.82 -77.5901 1133C-118.05 1092.54 -153.626 1037.9 -188.273 984.652C-257.1 879.085 -328.254 770.262 -438.239 765.379C-511.485 761.426 -556.362 777.935 -561.245 810.257C-564.268 829.556 -552.177 852.809 -527.994 874.201C-502.416 896.989 -465.677 915.126 -424.752 925.822C-420.102 927.217 -414.986 928.613 -410.103 929.775C-370.573 940.472 -329.881 951.4 -304.768 976.513Z" fill="white"/>
<path d="M-272.215 1249.96C-274.308 1247.87 -276.168 1245.55 -277.795 1242.99C-294.305 1218.11 -285.701 1177.88 -276.4 1135.1C-267.099 1091.85 -257.566 1047.43 -271.285 1012.79C-288.724 968.84 -341.043 956.516 -396.151 943.727L-397.314 943.494C-440.796 933.496 -480.326 915.359 -508.927 892.339C-536.365 870.481 -551.014 846.066 -548.689 825.603C-546.829 807.001 -528.924 775.61 -431.728 774.68C-317.557 773.517 -248.497 887.688 -181.297 998.138C-138.047 1069.76 -92.9369 1143.7 -37.1305 1182.3C36.1154 1232.76 111.686 1239.04 178.422 1244.38C240.971 1249.27 294.917 1253.92 333.284 1292.28C365.14 1324.14 356.769 1344.14 348.863 1353.44C335.144 1369.48 304.218 1376.23 266.317 1371.81C223.764 1366.93 179.352 1348.56 140.752 1320.65C59.833 1261.59 -34.8052 1265.54 -118.282 1269.03C-161.067 1270.89 -201.294 1272.52 -237.336 1266.24C-252.683 1263.45 -264.076 1258.1 -272.215 1249.96ZM-286.166 985.814C-278.958 993.023 -273.145 1001.63 -268.959 1011.86C-254.775 1047.43 -264.541 1092.54 -273.842 1135.79C-282.911 1177.88 -291.514 1217.64 -275.47 1241.59C-267.797 1252.99 -255.24 1259.96 -237.103 1263.22C-201.527 1269.5 -161.3 1267.87 -118.747 1266.24C-34.8052 1262.75 60.2982 1258.8 141.915 1318.56C228.182 1381.57 321.89 1380.41 346.306 1351.81C358.862 1337.39 353.282 1316.93 330.726 1294.38C292.825 1256.47 239.344 1252.29 177.491 1247.17C110.291 1241.83 34.4876 1235.78 -39.2232 1184.86C-95.7271 1146.02 -140.605 1071.85 -184.087 999.998C-250.59 890.246 -319.418 776.773 -431.96 777.703C-501.021 778.401 -542.876 796.073 -546.131 826.301C-548.224 845.601 -534.04 869.086 -507.299 890.246C-479.163 912.801 -439.634 930.938 -396.849 940.704L-395.686 940.937C-352.436 951.168 -311.047 960.934 -286.166 985.814Z" fill="white"/>
</g>
</svg>
