<svg width="751" height="792" viewBox="0 0 751 792" fill="none" xmlns="http://www.w3.org/2000/svg">
<g opacity="0.1">
<path d="M752.521 791.91C738.907 791.91 725.293 790.727 711.384 788.063C632.069 773.266 564.297 719.995 495.932 661.988C410.403 589.481 291.431 636.833 196.135 675.01C148.487 693.951 107.646 710.524 76.2755 711.116C75.9796 711.116 75.3877 711.116 75.0917 711.116C51.7117 711.116 31.2912 698.686 17.6775 675.602C4.95164 653.998 -1.26331 624.699 0.216443 592.736C1.69619 558.702 12.0544 524.372 29.5155 493.297C56.1509 446.537 123.923 368.11 278.705 368.11C278.705 368.11 278.705 368.11 279.001 368.11H297.942C558.97 368.406 828.876 368.702 1020.95 148.516C1061.79 101.756 1109.73 63.282 1159.75 37.2385C1211.83 10.0111 1265.7 -2.4188 1314.53 1.1326C1349.16 3.79614 1381.71 14.1544 1410.71 32.2073C1442.08 51.4441 1469.61 79.8552 1492.99 115.961C1524.06 164.497 1535.6 223.391 1524.95 281.989C1513.41 345.618 1477.01 406.288 1419.89 457.191C1346.79 522.004 1276.35 537.098 1208.58 551.303C1132.52 567.284 1060.31 582.674 986.321 663.764C907.598 749.59 830.651 791.91 752.521 791.91ZM387.023 621.443C430.823 621.443 467.225 634.169 497.412 659.917C565.481 717.627 632.957 770.898 711.68 785.695C803.424 802.86 892.505 762.315 984.249 661.988C1058.83 580.306 1131.34 564.917 1207.99 548.936C1275.46 534.73 1345.6 519.932 1418.11 455.415C1545.67 342.363 1546.55 204.154 1490.92 117.441C1446.52 48.1886 1385.26 8.82729 1314.23 3.50019C1218.94 -3.30665 1107.07 52.6279 1022.13 149.995C976.555 202.378 923.284 245.291 863.502 277.846C809.935 307.145 751.041 328.453 683.269 343.251C558.082 370.774 425.496 370.774 297.35 370.478H278.409C278.409 370.478 278.409 370.478 278.113 370.478C124.811 370.478 57.6307 448.313 31.2912 494.481C-2.74306 554.559 -7.7742 628.25 19.4532 674.122C33.0669 696.911 52.5995 708.748 75.9796 708.453C106.758 707.861 147.895 691.583 194.951 672.643C242.895 653.406 297.35 631.506 350.029 624.107C362.755 622.331 375.185 621.443 387.023 621.443Z" fill="white"/>
<path d="M762.583 784.216C748.081 784.216 733.58 782.736 718.783 779.776C638.876 763.203 566.96 703.125 509.25 654.59C426.384 584.746 311.26 630.914 218.627 667.907C173.051 686.256 133.69 701.942 103.207 703.125C78.6431 704.309 57.3347 692.175 43.1292 669.387C15.9018 626.179 18.8613 555.742 49.936 498.032C74.7958 452.456 138.721 375.213 289.951 372.254C309.484 371.958 329.609 371.366 348.845 371.07C590.932 367.222 841.306 363.079 1020.95 163.313C1063.27 117.145 1111.8 79.2633 1161.23 53.8117C1214.2 26.5843 1267.47 14.1544 1315.71 17.7058C1348.56 20.0734 1379.05 29.8397 1406.87 46.7089C1436.46 64.7618 1463.1 90.8054 1485.59 124.544C1517.55 170.416 1529.09 227.534 1517.85 285.54C1505.71 347.986 1468.72 406.88 1411.01 456.007C1338.8 517.861 1270.14 533.842 1203.84 549.232C1128.67 566.693 1057.94 583.266 984.841 662.284C910.558 743.967 837.162 784.216 762.583 784.216ZM404.484 615.524C446.509 615.524 481.727 627.658 511.026 652.518C631.773 753.733 782.116 879.512 983.362 660.805C1057.05 581.194 1128.38 564.621 1203.84 546.864C1269.84 531.475 1338.21 515.493 1409.83 454.232C1521.99 359.232 1552.47 224.279 1484.11 126.023C1440.6 60.9144 1384.08 25.4005 1316.01 20.3693C1221.9 13.2665 1112.4 67.4253 1023.02 165.089C979.81 213.033 931.274 251.21 875.044 281.693C825.324 308.624 770.278 328.749 707.536 342.955C591.524 369.59 468.113 371.662 349.141 373.437C329.609 373.733 309.78 374.029 290.247 374.621C140.201 377.285 76.8674 453.64 52.3036 498.92C21.5248 555.742 18.8613 624.995 45.4968 667.612C59.4064 689.808 80.1229 701.35 103.503 700.166C133.394 699.278 172.755 683.593 218.035 665.244C264.5 646.599 317.179 625.291 368.082 617.892C380.808 616.412 392.942 615.524 404.484 615.524Z" fill="white"/>
<path d="M772.941 776.225C758.736 776.225 744.234 774.745 729.733 771.49C654.857 755.509 587.677 699.87 528.191 650.742L523.16 646.599C442.661 579.418 331.384 624.107 242.007 660.213C198.207 677.97 160.621 693.063 131.322 694.543C106.166 696.319 84.2662 685.073 69.1727 662.58C56.7428 643.64 49.6401 617.892 49.6401 590.073C49.6401 560.182 57.0388 529.995 71.2444 502.176C94.0325 457.783 154.406 382.02 302.085 376.397C332.864 374.917 364.827 374.029 395.605 373.141C620.527 366.335 853.44 359.528 1021.84 178.407C1065.64 132.83 1114.47 95.5406 1163.89 70.3848C1217.75 42.8615 1269.54 30.7276 1317.78 34.5749C1382.3 39.6061 1436.46 72.7524 1478.78 133.422C1511.63 176.927 1523.17 232.269 1511.34 289.388C1498.61 350.649 1461.02 407.768 1402.72 455.12C1331.69 513.718 1264.81 530.883 1200.29 547.456C1126.31 566.397 1056.46 584.154 984.249 661.692C913.221 738.639 843.673 776.225 772.941 776.225ZM422.241 609.605C462.786 609.605 496.524 621.443 524.935 645.119L529.967 649.263C592.116 700.462 656.337 753.437 730.62 769.418C815.558 787.471 897.832 751.957 983.066 660.213C1055.57 582.378 1126.01 564.325 1200.29 545.384C1264.51 528.811 1331.1 511.942 1401.83 453.64C1530.57 349.17 1537.38 214.216 1477.6 135.198C1435.57 75.12 1382.01 42.2696 1318.38 37.5344C1226.93 30.4316 1117.13 83.9985 1024.5 180.774C948.735 262.16 852.552 315.727 730.325 344.138C622.303 369.294 507.474 372.845 396.493 376.101C365.714 376.989 333.752 377.877 302.973 379.356C156.478 384.979 96.992 459.855 74.2039 503.951C46.6806 557.518 45.7927 622.627 71.8363 661.988C86.3378 683.889 107.646 694.839 131.618 693.063C160.621 691.879 197.911 676.49 241.415 659.029C286.4 640.976 337.303 620.259 386.431 612.861C398.861 610.493 410.699 609.605 422.241 609.605Z" fill="white"/>
<path d="M783.004 768.53C769.39 768.53 756.072 767.051 742.458 764.091C671.43 748.998 609.873 698.686 550.091 650.15C545.652 646.599 541.213 643.048 536.773 639.2C458.939 574.683 351.509 618.188 265.091 653.406C223.363 670.275 187.257 685.073 159.141 686.552C133.394 689.216 110.606 678.266 95.2163 656.069C68.8768 618.484 67.9889 558.11 93.1447 506.023C109.422 472.581 135.761 443.578 169.204 422.565C208.565 398.001 257.397 383.796 314.219 380.244C354.764 377.285 397.085 375.805 437.926 374.029C647.755 365.743 864.686 357.456 1023.02 193.204C1068.3 148.22 1118.02 111.226 1166.55 86.6621C1220.71 59.1387 1272.21 47.0048 1319.56 50.8522C1379.93 55.5874 1431.43 86.0702 1471.97 141.709C1500.68 176.927 1513.7 222.799 1508.38 271.335C1500.68 338.219 1460.43 403.328 1394.44 454.232C1324.59 509.87 1259.48 527.923 1196.74 545.384C1123.64 565.805 1054.69 585.042 983.362 660.509C915.885 733.016 850.184 768.53 783.004 768.53ZM439.702 603.686C478.471 603.686 511.026 614.932 538.549 637.425C542.988 640.976 547.428 644.527 551.867 648.375C668.767 743.671 801.352 851.988 981.882 659.029C1053.5 582.97 1123.05 563.733 1196.45 543.017C1258.89 525.556 1323.7 507.503 1393.25 452.16C1458.66 401.553 1498.91 337.332 1506.3 271.039C1511.63 223.391 1498.91 178.111 1470.49 143.484C1429.95 88.7337 1379.34 58.5468 1319.56 53.8117C1230.18 46.7089 1122.75 98.5001 1024.79 195.572C953.767 269.263 863.798 318.391 749.561 345.322C648.642 368.998 541.509 373.141 437.926 377.285C396.789 378.764 354.468 380.54 314.219 383.5C171.571 392.082 115.637 465.182 95.2163 507.799C70.3565 559.294 71.2444 618.484 96.992 655.478C112.085 676.786 133.986 687.44 158.846 684.777C186.665 683.001 222.475 668.499 264.204 651.63C307.708 633.873 356.836 614.045 404.484 606.942C416.914 604.574 428.456 603.686 439.702 603.686Z" fill="white"/>
<path d="M793.658 760.836C710.2 760.836 638.58 702.83 571.991 648.967C565.185 643.344 557.786 637.425 550.979 631.802C475.512 569.948 371.929 612.269 288.767 646.303C249.11 662.58 214.78 676.49 187.553 678.562C161.213 682.113 137.537 671.755 121.26 649.854C95.5123 615.228 93.1447 558.998 115.341 510.166C130.138 477.612 154.702 449.496 186.961 428.484C224.546 403.92 271.602 389.419 326.945 384.684C375.481 379.948 424.904 377.581 476.992 375.213C672.91 366.335 875.636 357.16 1024.5 208.297C1071.85 163.609 1121.87 127.503 1169.51 103.235C1223.97 75.7119 1275.46 63.578 1321.63 67.1294C1378.16 71.5686 1426.4 99.6839 1465.46 150.291C1494.17 182.254 1507.49 225.463 1502.46 271.631C1495.65 337.627 1453.33 403.624 1386.15 453.048C1317.78 505.431 1254.75 524.372 1193.78 543.017C1121.57 564.917 1053.21 585.633 982.77 659.621C912.926 733.904 850.48 760.836 793.658 760.836ZM457.459 598.063C491.197 598.063 523.752 606.942 552.163 630.322C559.266 635.945 566.368 641.864 573.175 647.487C629.998 693.359 688.596 740.711 755.184 754.917C830.651 770.898 904.639 739.231 980.698 658.733C1051.73 584.45 1120.39 563.733 1192.89 541.537C1253.56 523.188 1316.31 503.951 1384.37 452.16C1450.96 403.032 1492.99 337.627 1499.79 272.519C1504.53 226.942 1491.51 184.621 1463.1 152.955C1424.62 102.939 1376.68 75.12 1321.04 70.6808C1203.25 61.2104 1085.46 154.435 1025.68 210.961C958.798 277.846 874.452 322.534 767.91 347.394C673.798 369.59 573.471 374.029 476.4 378.469C424.312 380.836 374.889 382.908 326.353 387.939C187.553 399.481 135.465 470.509 116.821 511.942C94.9204 560.182 97.288 615.228 122.444 649.263C138.129 670.571 160.917 680.337 186.369 677.082C213.3 675.01 249.11 660.509 286.992 644.823C339.967 622.627 400.636 598.063 457.459 598.063Z" fill="white"/>
<path d="M803.128 753.437C790.994 753.437 778.86 752.253 766.726 749.59C703.393 736.272 647.163 690.992 593.004 647.191C583.533 639.792 574.063 631.802 564.593 624.403C491.789 565.213 391.758 606.054 311.556 639.2C275.45 653.998 241.12 668.203 215.076 670.571C187.849 675.01 163.581 665.244 146.416 643.64C134.282 628.25 126.883 608.126 125.107 585.338C123.036 561.661 127.179 536.802 136.945 513.718C150.263 482.347 173.347 455.12 203.83 434.107C239.64 409.839 284.92 394.45 338.487 388.827C394.126 381.724 451.244 379.06 511.618 376.101C695.107 367.222 884.81 358.344 1025.09 223.391C1075.11 178.702 1124.53 143.78 1171.88 119.808C1226.93 91.9892 1277.83 79.8552 1323.11 83.7026C1375.49 87.8459 1421.07 113.298 1458.06 159.17C1486.48 188.469 1500.09 228.718 1495.95 272.814C1489.73 338.515 1446.52 404.216 1377.27 452.456C1310.39 501.288 1249.42 521.412 1190.82 540.649C1119.2 564.325 1051.43 586.521 981.586 658.733C921.508 722.362 862.614 753.437 803.128 753.437ZM475.216 592.144C507.474 592.144 538.549 600.431 566.072 622.627C575.543 630.026 585.309 637.721 594.484 645.415C648.642 688.92 704.281 733.904 767.318 747.222C838.642 762.315 908.19 733.016 980.106 657.253C1050.54 584.45 1118.61 562.253 1190.53 538.577C1249.12 519.341 1309.79 499.512 1376.38 450.68C1445.04 402.736 1487.96 337.923 1493.87 272.814C1498.02 229.606 1484.7 189.949 1456.59 161.241C1419.89 115.961 1374.9 90.8054 1323.11 86.6621C1216.57 78.0795 1103.22 157.394 1026.87 225.758C885.698 361.303 695.698 370.182 511.618 379.06C451.244 382.02 394.126 384.683 338.783 391.786C204.126 406.288 155.886 475.244 139.017 515.197C120.076 560.182 123.627 611.381 148.191 642.752C164.469 663.764 188.145 672.939 214.484 668.795C240.232 666.428 274.266 652.518 310.372 637.721C361.275 616.116 420.169 592.144 475.216 592.144Z" fill="white"/>
<path d="M813.19 746.038C801.648 746.038 789.81 744.854 778.268 742.191C718.487 729.465 665.216 686.552 613.424 644.823C601.882 635.353 589.748 625.883 578.206 617.004C507.77 560.478 411.883 600.135 334.64 632.097C300.31 646.303 267.755 659.621 242.895 662.58C214.78 667.907 189.328 659.029 171.571 637.425C147.008 607.83 141.976 560.478 159.141 516.973C170.979 487.082 192.584 460.151 221.587 439.73C255.621 415.758 299.126 400.073 350.917 392.97C412.179 383.5 476.4 380.244 544.172 376.989C716.119 368.702 894.281 360.416 1026.57 238.484C1213.02 80.7431 1356.26 57.0671 1451.55 168.048C1479.97 194.684 1493.88 232.269 1490.32 273.998C1485 338.515 1439.72 405.104 1369.28 451.568C1304.17 496.848 1245.87 517.565 1189.34 537.69C1118.02 562.845 1050.54 586.817 980.994 657.845C924.172 717.035 868.829 746.038 813.19 746.038ZM492.677 586.225C523.752 586.225 553.347 594.216 579.686 615.228C591.228 624.107 603.362 633.873 614.904 643.048C666.103 684.481 719.374 727.097 778.564 739.823C845.449 754.325 911.15 726.801 978.922 656.365C1049.06 585.042 1116.54 561.07 1188.16 535.618C1244.69 515.493 1302.99 495.073 1367.8 449.792C1437.64 403.624 1482.33 337.923 1487.66 273.998C1491.21 232.861 1477.6 195.868 1449.78 169.824C1355.37 59.7306 1213.61 83.7026 1027.75 240.556C894.577 363.079 716.119 371.662 543.876 379.652C476.104 382.908 412.179 385.867 350.917 395.338C255.917 408.064 186.665 452.752 161.213 517.861C144.64 560.478 149.375 606.646 173.347 635.649C190.512 656.365 215.076 664.948 242.303 659.917C267.163 657.253 299.422 643.935 333.456 629.73C382.88 609.605 439.406 586.225 492.677 586.225Z" fill="white"/>
<path d="M823.253 738.935C812.007 738.935 800.465 737.752 788.923 735.088C732.692 722.658 682.085 681.817 633.253 642.456C619.639 631.506 605.434 619.964 591.82 609.605C523.752 555.742 431.711 594.216 357.428 624.995C324.873 638.608 294.391 651.334 270.419 654.294C241.12 660.509 214.78 652.222 196.135 630.914C172.459 603.686 166.244 560.182 180.746 519.933C191.104 491.225 210.933 465.478 238.752 445.057C270.715 421.381 312.443 405.104 362.459 397.113C428.752 384.684 498.892 381.428 573.175 378.173C734.764 371.07 901.975 363.671 1027.16 253.578C1113.88 184.326 1183.13 143.78 1244.39 125.727C1282.57 114.481 1318.08 112.41 1349.75 119.217C1384.97 126.911 1416.63 146.148 1444.16 176.631C1472.57 200.899 1486.48 235.821 1483.52 275.478C1481.44 305.961 1469.31 337.627 1448.89 367.518C1427.29 398.889 1396.8 427.892 1360.11 450.68C1297.36 492.409 1241.73 513.422 1187.57 534.138C1116.24 561.365 1048.77 586.817 979.218 656.957C944.592 692.471 911.446 715.851 878.003 728.281C860.246 735.384 841.898 738.935 823.253 738.935ZM510.434 580.306C540.029 580.306 568.44 587.705 593.596 607.83C607.505 618.188 621.415 629.73 635.029 640.68C683.564 680.041 733.876 720.586 789.81 733.016C852.552 746.926 914.405 721.474 978.33 655.773C1048.17 585.337 1115.95 559.59 1187.57 532.362C1241.43 511.942 1297.36 490.634 1359.51 449.201C1431.43 404.216 1477.01 339.403 1481.74 275.774C1484.7 237.005 1470.79 202.378 1442.97 178.702C1390.59 121.288 1326.07 104.715 1245.57 128.391C1184.31 146.444 1115.65 186.989 1029.23 255.945C903.455 366.631 735.948 374.029 573.767 381.132C499.484 384.388 429.64 387.643 363.347 400.073C271.602 414.87 206.197 459.263 183.705 521.412C169.5 560.774 175.419 603.39 198.503 630.026C216.556 650.742 242.007 658.733 270.419 652.518C294.095 649.559 324.577 636.833 356.836 623.219C404.188 603.094 458.939 580.306 510.434 580.306Z" fill="white"/>
<path d="M833.019 731.833C822.069 731.833 811.119 730.649 799.873 727.985C746.898 715.851 699.25 677.082 653.082 639.496C637.692 626.77 621.415 613.749 605.73 602.207C540.325 551.007 451.836 588.297 380.512 618.188C350.029 630.914 321.026 643.048 298.238 646.599C267.755 653.998 240.232 646.599 220.699 625.291C197.319 600.135 190.512 561.07 202.942 523.188C211.821 495.961 230.465 470.805 256.509 450.976C286.696 427.596 326.353 411.023 374.593 401.849C444.733 386.163 520.496 383.204 600.403 380.244C752.521 374.325 909.67 368.406 1028.05 269.263C1165.37 166.273 1321.34 66.5375 1437.35 185.805C1465.46 207.706 1479.97 240.26 1477.6 277.846C1473.75 340.883 1425.81 406.88 1352.11 450.384C1292.63 487.97 1239.95 509.574 1188.75 530.291C1116.83 559.59 1048.77 587.113 978.626 656.661C946.072 689.808 914.997 711.412 883.627 722.954C866.757 728.577 849.888 731.833 833.019 731.833ZM527.895 574.091C558.674 574.091 585.013 582.674 607.209 600.135C622.895 611.677 639.172 624.699 654.561 637.425C747.194 712.892 843.081 791.023 977.443 654.59C1047.88 584.746 1115.95 556.926 1188.16 527.627C1239.06 506.911 1291.74 485.602 1351.23 448.017C1424.03 405.104 1471.68 339.699 1475.53 277.55C1477.89 240.852 1463.69 208.593 1436.16 187.581C1321.63 69.497 1166.55 168.936 1030.12 271.039C911.15 370.774 753.409 376.693 600.994 382.612C521.088 385.571 445.621 388.531 375.481 404.216C286.992 421.085 225.434 464.886 205.902 524.076C193.768 561.07 200.278 599.247 223.067 623.811C242.007 644.231 268.643 651.63 298.238 644.231C321.026 640.976 349.437 628.842 379.92 616.116C415.73 601.023 456.571 583.858 495.932 577.347C506.882 574.979 517.537 574.091 527.895 574.091Z" fill="white"/>
<path d="M842.194 724.73C779.156 724.73 724.997 680.041 671.726 635.945C654.561 621.739 636.804 607.238 619.343 594.512C556.306 545.976 471.664 582.082 403.596 610.789C374.889 622.923 347.957 634.465 326.353 638.017C294.982 646.599 265.683 639.496 245.263 618.78C222.771 595.992 215.372 559.886 225.434 525.26C233.129 499.512 249.998 475.244 274.562 455.415C302.973 432.627 340.559 415.758 386.727 405.4C460.122 386.459 540.621 384.092 625.854 381.428C769.094 376.989 917.069 372.55 1029.23 283.469C1094.93 237.3 1169.51 184.917 1239.95 160.65C1316.9 134.014 1379.34 144.964 1430.54 193.796C1458.66 213.329 1473.16 243.811 1471.38 279.325C1469.9 308.624 1457.77 339.699 1436.46 368.998C1413.97 400.073 1381.71 427.596 1343.83 448.609C1288.49 482.347 1239.65 503.655 1192.3 524.076C1115.65 557.222 1049.36 585.929 978.034 655.478C927.723 705.789 883.331 724.73 842.194 724.73ZM545.356 568.172C574.655 568.172 599.515 576.163 620.823 592.736C638.58 605.462 656.337 619.964 673.502 634.169C716.711 669.979 761.695 706.677 810.527 718.515C865.574 731.537 919.732 710.524 976.259 653.702C1047.88 583.858 1114.47 555.151 1191.12 521.708C1238.47 501.288 1287.3 479.979 1342.35 447.129C1416.04 406.288 1465.76 340.291 1468.72 279.621C1470.49 244.699 1456.29 215.104 1428.77 196.163C1428.77 196.163 1428.77 196.163 1428.47 196.163C1313.94 86.3661 1163.3 192.612 1030.12 286.132C917.365 375.805 769.094 380.244 625.558 384.388C540.325 387.051 460.122 389.419 386.727 408.359C302.085 427.596 243.783 470.509 227.21 526.443C217.148 560.478 224.546 595.4 246.447 617.596C265.979 637.721 294.686 644.527 325.169 635.945C346.478 632.393 373.409 620.851 401.82 608.718C436.15 594.216 475.216 577.643 512.801 571.132C524.639 569.06 535.294 568.172 545.356 568.172Z" fill="white"/>
<path d="M851.664 717.923C791.882 717.923 740.683 675.01 690.371 632.689C671.727 617.004 652.49 600.727 633.253 587.409C572.583 541.537 491.789 576.163 426.384 604.278C399.749 615.82 374.593 626.474 354.172 630.322C321.618 640.088 290.543 633.873 269.235 613.453C247.334 592.44 239.344 560.478 247.926 527.923C261.836 474.356 316.883 431.148 398.861 409.839C474.92 387.347 559.857 385.571 649.53 383.796C784.483 381.132 923.876 378.469 1030.42 298.858C1039 293.235 1047.58 287.612 1055.87 281.989C1123.64 237.005 1187.86 194.684 1249.72 174.263C1283.16 163.313 1312.75 159.466 1340.28 163.313C1371.06 167.456 1398.28 180.478 1424.03 202.97C1452.15 220.431 1466.94 248.547 1465.76 282.581C1464.58 311.288 1452.44 341.771 1430.54 371.07C1407.46 401.849 1374.61 428.484 1335.84 448.905C1286.41 476.724 1242.91 496.553 1200.59 515.789C1120.68 552.487 1051.43 583.858 977.443 654.886C930.682 700.462 889.545 717.923 851.664 717.923ZM563.113 562.253C590.636 562.253 614.312 569.948 634.437 585.042C653.674 598.655 673.206 614.932 691.851 630.618C732.396 664.652 774.421 699.87 820.293 711.412C871.492 724.138 922.396 704.901 975.371 652.814C1049.65 581.49 1118.91 549.823 1199.11 513.126C1241.13 493.889 1284.93 473.764 1334.06 446.241C1409.83 406.88 1460.43 342.363 1462.5 282.285C1463.69 249.434 1449.48 221.911 1421.96 205.042C1421.96 205.042 1421.96 205.042 1421.66 205.042C1374.02 162.721 1319.56 153.843 1250.01 176.927C1188.45 197.347 1124.53 239.668 1056.76 284.357C1048.17 289.98 1039.89 295.603 1031.31 301.226C924.468 381.428 784.483 384.092 649.234 386.755C559.562 388.531 474.92 390.011 399.157 412.503C318.066 433.515 263.612 476.132 249.998 528.811C241.711 560.478 249.406 591.256 270.715 611.677C291.431 631.506 321.618 637.425 353.285 627.954C373.705 624.107 398.565 613.157 425.2 601.911C458.051 587.705 495.34 571.724 531.446 565.509C542.692 563.437 553.051 562.253 563.113 562.253Z" fill="white"/>
<path d="M860.542 711.116C850.184 711.116 839.826 709.636 829.172 706.973C785.963 695.431 746.306 661.693 708.128 628.842C688.3 611.677 667.583 593.92 646.571 579.714C588.269 536.506 511.026 569.948 448.876 596.879C424.312 607.534 400.932 617.596 381.4 622.035C347.07 633.281 314.515 627.954 292.023 607.534C271.01 588.593 262.724 559.59 269.235 529.995C280.777 479.683 331.976 437.363 410.107 413.983C487.942 387.643 576.727 387.051 670.839 386.459C798.097 385.571 929.795 384.979 1030.71 313.952C1048.77 303.001 1066.52 291.755 1083.98 280.509C1145.54 241.444 1203.55 204.746 1259.19 186.989C1321.63 167.16 1371.65 174.855 1416.34 211.257C1444.45 226.646 1459.54 252.986 1458.66 284.948C1458.06 312.472 1445.34 343.546 1423.14 371.662C1399.47 401.849 1366.02 428.188 1326.66 447.129C1287.3 467.845 1251.79 485.01 1217.46 501.288C1126.9 544.496 1055.57 578.531 975.963 653.11C949.031 679.154 923.58 696.023 897.832 704.605C885.698 709.044 873.268 711.116 860.542 711.116ZM580.574 556.334C606.617 556.334 628.814 563.437 648.051 577.643C669.063 591.848 689.779 609.605 709.608 626.77C747.786 659.325 787.147 693.063 829.764 704.309C877.412 717.035 924.763 699.574 974.187 651.63C1053.8 576.755 1128.97 540.945 1216.27 499.216C1250.6 482.939 1286.12 466.07 1325.48 445.057C1402.13 407.768 1454.51 343.546 1456.29 284.948C1457.18 253.874 1442.38 228.422 1415.15 213.329C1415.15 213.329 1415.15 213.329 1414.86 213.329C1370.76 177.519 1321.63 169.824 1259.78 189.357C1204.73 206.818 1146.73 243.515 1085.17 282.581C1068 293.531 1049.95 304.777 1031.9 315.727C930.682 387.051 798.393 387.939 670.839 388.827C577.023 389.419 488.238 390.011 410.995 416.054C333.752 439.138 283.144 480.867 271.898 530.291C265.387 558.998 273.674 587.113 293.799 605.462C315.699 625.291 347.366 630.322 380.808 619.372C400.045 615.228 423.129 605.166 447.693 594.512C479.063 580.898 514.577 565.509 549.203 558.998C560.745 557.518 570.808 556.334 580.574 556.334Z" fill="white"/>
<path d="M869.421 704.605C859.359 704.605 849 703.125 838.642 700.166C798.393 688.624 761.399 656.069 725.885 624.699C704.873 606.054 682.973 586.817 660.776 572.02C605.138 531.475 531.446 564.029 472.256 589.777C449.468 599.839 428.16 609.309 410.107 613.749C374.297 626.77 339.967 622.331 316.291 602.207C296.462 585.042 287.584 558.998 292.615 531.771C301.493 484.715 349.141 443.282 423.129 418.126C502.147 387.643 598.923 388.531 692.443 389.419C812.599 390.602 937.193 391.786 1032.79 328.749C1059.12 313.952 1084.58 298.266 1109.44 282.877C1165.07 248.547 1217.75 215.992 1267.77 200.603C1323.7 183.142 1369.28 189.357 1410.71 220.135C1438.83 233.749 1454.22 258.017 1453.63 288.204C1452.74 346.21 1397.69 411.319 1319.56 446.537C1298.84 456.895 1279.02 466.366 1260.07 475.54C1148.21 529.699 1067.41 568.468 976.555 652.518C951.399 676.49 927.723 691.879 903.751 699.278C891.321 702.83 880.371 704.605 869.421 704.605ZM598.331 550.415C622.599 550.415 643.611 556.926 661.96 570.244C684.452 585.042 706.353 604.278 727.365 622.923C762.879 654.294 799.577 686.552 839.234 697.798C884.218 710.524 926.835 695.727 973.595 650.742C1064.75 566.397 1145.84 527.331 1257.71 473.172C1276.65 463.998 1296.48 454.528 1317.49 444.169C1395.03 409.247 1449.48 345.026 1450.37 288.204C1450.67 258.905 1435.87 235.525 1408.64 222.207C1408.64 222.207 1408.64 222.207 1408.35 222.207C1318.97 156.21 1222.19 215.992 1110.03 285.244C1085.17 300.634 1059.72 316.319 1033.38 331.117C937.193 394.45 812.599 393.266 691.851 392.082C594.484 391.194 502.147 390.307 423.425 420.493C350.325 445.649 303.269 486.194 294.391 532.362C289.359 558.406 297.942 583.858 317.179 600.431C340.263 620.26 373.705 624.107 408.627 611.677C426.68 607.238 447.988 597.767 470.481 588.001C500.372 574.979 534.406 559.886 567.256 553.671C578.502 551.599 588.565 550.415 598.331 550.415Z" fill="white"/>
<path d="M878.003 698.39C867.941 698.39 857.583 696.91 847.521 693.655C810.231 682.113 775.901 651.038 742.754 620.851C720.854 600.727 698.066 580.306 674.39 564.917C620.823 527.035 553.938 556.926 494.749 583.562C474.032 592.736 454.499 601.615 437.63 606.054C410.699 616.412 384.359 617.892 361.867 610.197C340.855 603.094 325.465 588.593 318.066 569.652C300.901 525.852 330.496 463.406 434.967 422.861C514.873 388.235 614.904 390.898 711.384 393.562C825.028 396.817 942.52 399.777 1033.38 344.434C1067.12 326.973 1099.08 307.441 1129.86 288.5C1231.07 226.646 1318.67 173.375 1403.02 229.31C1431.13 241.148 1446.52 263.64 1446.52 292.347C1446.52 318.687 1433.5 347.986 1410.42 375.509C1385.26 405.104 1350.64 429.372 1310.39 446.241C1162.71 513.718 1074.81 561.957 974.779 652.222C951.399 674.122 929.203 688.032 907.302 694.543C896.944 696.911 887.474 698.39 878.003 698.39ZM616.088 544.496C638.876 544.496 658.705 550.415 675.574 562.549C699.546 577.939 722.334 598.655 744.234 618.78C778.564 650.15 811.119 679.745 848.113 690.992C889.546 703.717 929.203 690.696 972.707 649.854C1073.03 559.294 1161.23 511.054 1308.91 443.282C1397.4 406.288 1443.56 339.107 1443.86 291.459C1443.86 263.936 1429.06 242.332 1401.54 230.79C1401.54 230.79 1401.54 230.79 1401.24 230.79C1318.08 175.743 1231.37 228.718 1130.74 289.98C1099.97 308.92 1068 328.157 1034.26 345.914C943.112 401.849 825.028 398.593 711.088 395.338C614.608 392.674 515.169 390.011 435.559 424.341C332.568 464.294 303.269 525.26 320.138 568.172C327.241 586.521 342.334 600.431 362.459 607.534C384.655 615.228 410.107 613.749 436.742 603.39C453.316 598.951 472.848 590.073 493.565 580.898C521.976 568.172 554.53 553.671 585.901 547.456C596.259 545.68 606.322 544.496 616.088 544.496Z" fill="white"/>
<path d="M886.29 692.175C876.228 692.175 866.165 690.4 855.807 687.144C821.477 675.602 790.994 646.895 759.032 616.708C736.244 595.4 712.863 573.203 688.004 557.518C636.804 522.3 573.175 551.303 516.945 576.755C498.3 585.337 480.543 593.328 465.154 598.063C446.509 605.758 429.048 609.309 413.362 609.309C377.256 609.309 350.325 591.256 340.263 567.58C331.384 546.568 334.936 522.004 350.325 498.624C368.082 471.397 401.524 446.833 446.509 427.004C526.711 387.939 629.702 392.97 729.141 397.705C836.57 402.736 947.848 408.064 1033.97 359.528C1074.51 339.995 1111.8 317.503 1147.61 295.603C1238.47 240.26 1316.9 192.316 1395.62 238.188C1423.73 248.547 1439.72 268.967 1439.72 296.195C1440.01 321.646 1426.99 350.353 1403.02 377.285C1377.27 406.288 1342.05 429.964 1301.21 445.649C1169.22 501.288 1080.14 557.222 973.003 651.63C951.399 671.459 930.978 683.889 910.262 689.512C902.567 690.992 894.281 692.175 886.29 692.175ZM633.549 538.577C654.857 538.577 673.206 544.2 689.188 555.151C714.343 570.836 737.723 593.032 760.511 614.636C823.549 674.122 882.739 730.353 971.524 648.967C1078.95 554.263 1168.03 498.328 1300.32 442.69C1340.87 427.004 1375.79 403.624 1401.24 375.213C1424.62 348.874 1437.35 320.462 1437.35 295.603C1437.05 269.559 1421.96 249.73 1394.73 239.964C1394.73 239.964 1394.73 239.964 1394.44 239.964C1358.92 219.248 1321.63 216.288 1277.24 230.79C1236.99 243.811 1194.08 269.855 1149.09 297.378C1113.28 319.279 1075.99 342.067 1035.15 361.303C948.439 410.135 836.866 404.808 729.141 399.777C629.997 395.042 527.303 390.307 447.692 428.78C403.004 448.313 370.154 472.877 352.693 499.512C337.599 522.3 334.048 545.976 342.926 566.101C357.132 598.951 404.484 620.555 464.562 595.4C479.951 590.665 497.412 582.674 516.057 574.387C543.284 561.957 573.767 548.048 603.658 542.129C614.312 539.761 624.079 538.577 633.549 538.577Z" fill="white"/>
<path d="M894.577 686.256C884.514 686.256 874.452 684.481 864.094 680.633C832.427 669.091 804.608 641.272 775.013 611.973C751.929 588.889 727.957 565.213 701.913 549.528C653.082 516.973 592.708 545.088 539.437 569.652C522.864 577.347 507.178 584.746 492.973 589.481C464.858 601.911 435.854 606.054 411.291 600.431C388.503 595.4 370.746 582.378 362.459 564.917C347.07 532.362 363.051 477.612 458.347 430.556C538.549 387.051 643.907 394.45 746.01 401.553C847.817 408.655 952.879 415.758 1034.56 374.029C1081.62 353.609 1123.05 327.861 1163 303.297C1203.84 278.142 1242.32 254.17 1279.02 241.74C1319.86 227.83 1354.78 229.31 1388.22 246.179C1416.63 254.762 1432.61 273.702 1433.21 299.45C1433.8 323.718 1420.18 352.425 1396.21 378.469C1370.17 406.584 1333.47 429.668 1292.63 443.873C1156.2 496.257 1073.63 562.253 972.115 649.854C945.184 674.418 919.732 686.256 894.577 686.256ZM651.306 532.658C670.839 532.658 688.004 537.69 703.097 547.752C729.437 563.437 753.409 587.409 776.789 610.493C834.499 667.612 888.954 721.77 970.932 648.079C1072.74 560.478 1155.31 494.481 1292.33 441.802C1332.88 427.596 1369.28 404.512 1395.03 376.989C1418.7 351.537 1432.02 323.422 1431.43 299.746C1430.84 275.182 1415.45 257.129 1388.22 248.843C1388.22 248.843 1388.22 248.843 1387.92 248.843C1315.71 212.441 1245.87 255.649 1164.78 305.665C1124.83 330.525 1083.39 355.976 1036.04 376.693C953.767 419.014 848.113 411.615 746.306 404.512C644.499 397.409 539.437 390.307 459.826 433.219C366.01 479.683 350.029 532.954 365.122 564.325C373.113 581.194 390.278 593.624 412.178 598.359C436.15 603.686 464.562 599.839 492.381 587.409C506.586 582.674 521.976 575.275 538.549 567.876C564.297 556.038 593.3 542.425 621.711 536.21C632.069 533.842 641.836 532.658 651.306 532.658Z" fill="white"/>
<path d="M902.271 680.633C892.209 680.633 882.147 678.562 872.084 674.418C843.081 662.58 817.63 635.945 790.698 607.83C767.318 583.266 743.05 558.11 715.823 542.425C669.063 512.534 611.945 539.761 561.633 563.733C547.132 570.54 533.518 577.051 521.088 581.786C497.116 593.032 474.624 598.063 454.499 598.063C421.057 598.063 395.309 584.45 384.951 564.029C376.073 546.864 378.144 525.852 390.574 504.839C404.78 480.867 432.599 456.599 471.073 435.291C550.683 387.347 658.705 397.409 762.879 407.176C859.063 416.054 958.502 425.525 1036.34 389.715C1089.61 368.998 1136.07 339.403 1177.21 313.064C1213.91 289.684 1248.24 267.783 1281.68 255.649C1318.67 242.036 1350.64 242.036 1382.01 255.353C1410.71 262.456 1426.69 279.621 1427.58 304.185C1428.47 327.565 1414.56 355.68 1390 380.836C1363.36 408.359 1326.07 430.556 1284.93 443.577C1164.19 485.602 1088.42 550.415 1008.22 618.78C996.383 628.842 984.249 639.2 972.115 649.559C947.256 670.275 924.763 680.633 902.271 680.633ZM668.767 526.739C685.34 526.739 701.617 530.587 716.711 540.353C744.234 556.038 768.502 581.49 792.178 606.054C844.857 661.101 894.577 712.892 970.044 647.191C982.178 636.833 994.312 626.474 1006.15 616.412C1086.65 547.752 1162.71 482.939 1283.75 440.618C1324.59 427.596 1361.59 405.696 1387.92 378.469C1412.19 353.609 1425.51 326.381 1424.92 303.593C1424.03 280.509 1408.64 263.936 1381.12 257.129C1381.12 257.129 1381.12 257.129 1380.82 257.129C1313.64 228.422 1250.9 268.375 1178.1 314.543C1136.96 340.883 1090.2 370.478 1036.93 391.194C958.798 427.3 858.767 418.126 762.287 408.951C658.409 399.185 550.683 389.123 471.96 436.771C434.079 458.079 406.555 481.755 392.35 505.431C380.216 525.852 378.44 545.976 386.727 562.253C403.004 593.92 457.163 608.717 519.608 579.122C532.038 574.387 545.652 567.876 560.153 561.07C595.075 544.792 632.957 526.739 668.767 526.739Z" fill="white"/>
<path d="M909.078 675.306C869.717 675.306 838.05 640.088 804.904 603.39C781.524 577.347 756.96 550.415 728.845 535.026C684.156 507.799 630.294 534.138 582.646 557.518C570.512 563.437 558.97 569.06 548.315 573.499C518.424 588.593 487.054 595.4 460.122 592.44C434.967 589.777 415.138 578.827 405.964 562.549C397.085 546.864 398.269 527.923 409.515 507.503C422.241 484.419 446.805 461.334 482.319 439.138C517.537 415.462 562.225 403.032 619.047 400.961C669.359 399.185 724.405 405.696 777.676 412.207C868.829 423.157 962.941 434.403 1036.93 404.216C1095.82 383.796 1144.95 351.241 1188.45 322.534C1254.16 279.325 1310.68 241.74 1374.61 263.64C1403.31 269.263 1419.89 284.948 1420.78 308.033C1421.66 330.525 1407.75 357.752 1382.6 382.316C1355.37 408.951 1317.49 430.26 1275.76 442.098C1168.03 475.54 1097.3 537.69 1028.94 597.767C1010 614.341 990.464 631.802 970.34 648.079C947.848 667.316 927.723 675.306 909.078 675.306ZM686.524 520.82C701.617 520.82 716.415 524.372 730.325 532.658C758.736 548.344 783.299 575.275 806.975 601.615C831.243 628.546 854.327 654.294 880.371 666.132C909.374 679.154 937.489 672.939 969.156 646.303C989.281 630.026 1008.81 612.861 1027.75 595.992C1096.41 535.618 1167.15 473.468 1275.46 439.73C1316.6 428.188 1354.19 407.176 1381.12 380.54C1405.68 356.272 1419.59 329.933 1418.41 308.033C1417.52 286.132 1401.83 271.039 1374.02 265.712C1374.02 265.712 1374.02 265.712 1373.72 265.712C1310.98 244.107 1254.75 281.397 1189.64 324.31C1146.13 353.017 1096.71 385.571 1037.52 406.288C963.237 436.771 868.533 425.525 777.085 414.574C671.135 401.849 561.337 388.827 483.502 441.21C405.372 490.338 393.238 535.618 408.035 561.365C416.914 577.051 435.855 587.409 460.418 590.073C487.054 592.736 517.833 586.225 547.428 571.428C558.378 566.989 569.624 561.365 581.758 555.447C615.496 538.873 651.898 520.82 686.524 520.82Z" fill="white"/>
<path d="M916.181 669.979C879.187 669.979 849.888 635.057 819.405 598.951C796.025 571.132 772.053 542.425 743.05 527.331C700.138 502.767 649.234 528.515 604.546 551.599C594.78 556.63 585.605 561.366 576.727 565.213C545.948 581.786 513.393 590.073 484.982 588.593C458.347 587.409 437.63 577.643 427.864 561.661C418.985 547.456 419.577 529.699 429.64 510.462C440.886 488.562 462.786 466.07 495.044 442.986C529.671 416.942 574.655 403.92 631.773 402.736C682.677 401.553 738.611 409.839 792.77 417.83C878.891 430.556 968.268 443.873 1038.41 418.718C1102.93 398.889 1153.83 363.671 1198.52 332.596C1257.41 291.755 1308.31 256.537 1368.1 271.927C1397.1 276.07 1413.67 290.276 1414.86 312.176C1416.04 333.78 1401.83 360.12 1376.09 384.092C1347.97 410.135 1309.5 430.26 1267.77 440.914C1167.74 468.141 1102.33 528.219 1039.3 585.929C1015.92 607.534 993.72 627.954 969.748 646.599C949.919 663.468 932.458 669.979 916.181 669.979ZM704.281 514.901C717.895 514.901 731.212 517.861 743.938 525.26C773.237 540.649 797.505 569.356 821.181 597.471C843.377 623.515 864.094 648.375 887.474 660.213C913.517 673.53 939.265 668.795 967.972 645.415C991.648 626.77 1013.84 606.35 1037.22 584.746C1100.56 526.739 1165.96 466.366 1266.59 439.138C1354.78 416.942 1413.97 354.793 1411.6 313.064C1410.42 292.347 1394.73 279.029 1366.91 274.886C1308.31 259.497 1257.71 294.715 1199.4 335.26C1154.42 366.631 1103.22 401.849 1038.41 421.677C967.676 446.833 878.299 433.515 791.586 420.789C683.86 404.808 572.287 388.235 495.636 445.353C463.674 468.141 441.773 490.338 430.823 511.942C421.353 530.587 420.761 547.456 429.048 560.774C447.101 589.777 507.77 598.951 574.951 563.437C583.829 559.294 593.004 554.559 602.77 549.823C635.325 532.954 670.839 514.901 704.281 514.901Z" fill="white"/>
<path d="M922.988 665.244C912.925 665.244 903.455 662.284 893.393 656.661C871.789 644.231 853.144 620.26 833.315 594.512C810.231 564.917 786.555 534.434 756.96 519.933C715.823 497.736 667.583 523.78 624.966 546.568C617.864 550.415 611.057 553.967 604.546 557.222C569.624 577.051 535.886 585.337 508.362 585.337C479.951 585.337 458.347 576.459 448.284 561.661C439.702 548.936 439.702 532.362 448.284 513.718C457.755 493.001 477.583 470.805 506.882 447.425C582.646 384.683 696.586 404.808 806.384 424.637C888.066 439.138 972.411 454.232 1039 434.403C1108.55 416.054 1160.34 377.877 1206.21 344.138C1259.19 305.073 1304.76 271.631 1360.7 281.397C1390 284.061 1406.87 297.082 1408.05 317.799C1409.23 338.219 1394.44 364.263 1368.69 387.347C1339.98 412.799 1300.92 431.74 1258.89 440.914C1163.59 463.11 1102.63 522.3 1043.44 579.714C1018.28 603.982 994.312 627.066 968.564 646.599C952.583 659.029 937.489 665.244 922.988 665.244ZM722.038 508.982C734.172 508.982 746.306 511.646 757.552 517.565C787.739 532.362 811.711 563.141 834.795 593.032C854.623 618.484 873.268 642.456 894.281 654.59C917.661 668.203 940.745 664.948 967.084 644.527C992.832 624.995 1016.51 601.911 1041.66 577.643C1101.15 520.228 1162.41 460.743 1258.3 438.25C1345.6 419.014 1408.05 358.936 1405.39 317.799C1404.2 298.266 1388.22 286.428 1360.11 283.765C1305.35 274.294 1259.78 307.441 1207.4 346.21C1161.52 379.948 1109.14 418.422 1039.3 437.067C972.115 457.191 887.474 442.098 805.496 427.596C695.994 408.064 582.942 387.939 507.77 450.088C453.612 493.297 432.007 534.73 449.764 561.07C468.705 589.185 532.63 595.4 602.474 555.742C609.281 552.191 615.792 548.64 622.895 545.088C654.857 527.627 689.484 508.982 722.038 508.982Z" fill="white"/>
<path d="M928.907 660.509C926.539 660.509 924.172 660.213 921.804 659.917C892.801 655.478 870.309 623.811 846.337 590.369C824.141 558.998 800.761 526.739 770.574 512.534C730.621 493.001 686.524 518.157 643.907 542.425C640.06 544.792 635.917 546.864 632.069 549.232C599.219 568.764 563.705 580.602 532.63 582.378C503.035 584.154 479.655 576.755 468.705 561.957C450.356 537.098 468.705 496.848 518.72 451.864C592.708 383.796 708.128 408.064 819.405 431.74C896.648 448.017 976.555 464.886 1039.89 449.496C1114.17 432.923 1166.55 391.786 1212.43 355.384C1260.07 317.799 1301.21 285.54 1353.59 289.98C1383.19 291.459 1400.35 303.001 1401.83 322.534C1403.31 342.067 1388.22 367.222 1361.59 389.419C1331.99 413.982 1292.63 432.035 1250.6 440.026C1158.86 458.079 1100.85 517.269 1044.92 574.683C1018.88 601.319 994.312 626.474 967.676 645.711C954.063 655.478 941.337 660.509 928.907 660.509ZM739.795 503.063C750.449 503.063 761.103 505.135 771.462 510.166C802.536 524.668 825.916 557.222 848.408 588.889C872.084 622.035 894.281 653.11 922.1 657.549C936.01 659.621 950.511 655.182 966.492 643.344C993.128 624.107 1017.4 598.951 1043.44 572.612C1097.01 517.565 1157.97 455.415 1250.31 437.363C1292.04 429.668 1331.1 411.911 1360.4 387.347C1386.45 365.743 1400.95 341.475 1399.76 322.534C1398.58 304.185 1382.3 293.531 1353.89 292.347C1302.4 287.908 1261.85 319.871 1214.5 357.16C1168.03 393.562 1115.65 434.995 1040.78 451.864C1023.02 456.303 1004.08 458.079 983.953 458.079C932.458 458.079 875.044 445.945 819.109 434.107C708.128 410.727 593.596 386.755 520.496 453.64C471.368 497.736 453.316 536.802 470.777 560.478C481.135 574.683 503.627 581.786 532.63 580.01C563.409 578.235 598.331 566.397 631.181 547.16C635.029 545.088 639.172 542.721 643.019 540.353C674.982 522.004 707.832 503.063 739.795 503.063Z" fill="white"/>
<path d="M934.53 656.365C931.866 656.365 929.203 656.069 926.539 655.478C900.2 650.15 880.075 619.076 858.767 585.929C837.162 552.487 814.966 518.157 784.187 504.839C745.122 487.97 703.985 513.422 660.776 540.353L659.888 540.945C625.854 562.253 589.156 575.867 556.306 579.418C524.935 582.97 500.076 576.755 488.534 562.253C477.879 549.232 469.297 517.861 530.558 455.415C602.474 382.02 719.078 410.727 832.131 438.25C905.231 456.303 980.994 474.652 1041.07 463.702C1119.79 449.201 1171.88 405.104 1217.75 366.039C1260.67 329.341 1297.96 297.97 1346.79 297.97C1387.33 297.97 1394.73 316.023 1395.62 326.973C1397.1 345.914 1381.71 369.886 1354.78 391.194C1324.59 415.166 1284.64 431.74 1242.32 438.546C1153.24 452.456 1095.53 515.197 1044.62 570.54C1018.58 598.951 994.016 625.587 967.084 644.527C955.542 652.518 944.888 656.365 934.53 656.365ZM757.552 497.144C766.726 497.144 775.901 498.92 785.075 502.767C816.742 516.381 839.234 551.303 860.838 584.746C881.851 617.3 901.679 648.079 927.131 653.11C939.265 655.478 951.695 651.926 965.309 642.456C991.944 623.811 1016.51 597.175 1042.55 569.06C1093.75 513.422 1151.76 450.384 1241.73 436.475C1336.73 421.677 1395.62 361.303 1392.96 327.565C1391.77 310.4 1375.2 300.93 1346.49 300.93C1298.25 300.93 1261.55 332.3 1218.94 368.406C1172.77 407.768 1120.68 452.16 1041.37 466.662C980.698 477.908 904.935 459.263 831.539 441.21C719.374 413.687 603.362 385.275 532.334 457.487C488.83 501.88 473.44 539.761 490.605 561.07C501.555 574.683 525.527 580.602 556.01 577.051C588.269 573.499 624.966 559.886 658.409 538.873L659.297 538.281C693.331 517.269 725.885 497.144 757.552 497.144Z" fill="white"/>
</g>
</svg>
