<svg width="774" height="1146" viewBox="0 0 774 1146" fill="none" xmlns="http://www.w3.org/2000/svg">
<g opacity="0.1">
<path d="M-126.367 901.439C-137.799 897.167 -148.86 891.901 -159.704 885.3C-221.664 847.985 -261.859 781.985 -301.065 711.823C-350.134 624.097 -464.898 626.528 -556.901 628.683C-602.856 629.637 -642.352 630.738 -668.881 621.391C-669.129 621.299 -669.626 621.113 -669.875 621.02C-689.508 613.683 -702.755 596.838 -706.943 573.181C-710.85 551.046 -706.875 524.493 -695.603 498.117C-683.681 470.002 -664.21 444.424 -639.796 423.808C-602.757 392.9 -521.236 348.31 -391.26 396.879C-391.26 396.879 -391.26 396.879 -391.012 396.972L-375.107 402.916C-156.006 485.073 70.5508 570.017 300.933 445.39C349.902 418.939 402.235 401.676 452.407 395.501C504.69 388.982 553.821 395.446 593.712 413.751C621.953 426.854 646.039 445.767 664.729 470.028C685.036 496.026 699.233 528.52 707.536 566.176C718.401 616.684 709.612 669.761 682.278 715.625C652.619 765.435 603.013 804.958 539.076 829.78C457.354 861.267 393.47 851.84 332.102 842.502C263.217 832.055 197.75 822.318 110.174 867.196C17.1365 914.563 -60.7584 925.956 -126.367 901.439ZM-379.797 643.601C-343.016 657.345 -316.441 679.454 -299.172 710.548C-260.122 780.369 -220.175 846.276 -158.713 883.405C-87.0582 926.607 0.468875 920.514 108.992 865.054C197.25 819.866 262.966 829.695 332.347 840.328C393.467 849.573 457.01 859.156 538.142 827.732C680.729 772.823 724.844 657.044 705.332 566.768C689.785 494.685 650.693 442.408 592.72 415.647C514.833 380.028 403.341 391.894 301.463 447.004C246.753 476.69 188.554 496.009 128.138 504.587C73.962 512.381 17.8203 511.794 -43.7339 502.953C-157.494 486.783 -268.831 445.178 -376.347 404.718L-392.252 398.775C-392.252 398.775 -392.252 398.775 -392.5 398.682C-521.233 350.576 -602.071 394.856 -638.677 425.36C-686.108 465.129 -713.457 525.432 -704.988 572.496C-700.707 595.904 -688.019 611.974 -668.293 619.062C-642.262 628.223 -602.61 627.463 -557.152 626.324C-510.855 625.215 -458.256 623.912 -411.698 634.229C-400.454 636.731 -389.738 639.886 -379.797 643.601Z" fill="white"/>
<path d="M-115.503 898.135C-127.681 893.585 -139.394 887.791 -150.891 880.663C-212.791 841.672 -254.329 768.656 -287.56 709.789C-335.228 625.136 -446.389 627.78 -535.784 629.777C-579.814 630.884 -617.789 631.704 -643.758 623.132C-664.757 616.418 -678.842 599.543 -683.62 575.949C-692.926 531.122 -668.338 472.903 -624.134 434.193C-588.957 403.722 -511.039 358.917 -383.117 403.887C-366.622 409.768 -349.537 415.586 -333.29 421.374C-128.794 494.109 82.7531 569.195 296.29 457.815C346.315 432.327 398.959 415.746 448.449 409.883C501.477 403.642 550.111 409.92 589.505 428.04C616.348 440.336 638.881 458.103 656.948 480.998C676.135 505.444 690.33 535.672 698.63 571.061C711.076 619.611 702.845 671.197 675.199 716.378C645.415 765.008 595.869 802.855 531.992 826C451.944 855.281 389.273 847.156 328.775 839.276C260.172 830.351 195.576 822.072 109.396 865.489C21.3862 910.77 -52.8764 921.538 -115.503 898.135ZM-363.277 644.11C-327.987 657.297 -302.221 678.537 -285.418 708.607C-215.783 831.49 -129.004 984.288 108.618 863.782C195.48 820.054 260.574 828.518 329.518 837.288C389.767 845.075 452.19 853.107 531.555 824.137C655.554 779.56 723.499 675.8 696.923 571.84C680.822 503.514 644.499 455.954 588.918 430.37C512.118 394.873 403.171 405.991 297.472 459.957C246.144 486.658 193.407 503.487 136.623 511.439C86.4206 518.453 33.8812 518.079 -23.2625 510.32C-129.04 496.283 -233.323 459.297 -333.784 423.455C-350.28 417.574 -367.023 411.601 -383.611 405.968C-510.446 361.121 -587.589 405.366 -622.425 435.681C-666.101 473.739 -690.069 531.056 -681.075 575.201C-676.36 598.205 -662.585 614.398 -642.581 620.74C-617.202 629.374 -579.227 628.554 -535.446 627.355C-490.577 626.278 -439.655 624.915 -394.588 634.675C-383.437 637.426 -372.969 640.488 -363.277 644.11Z" fill="white"/>
<path d="M-104.298 894.675C-116.227 890.218 -127.94 884.425 -139.095 877.141C-196.956 840.225 -235.911 772.423 -270.447 712.502L-273.372 707.444C-319.888 625.77 -427.354 628.379 -513.737 630.652C-556.09 631.819 -592.388 632.699 -617.456 624.748C-639.137 618.345 -653.998 602.029 -659.615 578.406C-664.109 558.6 -661.994 534.75 -653.265 511.389C-643.885 486.289 -628.2 463.261 -607.541 444.358C-574.475 414.231 -500.003 369.555 -374.228 411.174C-347.917 419.59 -320.799 428.874 -294.674 437.787C-103.664 502.65 94.0567 570.021 292.299 470.769C343.381 446.241 396.088 430.251 445.485 424.635C499.352 418.425 546.65 424.488 585.952 442.856C638.55 467.326 673.628 512.154 690.128 576.381C704.062 623.221 696.388 673.316 668.524 717.566C638.614 765.016 589.129 801.186 525.312 822.654C447.28 849.573 385.728 842.999 326.35 836.671C258.277 829.359 194.055 822.354 109.085 864.806C25.2946 907.133 -44.9016 916.871 -104.298 894.675ZM-346.508 644.711C-312.461 657.434 -287.845 677.962 -271.416 706.759L-268.492 711.817C-232.369 774.313 -195.063 838.95 -137.7 875.679C-72.0398 917.492 8.19251 913.487 108.555 863.192C193.866 820.584 258.679 827.527 327 834.931C386.13 841.166 447.34 847.896 525.031 821.133C665.919 773.803 713.982 662.614 688.577 577.501C672.139 513.864 637.466 469.469 585.52 445.527C510.956 410.866 401.947 421.394 293.793 473.592C204.633 518.161 107.056 532.961 -4.49799 518.465C-103.101 505.692 -200.641 472.642 -294.857 440.55C-320.982 431.638 -348.1 422.354 -374.411 413.938C-499.192 372.691 -572.64 416.9 -605.613 446.778C-645.534 483.123 -666.711 537.519 -657.192 578.744C-651.887 601.685 -637.43 617.567 -616.743 623.598C-592.016 631.705 -555.874 630.483 -513.862 629.472C-470.423 628.428 -421.177 627.005 -377.601 636.208C-366.42 638.12 -356.201 641.09 -346.508 644.711Z" fill="white"/>
<path d="M-93.4334 891.372C-104.865 887.1 -115.584 881.678 -126.088 874.921C-180.996 839.958 -216.9 778.394 -251.871 718.877C-254.484 714.502 -257.098 710.127 -259.618 705.503C-304.734 626.902 -408.598 629.723 -492.216 632.18C-532.551 633.251 -567.514 634.347 -591.587 626.767C-614.044 620.925 -629.744 604.578 -635.702 581.11C-646.026 541.283 -627.827 490.307 -590.358 454.461C-566.195 431.486 -534.976 415.397 -500.3 408.246C-459.539 399.97 -414.076 403.364 -365.246 418.213C-330.27 428.45 -294.267 440.488 -259.414 451.812C-80.6141 510.697 104.151 571.81 288.65 483.566C340.789 460 394.149 444.537 442.614 439.14C496.729 433.022 543.779 438.992 582.335 457.081C631.547 480.003 665.224 521.759 681.812 581.203C694.867 619.785 691.408 662.392 671.704 701.477C644.254 755.228 590.025 797.272 518.632 819.308C442.522 844.113 382.183 838.842 324.018 833.817C256.226 828.026 192.285 822.542 108.711 863.533C29.2957 903.247 -37.0196 912.452 -93.4334 891.372ZM-329.988 645.22C-297.432 657.386 -273.624 677.045 -257.57 704.569C-254.957 708.944 -252.343 713.32 -249.823 717.943C-181.561 834.649 -104.214 967.212 107.932 861.826C191.941 820.431 256.379 826.101 324.513 831.736C382.429 836.668 442.52 841.846 518.288 817.197C589.091 795.224 643.042 753.925 670.057 700.579C689.482 662.239 693.004 620.222 680.012 582.23C663.146 523.531 630.121 482.302 581.406 459.567C508.582 425.556 402.118 435.336 289.398 486.111C206.629 525.704 115.663 538.727 11.2842 525.495C-80.8902 513.709 -172.154 483.57 -260.436 454.546C-295.444 442.88 -331.54 431.091 -366.267 420.946C-488.746 383.391 -558.655 427.224 -589.176 456.602C-626.21 492.044 -644.038 542.026 -634.025 581.171C-628.037 603.8 -612.99 619.619 -591.279 625.183C-567.361 632.422 -532.739 631.481 -492.405 630.41C-450.3 629.15 -402.824 627.916 -360.584 636.903C-349.403 638.815 -339.432 641.691 -329.988 645.22Z" fill="white"/>
<path d="M-82.0722 888.253C-152.155 862.065 -194.094 790.881 -233.109 724.755C-237.061 717.898 -241.416 710.605 -245.368 703.748C-289.331 628.126 -389.592 631.161 -470.106 633.645C-508.515 634.869 -541.708 635.777 -565.222 628.973C-588.455 623.69 -605.086 607.562 -611.882 584.064C-622.638 546.908 -606.981 498.946 -573.019 464.906C-550.378 442.212 -520.928 426.311 -487.246 418.788C-447.976 409.955 -403.911 412.544 -355.952 425.934C-313.709 437.188 -271.464 450.708 -226.981 465.065C-59.6758 519.087 113.439 574.998 285.156 496.705C338.942 474.037 392.272 459.412 439.898 453.985C494.262 447.961 541.312 453.931 578.967 471.4C625.041 492.865 656.727 531.612 673.651 586.367C687.728 622.216 685.353 662.678 666.641 699.869C640.215 753.152 583.968 795.292 512.045 815.714C438.2 838.249 379.322 834.374 322.276 830.9C254.765 826.631 190.856 822.575 108.492 862.602C26.5319 903.064 -34.3566 906.084 -82.0722 888.253ZM-313.313 646.07C-284.982 656.657 -260.431 674.328 -243.909 702.877C-239.709 709.827 -235.602 717.026 -231.651 723.884C-198.329 780.235 -163.981 838.386 -112.522 871.21C-54.1648 908.311 17.9017 904.937 107.031 861.206C189.985 821.116 254.142 825.265 321.995 829.379C378.699 833.008 437.421 836.542 510.832 814.411C582.165 794.052 637.979 752.317 664.125 699.778C682.403 662.992 684.748 623.368 670.827 587.861C654.215 533.789 622.684 495.383 577.355 474.197C481.417 429.283 353.253 470.605 285.314 499.313C208.161 534.49 123.31 545.549 26.0423 532.993C-59.9517 522.1 -145.593 494.345 -228.5 467.613C-272.982 453.256 -315.135 439.487 -357.471 428.482C-477.648 394.619 -543.676 437.919 -572.334 466.861C-605.862 500.497 -621.147 547.465 -610.702 583.938C-604.217 606.754 -588.146 622.106 -565.752 627.358C-542.486 634.07 -507.865 633.129 -471.133 631.845C-419.683 629.829 -361.028 628.24 -313.313 646.07Z" fill="white"/>
<path d="M-71.7979 885.012C-81.9872 881.204 -91.805 876.403 -101.158 870.359C-150.163 839.302 -183.172 783.633 -214.907 729.858C-220.538 720.673 -225.983 710.991 -231.614 701.807C-274.176 629.257 -370.991 632.164 -448.741 634.831C-483.704 635.927 -516.99 637.083 -539.602 630.899C-563.859 626.083 -581.173 610.267 -588.808 586.739C-594.168 570.008 -594.066 550.787 -588.406 531.094C-582.717 510.562 -571.436 490.987 -555.992 474.667C-534.964 452.503 -507.036 436.883 -474.845 428.804C-437.159 419.662 -394.307 420.948 -347.56 433.035C-298.61 444.529 -249.81 460.216 -198.183 476.676C-41.3154 526.798 120.771 578.87 280.917 509.565C336.94 487.733 389.401 473.917 436.686 468.646C491.64 462.558 538.193 468.342 575.009 485.781C617.697 505.698 647.982 541.372 664.652 591.501C679.316 625.02 678.118 663.09 660.802 698.82C634.966 752.041 578.066 793.653 504.775 812.431C433.287 832.448 375.777 830.217 320.534 827.983C252.963 825.391 189.087 822.763 107.777 861.485C37.3608 896.064 -21.8456 903.678 -71.7979 885.012ZM-296.544 646.672C-269.456 656.795 -245.962 673.504 -229.814 700.78C-224.183 709.965 -218.397 719.491 -213.107 728.831C-181.28 782.358 -148.674 837.592 -99.9185 868.556C-44.7617 903.612 22.8342 900.832 106.998 859.778C188.991 820.745 253.116 823.465 320.935 826.151C376.178 828.385 433.347 830.772 504.587 810.661C577.288 791.946 633.661 750.986 659.062 698.17C676.1 663.186 677.361 625.705 662.76 592.777C646.152 543.238 616.271 507.998 574.08 488.267C487.307 447.627 367.235 478.662 281.665 512.11C120.588 581.634 -41.747 529.469 -199.112 479.161C-250.738 462.701 -299.538 447.015 -348.24 435.613C-465.867 405.536 -528.014 448.303 -554.716 476.56C-584.737 508.391 -597.821 552.499 -587.038 586.55C-579.963 609.303 -562.961 624.436 -539.542 629.222C-517.178 635.314 -484.234 634.313 -449.271 633.217C-399.746 631.048 -342.769 629.399 -296.544 646.672Z" fill="white"/>
<path d="M-61.0266 881.956C-70.7188 878.335 -80.2881 873.626 -89.1445 867.767C-135.352 838.322 -166.62 785.57 -197.016 734.277C-203.737 722.703 -210.954 710.943 -217.861 699.866C-259.27 630.296 -352.235 633.508 -427.128 636.11C-460.414 637.266 -491.93 638.234 -513.734 632.919C-539.015 628.57 -557.602 613.127 -565.734 589.414C-577.074 556.854 -566.44 515.512 -538.374 484.366C-519.054 462.98 -492.461 447.144 -461.698 439.097C-425.596 429.647 -384.142 430.127 -338.423 440.414C-284.007 451.685 -229.057 469.104 -171.125 487.637C-24.1349 534.634 128.074 583.582 277.423 522.704C483.489 448.75 611.201 473.816 656.399 596.914C671.899 628.196 671.785 664.122 655.708 698.049C630.99 750.555 572.071 792.263 498.344 809.178C429.461 826.77 374.002 825.872 320.22 825.034C252.433 823.777 188.248 822.733 107.558 860.554C41.2691 892.427 -14.305 899.416 -61.0266 881.956ZM-280.024 647.181C-253.93 656.932 -231.585 672.929 -216.061 698.839C-209.155 709.916 -202.03 721.925 -195.217 733.251C-165.224 784.109 -133.864 836.612 -88.1531 865.872C-36.5383 899.038 27.2696 896.542 106.283 858.661C187.563 820.777 251.748 821.821 319.876 822.922C373.658 823.761 429.024 824.908 497.658 807.222C570.796 790.37 628.939 749.222 653.472 697.213C669.363 663.784 669.539 628.447 654.351 597.848C609.62 475.774 483.057 451.42 277.767 524.815C127.487 585.911 -25.0636 537.119 -172.209 489.781C-230.142 471.248 -284.75 453.674 -339.165 442.403C-422.933 423.278 -495.11 439.074 -536.913 485.762C-564.203 516.348 -574.714 556.603 -563.685 588.48C-555.772 611.262 -537.838 626.177 -513.395 630.496C-491.684 636.06 -460.416 635 -427.379 633.751C-379.561 632.36 -324.758 630.465 -280.024 647.181Z" fill="white"/>
<path d="M-50.3482 879.15C-59.7919 875.621 -69.1126 871.005 -77.969 865.146C-121.287 837.064 -150.968 786.888 -179.623 738.511C-187.618 725.044 -195.925 710.894 -204.107 697.924C-244.364 631.334 -333.727 634.76 -405.763 637.296C-437.372 638.513 -466.963 639.634 -488.022 634.597C-514.575 630.622 -534.093 615.398 -543.063 591.654C-554.401 561.361 -545.968 522.878 -521.161 493.63C-503.455 472.774 -478.725 457.375 -448.956 448.957C-414.686 439.105 -374.538 438.531 -330.03 447.516C-270.462 457.88 -210.541 477.156 -147.141 497.732C-9.22114 542.473 133.514 588.73 273.184 535.564C367.731 504.621 438.607 492.305 495.716 496.368C531.304 498.905 561.776 508.309 586.232 523.962C613.391 541.474 633.946 567.565 647.493 601.799C663.736 631.093 664.458 664.783 649.528 697.156C638.223 722.103 618.097 744.887 591.57 763.58C563.584 783.144 528.885 797.933 490.918 805.553C425.138 820.907 371.823 821.093 319.843 821.494C251.406 821.977 186.757 822.176 106.346 859.251C66.1249 878.208 30.9542 887.439 -1.02891 887.383C-18.1689 887.776 -34.6914 885 -50.3482 879.15ZM-263.256 647.782C-238.404 657.069 -216.868 672.197 -202.059 696.991C-193.629 710.053 -185.57 724.11 -177.574 737.578C-149.169 785.861 -119.643 835.695 -76.5734 863.685C-28.2521 895.053 31.675 893.09 105.972 857.978C186.725 820.747 251.715 820.393 320.4 820.003C372.039 819.757 425.695 819.416 490.886 804.125C565.391 788.917 624.001 748.793 647.944 696.847C662.595 665.22 661.78 631.778 645.849 603.167C619.877 538.517 570.9 504.355 495.874 498.977C438.766 494.913 368.386 507.415 274.181 538.202C133.828 591.68 -9.1558 545.33 -147.573 500.403C-210.973 479.827 -270.645 460.644 -330.214 450.279C-411.898 433.916 -480.751 450.671 -519.14 495.802C-543.421 524.397 -551.823 562.041 -540.797 591.651C-532.138 614.713 -513.272 629.409 -487.464 633.106C-466.654 638.05 -437.063 636.929 -405.703 635.62C-359.625 633.579 -306.498 631.624 -263.256 647.782Z" fill="white"/>
<path d="M-39.9182 876.25C-49.1134 872.814 -57.9372 868.383 -66.5451 862.618C-107.222 835.805 -135.068 788.298 -162.043 742.248C-170.973 726.733 -180.555 710.69 -190.105 696.076C-228.962 632.559 -314.97 636.105 -384.243 638.824C-413.833 639.945 -441.996 641.033 -462.246 636.865C-490.165 633.513 -510.956 618.663 -520.672 594.64C-532.411 566.18 -525.869 531.239 -503.544 503.329C-487.544 483.251 -463.994 467.978 -435.902 459.499C-403.217 449.339 -364.715 447.866 -321.327 455.299C-257.506 464.137 -192.957 485.426 -124.928 508.015C4.66844 550.779 138.489 595.121 269.008 549.014C416.638 505.62 578.904 470.81 638.898 607.367C655.635 634.58 657.597 666.468 643.815 697.287C620.803 749.014 559.834 789.389 484.301 802.798C422.555 815.693 371.539 817.305 322.044 818.635C252.46 820.671 186.664 822.424 105.942 858.817C68.2032 876.435 35.3294 884.826 5.36459 884.674C-10.5655 884.103 -25.7526 881.543 -39.9182 876.25ZM-246.643 648.043C-220.797 657.701 -201.372 673.173 -188.212 694.801C-178.663 709.415 -169.08 725.458 -160.15 740.973C-106.045 833.413 -50.042 929.111 105.597 856.705C186.662 820.157 252.551 818.156 322.383 816.212C371.629 814.789 422.552 813.426 484.299 800.531C558.9 787.341 619.435 747.37 642.168 696.388C655.672 666.315 653.865 634.768 637.347 608.487C578.224 473.388 416.797 508.228 270.19 551.155C138.989 597.573 4.67105 553.046 -125.174 510.189C-193.202 487.6 -257.503 466.404 -321.324 457.566C-400.925 443.964 -466.361 461.429 -501.337 505.003C-523.135 532.261 -529.647 566.363 -518.219 594.141C-508.722 617.232 -488.677 631.803 -461.503 634.877C-441.346 639.294 -413.68 638.02 -384.09 636.899C-349.283 635.461 -309.601 633.863 -274.505 640.747C-264.566 642.195 -255.341 644.792 -246.643 648.043Z" fill="white"/>
<path d="M-29.9853 873.164C-82.9198 853.383 -114.376 798.862 -145.272 745.117C-155.229 727.802 -165.589 710.052 -176.258 693.887C-213.963 633.349 -296.369 637.108 -362.537 639.855C-390.45 641.036 -416.688 642.277 -435.944 638.48C-464.98 635.843 -487.355 620.685 -498.002 596.881C-509.738 570.687 -504.621 538.046 -485.306 512.127C-470.765 492.92 -448.985 477.835 -422.135 468.892C-391.127 458.671 -354.272 456.3 -312.252 462.089C-244.676 469.215 -176.336 492.487 -103.927 516.996C17.7497 558.216 143.402 600.922 265.544 561.314C335.203 543.162 414.267 522.577 481.03 524.301C554.003 526.079 603.004 554.87 630.675 611.941C648.155 637.166 650.767 667.314 638.132 696.579C627.695 720.718 607.755 743.005 580.668 760.922C552.029 779.959 516.304 792.948 477.9 798.706C420.84 809.671 373.148 812.241 326.977 814.53C252.209 818.312 187.533 821.616 105.816 857.637C47.7803 884.098 4.55892 886.073 -29.9853 873.164ZM-230.123 648.552C-205.52 657.745 -187.151 672.256 -174.459 692.86C-163.541 709.118 -153.18 726.868 -143.224 744.183C-118.177 787.812 -91.9175 832.745 -54.6266 858.008C-12.4882 886.217 39.5844 885.567 104.882 855.589C186.94 819.412 251.865 816.201 326.726 812.171C372.897 809.882 420.589 807.311 477.122 796.999C551.819 785.828 614.279 746.01 635.802 695.992C648.252 667.224 645.609 637.914 628.441 613.372C628.441 613.372 628.441 613.372 628.192 613.279C566.469 485.139 406.633 527.088 265.454 563.83C142.629 603.749 16.7282 560.95 -105.104 519.388C-177.513 494.879 -245.605 471.7 -313.181 464.574C-390.294 454.168 -452.718 471.908 -484.187 513.678C-503.316 539.1 -508.061 570.747 -496.636 596.258C-486.549 619.287 -464.578 634.011 -436.288 636.369C-417.28 640.073 -391.043 638.832 -363.378 637.558C-329.999 636.153 -291.994 634.495 -258.389 640.821C-247.798 642.796 -238.573 645.394 -230.123 648.552Z" fill="white"/>
<path d="M-19.8967 870.42C-70.0976 851.661 -99.6256 799.559 -128.594 748.234C-139.329 729.212 -150.374 709.507 -162.349 692.287C-198.901 634.729 -277.612 638.453 -341.358 641.538C-367.346 642.872 -391.813 643.925 -410.168 640.748C-440.57 638.734 -464.715 623.764 -476.2 599.93C-487.997 575.413 -484.677 546.065 -467.255 521.421C-438.765 480.804 -378.982 461.794 -303.456 469.625C-232.529 474.604 -160.646 499.766 -84.7879 526.414C29.3726 566.524 147.261 608.028 261.709 574.609C270.68 572.58 279.652 570.551 288.375 568.43C359.402 551.922 426.61 536.536 484.959 538.797C516.478 540.096 542.537 546.152 564.442 558.019C588.987 571.157 607.765 590.635 622.328 617.602C640.458 641.087 644.062 669.34 632.388 697.548C622.386 721.283 602.631 743.073 575.047 760.804C546.004 779.407 510.061 791.465 471.097 796.447C420.865 804.299 378.11 807.298 336.536 810.172C257.92 815.914 189.923 820.526 105.505 856.954C51.937 880.553 11.9137 882.307 -19.8967 870.42ZM-213.355 649.153C-190.242 657.79 -172.775 671.681 -160.612 690.67C-148.73 708.139 -137.436 727.936 -126.701 746.958C-103.334 788.261 -79.0953 831.022 -44.1967 855.109C-5.1962 881.861 43.5855 881.68 104.415 854.564C189.174 817.981 257.265 813.12 336.129 807.471C377.455 804.504 420.551 801.35 470.442 793.653C546.414 784.374 609.156 746.077 629.747 696.278C641.05 669.064 637.757 641.494 619.939 618.692C619.939 618.692 619.939 618.692 619.69 618.599C592.959 568.109 550.017 543.566 484.372 541.127C426.272 538.958 359.312 554.437 288.378 570.697C279.406 572.725 270.683 574.847 261.712 576.876C146.829 610.699 28.4439 569.01 -85.9651 528.806C-161.824 502.158 -233.364 476.841 -304.043 471.954C-378.731 464.153 -437.831 482.852 -465.794 522.817C-482.689 546.808 -485.886 575.069 -474.4 598.903C-463.226 622.055 -439.734 636.497 -410.171 638.482C-391.816 641.659 -367.504 640.264 -341.609 639.179C-309.565 637.558 -273.237 635.839 -240.968 641.95C-230.874 643.739 -221.804 645.996 -213.355 649.153Z" fill="white"/>
<path d="M-10.3052 867.49C-19.0034 864.24 -27.2372 859.747 -35.3481 854.167C-68.0101 830.916 -90.7246 790.141 -112.475 750.575C-123.74 729.939 -135.564 708.527 -148.751 690.004C-184.151 635.426 -259.508 639.27 -320.148 642.383C-344.119 643.622 -366.909 644.735 -384.704 642.334C-417.062 641.005 -442.727 626.316 -455.207 602.11C-466.908 579.611 -464.766 552.656 -450.011 529.847C-424.532 491.221 -368.258 471.749 -295.312 476.633C-221.687 478.939 -146.945 506.302 -67.7304 535.337C39.4115 574.524 150.188 615.353 257.221 587.376C275.817 583.846 294.257 579.974 312.449 576.01C376.399 562.522 436.624 549.907 488.918 552.455C547.578 555.399 587.163 577.556 613.267 622.146C632.047 643.892 636.456 670.746 625.681 697.308C616.547 720.234 596.11 742.335 568.648 758.98C539.294 776.899 502.947 788.523 463.95 792.077C424.396 797.122 389.188 800.392 355.252 803.288C265.646 811.154 195.073 817.353 104.819 854.999C74.0317 868.417 47.3656 874.596 23.0513 873.724C11.469 873.644 0.38112 871.483 -10.3052 867.49ZM-196.835 649.662C-174.965 657.834 -158.555 670.764 -146.859 688.729C-133.671 707.252 -121.847 728.664 -110.583 749.3C-88.7391 788.617 -66.273 829.299 -34.0152 852.116C2.00302 877.754 47.2453 877.95 103.792 853.199C194.14 815.305 268.5 808.822 354.908 801.177C388.844 798.281 423.959 795.26 463.606 789.966C539.674 782.705 603.814 745.214 623.693 696.565C634.189 670.749 629.75 644.733 611.622 623.515C611.622 623.515 611.622 623.515 611.374 623.422C585.582 579.514 546.742 557.636 488.672 554.629C436.968 552.018 376.743 564.633 312.793 578.121C294.942 581.93 276.254 585.709 257.658 589.239C150.284 617.371 38.9171 576.605 -68.4733 537.325C-147.44 508.383 -222.181 481.02 -295.217 478.651C-367.324 473.797 -422.915 492.958 -447.868 530.932C-462.343 552.995 -464.207 579.205 -453.065 600.928C-440.897 624.451 -415.884 638.612 -384.366 639.911C-366.912 642.468 -344.37 641.262 -320.4 640.024C-289.785 638.436 -255.133 636.657 -224.013 642.055C-213.857 644.434 -205.036 646.597 -196.835 649.662Z" fill="white"/>
<path d="M-0.806552 864.809C-9.2562 861.651 -17.49 857.158 -25.2595 851.423C-55.4363 829.1 -76.2857 790.155 -96.264 752.668C-108.058 730.418 -120.412 707.392 -134.408 688.001C-168.407 636.494 -240.503 640.708 -298.287 643.755C-320.58 645.054 -341.445 646.32 -357.998 644.383C-392.155 644.081 -419.59 629.581 -433.157 605.252C-444.421 584.616 -443.704 559.96 -430.936 538.675C-408.714 501.947 -355.701 482.106 -285.678 484.198C-209.758 483.396 -128.771 514.51 -50.5171 544.601C50.0101 583.299 154.265 623.391 254.318 600.452C281.079 596.292 307.374 591.107 333.078 585.984C390.573 574.615 445.024 563.809 491.853 566.58C544.302 569.47 580.624 588.99 605.759 627.837C625.096 648.092 630.404 673.299 620.434 698.463C601.487 746.894 534.831 784.295 458.171 789.351C437.525 791.549 417.902 793.279 399.118 795.04C288.183 805.415 208.172 812.618 105.502 854.687C76.8557 866.924 52.145 872.417 29.6933 871.108C18.1411 870.19 8.3887 868.245 -0.806552 864.809ZM-180.066 650.264C-159.687 657.879 -144.086 669.94 -132.857 686.881C-118.613 706.365 -106.258 729.391 -94.4642 751.641C-74.4859 789.128 -53.7921 827.732 -24.0195 849.62C9.76209 874.422 50.1922 875.369 103.574 852.268C206.585 810.043 286.938 802.684 397.873 792.309C416.657 790.548 436.279 788.818 457.175 786.713C533.245 781.719 599.125 744.878 617.701 697.441C627.143 672.931 622.054 648.654 603.369 628.927C603.369 628.927 603.369 628.927 603.12 628.834C548.777 545.368 448.752 565.202 332.833 588.158C307.128 593.281 280.833 598.465 254.072 602.626C153.429 625.627 49.1743 585.536 -51.85 546.652C-133.334 515.353 -210.594 485.633 -286.172 486.279C-355.45 484.465 -407.687 503.746 -429.63 539.729C-442.027 560.02 -442.807 584.086 -431.854 604.039C-418.691 627.934 -391.816 641.659 -358.59 642.179C-342.038 644.116 -321.173 642.85 -299.22 641.707C-270.034 640.152 -236.718 638.157 -207.182 643.246C-197.088 645.036 -188.267 647.199 -180.066 650.264Z" fill="white"/>
<path d="M8.35069 862.283C-0.0989604 859.125 -8.33274 854.632 -15.7608 848.741C-43.4524 827.348 -62.5296 790.481 -80.8912 754.731C-92.9667 730.959 -105.695 706.66 -120.747 686.308C-153.842 637.689 -219.387 641.801 -277.449 645.594C-297.724 646.798 -316.912 648.124 -332.471 646.558C-358.337 646.806 -380.919 639.783 -397.392 626.264C-412.808 613.705 -421.181 596.699 -421.45 578.472C-422.12 536.305 -377.673 493.154 -277.223 491.889C-199.257 487.887 -116.094 521.513 -35.9121 554.024C58.4977 592.419 156.231 631.772 249.893 613.81C283.703 609.734 316.672 603.361 348.462 597.114C452.865 576.934 543.142 559.69 596.418 633.127C616.313 651.89 622.178 675.607 613.17 699.713C604.905 721.831 584.776 742.348 556.755 758.217C526.344 775.175 489.652 784.688 450.56 786.224C305.375 796.545 216.428 809.472 104.104 853.882C77.5986 864.935 54.5949 869.651 34.1614 868.246C24.7203 866.984 16.3033 865.255 8.35069 862.283ZM-163.298 650.865C-144.162 658.016 -129.368 669.209 -119.01 684.691C-103.709 705.137 -91.074 729.684 -78.9986 753.455C-60.0143 790.571 -41.9639 825.638 -14.428 846.69C16.3714 870.378 53.7591 871.887 103.107 851.243C215.772 806.679 304.968 793.844 450.246 783.274C536.162 779.977 596.012 738.05 611.212 698.132C619.848 675.019 614.202 652.234 594.711 633.905C594.711 633.905 594.711 633.905 594.463 633.812C541.902 561.492 452.463 578.767 348.743 598.635C316.954 604.882 284.077 611.006 250.174 615.331C156.078 633.698 57.9405 593.91 -36.7179 555.422C-116.899 522.911 -199.566 489.471 -277.19 493.318C-376.212 494.55 -419.946 536.551 -419.246 577.88C-419.039 595.517 -410.73 611.933 -396.059 624.213C-379.835 637.639 -357.998 644.383 -332.381 644.043C-317.071 645.516 -297.882 644.189 -277.607 642.986C-249.756 641.215 -217.868 639.253 -189.575 643.878C-180.32 645.637 -171.499 647.801 -163.298 650.865Z" fill="white"/>
<path d="M17.2595 859.664C8.80986 856.507 0.917371 851.858 -6.75927 845.874C-31.9656 825.409 -48.5549 791.738 -65.9225 756.359C-78.3721 731.315 -91.04 705.339 -106.994 684.367C-138.936 638.727 -201.469 643.116 -256.674 646.843C-275.024 648.2 -292.442 649.338 -306.851 648.485C-324.923 649.096 -340.7 646.599 -353.871 641.677C-384.19 630.347 -401.141 606.736 -402.161 583.697C-403.023 563.267 -392.333 543.754 -372.073 528.95C-348.618 511.658 -312.828 501.525 -268.831 498.99C-189.224 491.353 -104.318 527.896 -22.3011 563.075C66.3326 601.011 158.104 640.402 245.653 626.67C285.83 622.99 324.201 615.804 361.144 608.651C454.806 590.688 535.708 575.038 587.419 638.261C607.778 655.781 614.791 677.944 606.247 700.808C598.509 722.273 578.566 742.294 549.985 757.387C519.263 773.662 482.259 782.492 443.042 782.848C314.743 788.151 222.387 807.168 102.798 852.827C78.4344 862.699 57.3862 866.729 38.2254 864.95C31.2995 863.778 23.9695 862.172 17.2595 859.664ZM-146.778 651.374C-128.884 658.061 -115.241 668.54 -105.257 682.75C-89.0544 703.816 -76.3865 729.791 -64.0298 755.084C-29.7616 824.817 2.29731 890.609 102.392 850.126C222.322 804.311 314.678 785.294 443.225 780.084C482.194 779.636 518.856 770.961 549.144 755.09C577.042 740.308 596.643 720.443 604.444 699.568C612.368 677.605 605.916 656.218 586.117 639.473C586.117 639.473 586.117 639.473 585.868 639.381C562.547 610.84 532.162 596.654 490.334 594.901C452.449 593.206 408.241 601.61 361.83 610.606C324.887 617.76 286.422 625.194 246.09 628.532C157.951 642.328 65.931 602.843 -22.9511 564.815C-104.719 529.728 -189.469 493.527 -268.394 500.853C-312.049 503.232 -347.343 513.551 -370.364 530.439C-390.189 544.838 -400.601 563.605 -399.46 583.291C-397.839 615.334 -364.856 648.335 -306.513 646.063C-292.104 646.915 -274.934 645.684 -256.677 644.577C-229.912 642.683 -199.95 640.568 -172.992 644.977C-163.303 646.332 -154.73 648.402 -146.778 651.374Z" fill="white"/>
<path d="M26.0754 857.294C17.6257 854.137 9.73326 849.488 2.24242 843.007C-20.7273 823.378 -35.3586 791.288 -51.0166 757.398C-63.1575 730.769 -75.8581 703.366 -92.8058 682.022C-123.596 639.362 -183.116 644.026 -235.558 647.937C-251.889 649.198 -267.383 650.489 -280.797 650.007C-308.307 651.623 -333.962 646.001 -352.825 633.571C-370.382 622.196 -381.207 605.689 -382.686 588.426C-385.394 556.26 -354.793 515.298 -260.004 505.687C-179.004 494.322 -92.8531 533.596 -9.34281 571.599C73.919 609.51 159.914 648.443 241.6 639.033C287.522 636.651 330.394 628.031 371.653 619.941C413.842 611.633 453.672 603.576 488.388 604.653C527.049 605.789 555.91 617.99 578.699 642.649C599.864 658.772 607.34 679.692 599.758 701.498C592.64 722.063 572.2 741.897 543.897 756.245C513.205 771.682 475.145 779.55 436.392 778.664C305.387 779.84 215.341 809.349 102.61 851.058C72.2868 863.234 47.1994 865.188 26.0754 857.294ZM-130.009 651.976C-113.607 658.105 -100.772 667.716 -91.2545 680.902C-74.0583 702.339 -61.4505 729.991 -49.0612 756.712C-18.5233 822.785 10.2095 885.352 102.173 849.195C215.152 807.58 305.199 778.07 436.793 776.831C475.298 777.625 513.11 769.663 543.367 754.631C571.236 740.687 591.241 721.257 598.174 701.19C605.385 680.377 598.127 660.388 577.863 644.886C577.863 644.886 577.863 644.886 577.615 644.793C528.399 591.566 456.19 605.933 372.401 622.487C331.05 630.825 288.271 639.196 242.007 641.734C159.638 651.455 73.2388 612.088 -10.023 574.178C-93.2847 536.267 -179.28 497.334 -259.598 508.388C-352.958 517.967 -383.094 557.685 -380.264 588.765C-378.847 605.438 -368.334 621.262 -351.429 632.11C-332.971 644.106 -307.906 649.79 -280.644 648.082C-267.23 648.563 -251.985 647.18 -235.746 646.167C-210.41 644.306 -181.784 641.975 -155.975 645.671C-146.534 646.934 -137.962 649.004 -130.009 651.976Z" fill="white"/>
<path d="M34.3013 854.987C25.8517 851.829 18.0521 846.932 10.9026 840.295C-9.73762 821.254 -22.7522 790.9 -36.545 758.84C-48.47 730.877 -60.9548 702.137 -78.8966 680.422C-108.783 640.649 -165.291 645.589 -215.061 649.932C-229.375 651.097 -242.85 652.292 -254.773 652.368C-278.433 654.29 -298.899 651.457 -315.798 645.142C-343.881 634.648 -361.23 615.136 -363.52 594.738C-365.589 577.538 -357.256 560.543 -340.225 546.799C-320.774 531.126 -289.798 519.477 -250.804 513.657C-168.908 498.378 -81.3558 540.724 3.05829 581.615C81.041 619.252 161.572 658.408 238.169 652.762C289.403 652.081 337.707 641.81 380.517 632.6C418.67 624.483 454.37 616.865 486.26 617.17C521.597 617.346 548.437 627.376 570.601 648.403C592.479 663.376 600.512 682.805 593.55 703.71C586.959 723.622 566.456 742.866 537.935 756.283C506.932 771.037 468.654 777.974 430.023 776.001C315.44 773.4 231.481 804.052 142.68 836.293C129.582 841.028 116.143 845.918 102.703 850.809C75.3266 860.405 53.1888 862.045 34.3013 854.987ZM-113.489 652.485C-99.5721 657.685 -87.1108 666.024 -77.5009 678.961C-59.3107 700.769 -46.9187 729.757 -34.7452 757.813C-7.78215 820.568 17.7173 879.661 101.706 848.171C115.146 843.28 128.586 838.39 141.684 833.655C230.826 801.258 315.033 770.699 429.958 773.144C468.34 775.025 506.277 768.243 536.939 753.644C565.118 740.384 584.845 721.699 591.499 702.377C597.997 682.714 590.275 663.968 569.298 649.616C569.298 649.616 569.298 649.616 569.05 649.523C521.644 604.335 456.421 618.198 380.798 634.121C337.989 643.331 289.436 653.51 238.202 654.19C161.263 659.992 80.1424 620.899 2.00413 582.92C-82.1615 542.123 -169.465 499.869 -250.523 515.178C-289.02 521.184 -319.561 532.429 -338.92 547.853C-355.517 561.193 -363.323 577.535 -361.472 593.804C-357.74 625.504 -316.905 654.924 -255.18 649.667C-243.257 649.591 -229.782 648.396 -215.468 647.23C-181.035 644.52 -143.56 641.248 -113.489 652.485Z" fill="white"/>
<path d="M41.6889 852.649C8.63583 840.298 -6.90443 800.788 -23.223 759.57C-34.6837 730.364 -46.8599 700.041 -65.6401 678.295C-94.6226 641.409 -148.118 646.625 -195.466 651.306C-207.513 652.469 -218.97 653.569 -229.309 653.954C-259.146 657.248 -287.625 653.12 -309.312 642.184C-329.6 632.054 -342.815 616.637 -345.411 600.089C-347.945 584.132 -341.007 568.598 -325.155 554.979C-307.225 539.588 -279.355 527.911 -242.567 520.417C-205.564 511.586 -164.137 515.171 -115.772 531.262C-72.9662 545.559 -28.7849 568.299 13.9055 590.483C87.0133 628.281 162.513 667.257 234.116 665.125C289.979 666.458 341.448 654.537 386.989 644.082C455.719 628.414 514.98 614.59 561.788 653.04C584.13 666.77 593.125 685.142 586.627 704.805C580.314 723.971 560.09 742.47 531.258 755.203C500.036 769.026 461.54 775.033 422.784 771.879C321.829 766.158 242.93 796.152 166.67 825.149C145.565 833.122 123.683 841.656 101.676 849.009C76.7523 858.105 57.3455 858.5 41.6889 852.649ZM-96.7206 653.086C-84.0461 657.823 -72.7346 665.448 -63.6545 676.771C-44.7186 698.858 -32.5425 729.181 -20.9262 758.729C-8.99862 788.959 2.30644 817.824 20.4614 835.937C40.7301 855.973 66.2897 859.577 101.239 847.147C123.246 839.793 145.035 831.508 166.233 823.286C242.835 794.134 321.733 764.14 423.278 769.798C461.444 773.014 499.599 767.164 530.573 753.248C558.815 740.577 578.76 722.824 584.639 704.062C590.765 685.393 582.33 667.797 560.641 654.594C560.641 654.594 560.641 654.594 560.392 654.501C514.486 616.671 455.566 630.34 387.426 645.944C341.885 656.399 290.167 668.227 233.963 667.05C162.019 669.338 86.0219 630.177 12.6656 592.285C-72.3109 548.353 -160.425 502.964 -242.223 522.528C-323.248 539.265 -347.646 573.481 -343.3 599.745C-340.766 615.703 -328.111 630.344 -308.32 640.289C-286.789 650.884 -258.9 655.075 -229.405 651.935C-218.817 651.644 -207.609 650.451 -195.562 649.288C-162.03 645.958 -125.797 642.221 -96.7206 653.086Z" fill="white"/>
<path d="M49.325 850.405C18.2601 838.797 4.61504 800.277 -9.65261 760.393C-20.5561 729.695 -31.6779 698.067 -51.2966 676.291C-79.6239 642.199 -130.449 647.846 -175.219 653.208C-184.998 654.368 -194.188 655.466 -202.851 655.91C-233.898 660.169 -263.835 656.912 -287.229 646.754C-309.224 637.402 -323.556 622.7 -326.742 606.216C-329.74 591.501 -323.671 576.776 -309.185 563.779C-292.869 548.918 -267.421 536.903 -233.088 527.641C-195.839 516.636 -153.978 519.817 -105.643 536.747C-62.5258 551.726 -18.1561 576.236 24.8155 599.941C93.1413 637.652 164.015 676.881 230.808 677.767C291.207 681.361 345.003 667.76 392.281 655.689C454.552 639.874 508.348 626.273 553.72 657.955C576.775 670.536 586.234 687.665 580.356 706.427C574.571 724.94 554.377 742.601 525.233 754.652C493.452 767.699 454.829 772.525 416.445 768.378C323.902 759.852 250.127 789.778 179.083 818.458C152.671 829.264 127.624 839.446 101.643 847.581C79.6991 855.524 62.9936 855.513 49.325 850.405ZM-79.9521 653.688C-68.5203 657.96 -58.2656 664.624 -49.901 674.83C-30.1267 696.947 -18.7562 728.669 -7.69712 759.707C2.76946 788.542 12.3649 815.918 28.2832 833.196C45.9739 852.551 69.081 856.655 100.524 846.03C126.256 837.802 151.303 827.62 177.715 816.814C249.1 787.978 322.968 757.804 416.008 766.515C497.032 775.551 566.238 741.935 577.344 706.151C582.851 688.383 573.858 672.278 551.797 660.069C507.42 628.758 453.872 642.452 392.191 658.204C344.572 670.431 290.527 683.939 229.879 680.252C162.589 679.181 91.7156 639.951 22.8928 602.055C-62.5533 554.831 -151.044 505.903 -233.334 529.814C-267.325 538.921 -292.681 550.688 -308.655 565.393C-322.458 578.078 -328.249 592.058 -325.469 605.842C-319.411 635.862 -271.343 662.603 -203.785 653.862C-195.03 653.169 -185.84 652.071 -176.153 651.16C-143.522 647.21 -108.035 643.194 -79.9521 653.688Z" fill="white"/>
<path d="M56.5268 848.565C48.0771 845.407 41.0532 839.95 34.368 832.071C20.1265 814.854 11.9922 788.873 3.42082 761.03C-6.6769 728.934 -16.9931 695.907 -37.2945 674.443C-64.8736 642.896 -113.555 649.628 -156.492 655.391C-163.664 656.393 -170.494 657.239 -176.983 657.93C-212.53 663.622 -243.462 659.994 -266.574 651.357C-290.432 642.442 -305.788 628.207 -309.594 612.624C-312.808 599.244 -307.607 585.327 -294.55 572.364C-280.096 557.939 -256.481 545.522 -224.541 535.083C-141.232 506.171 -51.867 558.824 34.1115 609.929C98.1522 647.738 164.244 686.879 226.383 691.124C290.543 697.539 346.013 681.732 395.121 667.796C451.864 651.614 500.63 637.833 544.535 663.586C568.303 675.017 578.382 691.245 572.876 709.013C567.462 726.532 546.864 743.759 517.999 755.063C485.906 767.428 447.158 771.075 408.989 765.592C322.001 754.327 252.233 784.9 184.513 814.54C155.773 827.024 128.4 838.887 100.649 847.21C83.3289 852.632 68.7042 853.115 56.5268 848.565ZM-63.1836 654.29C-52.9944 658.097 -43.6409 664.141 -36.0545 672.641C-15.3489 694.539 -4.87713 727.907 5.12778 760.251C13.7919 787.846 21.9264 813.827 35.7636 830.61C51.1247 849.378 71.5308 853.888 100.057 845.006C127.807 836.683 154.932 824.728 183.672 812.243C251.64 782.696 321.75 751.968 409.328 763.169C488.678 774.411 559.967 743.557 570.639 708.177C575.774 691.403 566.069 676.448 543.295 665.389C500.291 640.256 451.618 653.788 395.465 669.907C346.357 683.843 290.297 699.713 225.795 693.453C163.067 689.272 96.7265 650.037 32.4372 612.135C-53.3856 561.372 -142.005 508.998 -224.631 537.598C-283.668 556.887 -314.812 584.901 -308.166 612.591C-301.083 642.144 -249.353 667.422 -178.258 656.037C-171.428 655.191 -164.846 654.252 -157.767 653.498C-125.448 648.865 -90.5207 644.074 -63.1836 654.29Z" fill="white"/>
<path d="M62.9831 846.446C60.9949 845.703 59.0996 844.711 57.2043 843.72C34.2425 830.891 25.2918 797.242 15.6558 761.637C6.86081 728.329 -2.64959 693.904 -23.5409 672.502C-50.9617 643.563 -95.8848 650.85 -139.287 657.855C-143.26 658.636 -147.39 659.076 -151.363 659.857C-185.078 665.95 -218.615 664.747 -245.267 656.487C-270.676 648.692 -287.987 635.142 -292.539 619.28C-300.147 592.647 -272.108 564.606 -215.993 542.526C-132.504 508.583 -43.1962 565.18 42.8175 619.98C102.573 657.886 164.38 697.126 222.392 704.077C289.971 713.47 346.867 695.363 396.811 679.19C448.616 662.579 493.283 648.399 535.878 668.565C560.265 679.094 571.058 694.172 566.171 711.039C561.284 727.906 540.716 744.293 511.384 754.574C478.825 765.915 440.107 768.723 402.309 762.246C319.604 748.617 252.32 780.118 187.334 810.779C157.106 824.974 128.586 838.39 100.182 846.185C85.6859 850.115 73.4208 850.346 62.9831 846.446ZM-46.4151 654.891C-37.4685 658.235 -29.1718 663.317 -22.0524 670.793C-0.508423 692.721 8.90909 727.395 17.8597 761.044C27.3401 796.308 36.228 829.367 58.1958 841.825C69.2261 847.929 82.7966 848.752 99.9313 843.826C128.334 836.03 156.607 822.521 186.742 808.575C248.997 779.16 319.694 746.101 402.897 759.916C440.352 766.549 478.729 763.896 511.04 752.463C539.689 742.494 559.482 726.666 564.431 710.389C569.195 694.609 558.87 680.555 535.383 670.646C493.534 650.759 449.457 664.876 397.993 681.331C347.553 697.318 290.563 715.673 222.395 706.344C206.091 704.499 189.628 700.047 172.729 693.732C129.487 677.573 85.0815 649.368 41.826 621.875C-44.0321 567.417 -132.687 511.347 -215.059 544.574C-270.15 566.187 -297.568 593.327 -290.335 618.688C-286.095 633.867 -269.436 646.889 -244.524 654.499C-218.121 662.666 -185.081 663.684 -151.459 657.838C-147.578 657.306 -143.356 656.618 -139.382 655.837C-106.784 650.459 -73.2552 644.862 -46.4151 654.891Z" fill="white"/>
<path d="M69.005 844.731C66.7684 843.895 64.6246 842.811 62.5736 841.478C42.1271 828.739 34.9789 796.33 27.4866 761.809C19.8388 726.947 11.9725 691.154 -9.69445 670.313C-37.2055 643.888 -79.7364 652.352 -124.471 661.409L-125.402 661.628C-160.668 668.841 -195.757 668.757 -224.457 661.431C-251.914 654.57 -270.84 641.55 -275.981 625.751C-280.842 611.473 -278.205 582.436 -207.166 549.222C-123.745 510.157 -34.8369 570.853 51.4608 629.44C107.18 667.538 165.043 706.72 218.929 716.377C289.585 728.903 347.162 708.218 397.941 689.808C445.491 672.457 486.649 657.815 527.654 673.139C561.702 685.861 562.25 703.343 559.559 712.817C554.858 729.186 534.413 744.487 505.111 753.93C472.24 764.587 433.489 765.967 395.815 758.403C316.646 742.13 248.497 776.707 188.386 807.207C157.601 822.893 128.616 837.551 100.057 845.006C87.8572 848.094 77.7032 847.981 69.005 844.731ZM-29.6467 655.493C-21.9426 658.372 -14.7957 662.742 -8.29883 668.851C14.0208 690.22 21.9498 726.603 29.5977 761.465C37.0271 795.396 44.0197 827.464 63.8136 839.675C73.2599 845.471 84.8122 846.389 99.2158 842.709C127.433 835.41 156.418 820.751 187.11 805.314C247.563 774.659 316.054 739.926 395.968 756.478C480.386 773.862 548.786 741.645 557.137 712.478C561.529 697.692 550.584 684.539 526.477 675.531C485.969 660.394 445.308 675.221 398.192 692.167C347.072 710.733 289.402 731.666 218.248 718.955C163.773 709.361 106.003 669.93 50.0351 631.74C-35.517 573.431 -124.021 513.169 -206.325 551.519C-256.788 575.146 -281.598 602.127 -273.87 625.407C-268.947 640.275 -250.674 652.767 -223.962 659.35C-195.759 666.491 -160.671 666.574 -125.995 659.424L-125.064 659.205C-89.8903 652.24 -56.2382 645.556 -29.6467 655.493Z" fill="white"/>
</g>
</svg>
